{
.appVersion = "1277";
DisplayStrings = (
BC
);
copyright = "Copyright \\(c\\) 2017 by Matt Bailey. All rights reserved.";
customParameters = (
{
name = description;
value = "Copyright (c) 2017 by Matt Bailey. All rights reserved.";
},
{
name = licenseURL;
value = "http://scripts.sil.org/cms/scripts/page.php?site_id=nrsi&id=ofl_web";
},
{
name = license;

glyphs = (
{
glyphname = numbersign;
lastChange = "2019-12-18 16:23:24 +0000";
layers = (
{
hints = (
{
horizontal = 1;
place = "{0, 21}";
target = up;
type = BottomGhost;
},
{
horizontal = 1;
place = "{414, 38}";
type = Stem;
},
{
horizontal = 1;
place = "{914, 38}";
type = Stem;
},
{
horizontal = 1;
place = "{1368, -20}";
target = down;
type = TopGhost;
},
{
place = "{138, 934}";
type = Stem;
}
);
layerId = "74F259A6-12B3-44F5-88D4-EF03CB0B713A";
paths = (
{
closed = 1;
nodes = (
"138 952 LINE",
"138 914 LINE",
"388 914 LINE",
"322 452 LINE",
"138 452 LINE",
"138 414 LINE",
"316 414 LINE",
"258 0 LINE",
"296 0 LINE",
"354 414 LINE",
"780 414 LINE",
"722 0 LINE",
"760 0 LINE",
"818 414 LINE",
"1072 414 LINE",
"1072 452 LINE",
"822 452 LINE",
"888 914 LINE",
"1072 914 LINE",
"1072 952 LINE",
"894 952 LINE",
"952 1368 LINE",
"914 1368 LINE",
"856 952 LINE",
"430 952 LINE",
"488 1368 LINE",
"450 1368 LINE",
"392 952 LINE"
);
},
{
closed = 1;
nodes = (
"786 452 LINE",
"358 452 LINE",
"424 914 LINE",
"850 914 LINE"
);
}
);
width = 1210;
}
);
note = numbersign;
rightKerningGroup = space;
unicode = 0023;
},
{
glyphname = dollar;
lastChange = "2019-12-18 16:23:24 +0000";
layers = (
{
hints = (
{
horizontal = 1;
place = "{-276, 21}";
target = up;
type = BottomGhost;
},
{
horizontal = 1;
place = "{-30, 52}";
type = Stem;
},
{
horizontal = 1;
place = "{1628, 52}";
type = Stem;
},
{
horizontal = 1;
place = "{1926, -20}";
target = down;
type = TopGhost;
},
{
place = "{232, 50}";
type = Stem;
},
{
place = "{652, 46}";
type = Stem;
},
{
place = "{1094, 52}";
type = Stem;
}
);
layerId = "74F259A6-12B3-44F5-88D4-EF03CB0B713A";
paths = (
{
closed = 1;
nodes = (
"134 328 LINE",
"150 268 OFFCURVE",
"300 -28 OFFCURVE",
"652 -30 CURVE",
"652 -276 LINE",
"698 -276 LINE",
"698 -28 LINE",
"962 -12 OFFCURVE",
"1146 158 OFFCURVE",
"1146 412 CURVE SMOOTH",
"1146 654 OFFCURVE",
"988 796 OFFCURVE",
"656 898 CURVE SMOOTH",
"444 962 OFFCURVE",
"282 1060 OFFCURVE",
"282 1258 CURVE SMOOTH",
"282 1438 OFFCURVE",
"412 1628 OFFCURVE",
"654 1628 CURVE SMOOTH",
"836 1628 OFFCURVE",
"962 1518 OFFCURVE",
"1002 1416 CURVE",
"1048 1440 LINE",
"1004 1544 OFFCURVE",
"882 1662 OFFCURVE",
"698 1678 CURVE",
"698 1926 LINE",
"652 1926 LINE",
"652 1680 LINE",
"416 1680 OFFCURVE",
"232 1504 OFFCURVE",
"232 1258 CURVE SMOOTH",
"232 1068 OFFCURVE",
"352 936 OFFCURVE",
"628 852 CURVE SMOOTH",
"948 754 OFFCURVE",
"1094 628 OFFCURVE",
"1094 412 CURVE SMOOTH",
"1094 158 OFFCURVE",
"898 22 OFFCURVE",
"654 22 CURVE SMOOTH",
"334 22 OFFCURVE",
"200 286 OFFCURVE",
"178 350 CURVE"
);
}
);
width = 1280;
}
);
leftKerningGroup = dollar;
note = dollar;
rightKerningGroup = space;
unicode = 0024;
},
{
glyphname = percent;
lastChange = "2019-12-18 16:23:24 +0000";
layers = (
{
hints = (
{
horizontal = 1;
place = "{-32, 32}";
type = Stem;
},
{
horizontal = 1;
place = "{724, 32}";
type = Stem;
},
{
horizontal = 1;
place = "{892, 32}";
type = Stem;
},
{
horizontal = 1;
place = "{1648, 32}";
type = Stem;
},
{
place = "{116, 38}";
type = Stem;
},
{
place = "{870, 36}";
type = Stem;
},
{
place = "{1116, 38}";
type = Stem;
},
{
place = "{1870, 38}";
type = Stem;
},
{
horizontal = 1;
place = "{0, 21}";
target = up;
type = BottomGhost;
},
{
horizontal = 1;
place = "{1650, -20}";
target = down;
type = TopGhost;
}
);
layerId = "74F259A6-12B3-44F5-88D4-EF03CB0B713A";
paths = (
{
closed = 1;
nodes = (
"116 1054 OFFCURVE",
"288 892 OFFCURVE",
"512 892 CURVE SMOOTH",
"734 892 OFFCURVE",
"906 1054 OFFCURVE",
"906 1286 CURVE SMOOTH",
"906 1518 OFFCURVE",
"734 1680 OFFCURVE",
"512 1680 CURVE SMOOTH",
"288 1680 OFFCURVE",
"116 1518 OFFCURVE",
"116 1286 CURVE SMOOTH"
);
},
{
closed = 1;
nodes = (
"154 1498 OFFCURVE",
"304 1648 OFFCURVE",
"512 1648 CURVE SMOOTH",
"718 1648 OFFCURVE",
"870 1498 OFFCURVE",
"870 1286 CURVE SMOOTH",
"870 1074 OFFCURVE",
"718 924 OFFCURVE",
"512 924 CURVE SMOOTH",
"304 924 OFFCURVE",
"154 1074 OFFCURVE",
"154 1286 CURVE SMOOTH"
);
},
{
closed = 1;
nodes = (
"1116 130 OFFCURVE",
"1290 -32 OFFCURVE",
"1512 -32 CURVE SMOOTH",
"1736 -32 OFFCURVE",
"1908 130 OFFCURVE",
"1908 362 CURVE SMOOTH",
"1908 594 OFFCURVE",
"1736 756 OFFCURVE",
"1512 756 CURVE SMOOTH",
"1290 756 OFFCURVE",
"1116 594 OFFCURVE",
"1116 362 CURVE SMOOTH"
);
},
{
closed = 1;
nodes = (
"1154 574 OFFCURVE",
"1306 724 OFFCURVE",
"1512 724 CURVE SMOOTH",
"1720 724 OFFCURVE",
"1870 574 OFFCURVE",
"1870 362 CURVE SMOOTH",
"1870 150 OFFCURVE",
"1720 0 OFFCURVE",
"1512 0 CURVE SMOOTH",
"1306 0 OFFCURVE",
"1154 150 OFFCURVE",
"1154 362 CURVE SMOOTH"
);
},
{
closed = 1;
nodes = (
"508 0 LINE",
"556 0 LINE",
"1516 1650 LINE",
"1468 1650 LINE"
);
}
);
width = 2024;
}
);
note = percent;
rightKerningGroup = space;
unicode = 0025;
},
{
glyphname = ampersand;
lastChange = "2019-12-18 16:23:24 +0000";
layers = (
{
hints = (
{
horizontal = 1;
place = "{-32, 48}";
type = Stem;
},
{
horizontal = 1;
place = "{1630, 50}";
type = Stem;
},
{
place = "{148, 48}";
type = Stem;
},
{
place = "{292, 48}";
type = Stem;
},
{
place = "{932, 48}";
type = Stem;
},
{
horizontal = 1;
place = "{0, 21}";
target = up;
type = BottomGhost;
}
);
layerId = "74F259A6-12B3-44F5-88D4-EF03CB0B713A";
paths = (
{
closed = 1;
nodes = (
"148 148 OFFCURVE",
"338 -32 OFFCURVE",
"610 -32 CURVE SMOOTH",
"846 -32 OFFCURVE",
"1034 114 OFFCURVE",
"1164 266 CURVE",
"1266 152 OFFCURVE",
"1352 58 OFFCURVE",
"1402 0 CURVE",
"1468 0 LINE",
"1196 304 LINE",
"1308 446 OFFCURVE",
"1368 570 OFFCURVE",
"1382 600 CURVE",
"1340 618 LINE",
"1338 616 OFFCURVE",
"1276 482 OFFCURVE",
"1162 342 CURVE",
"966 560 OFFCURVE",
"734 816 OFFCURVE",
"624 930 CURVE",
"846 1036 OFFCURVE",
"980 1124 OFFCURVE",
"980 1346 CURVE SMOOTH",
"980 1508 OFFCURVE",
"860 1680 OFFCURVE",
"636 1680 CURVE SMOOTH",
"412 1680 OFFCURVE",
"292 1508 OFFCURVE",
"292 1346 CURVE SMOOTH",
"292 1172 OFFCURVE",
"418 1056 OFFCURVE",
"540 944 CURVE",
"276 812 OFFCURVE",
"148 636 OFFCURVE",
"148 406 CURVE SMOOTH"
);
},
{
closed = 1;
nodes = (
"340 1484 OFFCURVE",
"444 1630 OFFCURVE",
"636 1630 CURVE SMOOTH",
"828 1630 OFFCURVE",
"932 1484 OFFCURVE",
"932 1346 CURVE SMOOTH",
"932 1154 OFFCURVE",
"820 1076 OFFCURVE",
"586 966 CURVE",
"482 1064 OFFCURVE",
"340 1174 OFFCURVE",
"340 1346 CURVE SMOOTH"
);
},
{
closed = 1;
nodes = (
"196 542 OFFCURVE",
"236 744 OFFCURVE",
"576 908 CURVE",
"682 800 OFFCURVE",
"926 530 OFFCURVE",
"1132 304 CURVE",
"1006 158 OFFCURVE",
"828 16 OFFCURVE",
"610 16 CURVE SMOOTH",
"366 16 OFFCURVE",
"196 176 OFFCURVE",
"196 406 CURVE SMOOTH"
);
}
);
width = 1468;
}
);
note = ampersand;
rightKerningGroup = space;
unicode = 0026;
},
{
glyphname = quotesingle;
lastChange = "2019-12-18 16:23:24 +0000";
layers = (
{
hints = (
{
horizontal = 1;
place = "{1368, 21}";
target = up;
type = BottomGhost;
},
{
horizontal = 1;
place = "{1650, -20}";
target = down;
type = TopGhost;
},
{
place = "{84, 74}";
type = Stem;
},
{
place = "{96, 50}";
type = Stem;
}
);
layerId = "74F259A6-12B3-44F5-88D4-EF03CB0B713A";
paths = (
{
closed = 1;
nodes = (
"84 1650 LINE",
"96 1368 LINE",
"146 1368 LINE",
"158 1650 LINE"
);
}
);
width = 242;
}
);
leftKerningGroup = quotesingle;
note = quotesingle;
rightKerningGroup = quotesingle;
unicode = 0027;
},
{
glyphname = quotedbl;
lastChange = "2019-12-18 16:23:24 +0000";
layers = (
{
hints = (
{
horizontal = 1;
place = "{1368, 21}";
target = up;
type = BottomGhost;
},
{
horizontal = 1;
place = "{1650, -20}";
target = down;
type = TopGhost;
},
{
place = "{84, 74}";
type = Stem;
},
{
place = "{222, 74}";
type = Stem;
}
);
layerId = "74F259A6-12B3-44F5-88D4-EF03CB0B713A";
paths = (
{
closed = 1;
nodes = (
"84 1650 LINE",
"96 1368 LINE",
"146 1368 LINE",
"158 1650 LINE"
);
},
{
closed = 1;
nodes = (
"222 1650 LINE",
"234 1368 LINE",
"284 1368 LINE",
"296 1650 LINE"
);
}
);
width = 380;
}
);
note = quotedbl;
rightKerningGroup = space;
unicode = 0022;
},
{
glyphname = parenleft;
lastChange = "2019-12-18 16:23:24 +0000";
layers = (
{
hints = (
{
horizontal = 1;
place = "{-520, 21}";
target = up;
type = BottomGhost;
},
{
horizontal = 1;
place = "{1750, -20}";
target = down;
type = TopGhost;
},
{
place = "{182, 64}";
type = Stem;
}
);
layerId = "74F259A6-12B3-44F5-88D4-EF03CB0B713A";
paths = (
{
closed = 1;
nodes = (
"246 1252 OFFCURVE",
"598 1734 OFFCURVE",
"598 1734 CURVE",
"560 1750 LINE",
"560 1750 OFFCURVE",
"182 1312 OFFCURVE",
"182 614 CURVE SMOOTH",
"182 -84 OFFCURVE",
"560 -520 OFFCURVE",
"560 -520 CURVE",
"598 -504 LINE",
"598 -504 OFFCURVE",
"246 -24 OFFCURVE",
"246 614 CURVE SMOOTH"
);
}
);
width = 608;
}
);
note = parenleft;
rightKerningGroup = space;
unicode = 0028;
},
{
glyphname = parenright;
lastChange = "2019-12-18 16:23:24 +0000";
layers = (
{
hints = (
{
horizontal = 1;
place = "{-520, 21}";
target = up;
type = BottomGhost;
},
{
horizontal = 1;
place = "{1750, -20}";
target = down;
type = TopGhost;
},
{
place = "{362, 64}";
type = Stem;
}
);
layerId = "74F259A6-12B3-44F5-88D4-EF03CB0B713A";
paths = (
{
closed = 1;
nodes = (
"426 1312 OFFCURVE",
"48 1750 OFFCURVE",
"48 1750 CURVE",
"10 1734 LINE",
"10 1734 OFFCURVE",
"362 1252 OFFCURVE",
"362 614 CURVE SMOOTH",
"362 -24 OFFCURVE",
"10 -504 OFFCURVE",
"10 -504 CURVE",
"48 -520 LINE",
"48 -520 OFFCURVE",
"426 -84 OFFCURVE",
"426 614 CURVE SMOOTH"
);
}
);
width = 608;
}
);
note = parenright;
rightKerningGroup = space;
unicode = 0029;
},
{
glyphname = asterisk;
lastChange = "2019-12-18 16:23:24 +0000";
layers = (
{
hints = (
{
horizontal = 1;
place = "{1394, 21}";
target = up;
type = BottomGhost;
},
{
horizontal = 1;
place = "{1720, -20}";
target = down;
type = TopGhost;
},
{
place = "{182, 26}";
type = Stem;
},
{
place = "{24, 342}";
type = Stem;
}
);
layerId = "74F259A6-12B3-44F5-88D4-EF03CB0B713A";
paths = (
{
closed = 1;
nodes = (
"182 1720 LINE",
"182 1562 LINE",
"32 1610 LINE",
"24 1586 LINE",
"174 1538 LINE",
"82 1410 LINE",
"102 1394 LINE",
"194 1522 LINE",
"288 1394 LINE",
"308 1410 LINE",
"216 1538 LINE",
"366 1586 LINE",
"358 1610 LINE",
"208 1562 LINE",
"208 1720 LINE"
);
}
);
width = 390;
}
);
note = asterisk;
rightKerningGroup = space;
unicode = 002A;
},
{
glyphname = plus;
lastChange = "2019-12-18 16:23:24 +0000";
layers = (
{
hints = (
{
horizontal = 1;
place = "{316, 21}";
target = up;
type = BottomGhost;
},
{
horizontal = 1;
place = "{804, 48}";
type = Stem;
},
{
horizontal = 1;
place = "{1340, -20}";
target = down;
type = TopGhost;
},
{
place = "{602, 48}";
type = Stem;
}
);
layerId = "74F259A6-12B3-44F5-88D4-EF03CB0B713A";
paths = (
{
closed = 1;
nodes = (
"602 1340 LINE",
"602 852 LINE",
"114 852 LINE",
"114 804 LINE",
"602 804 LINE",
"602 316 LINE",
"650 316 LINE",
"650 804 LINE",
"1138 804 LINE",
"1138 852 LINE",
"650 852 LINE",
"650 1340 LINE"
);
}
);
width = 1252;
}
);
note = plus;
rightKerningGroup = space;
unicode = 002B;
},
{
glyphname = minus;
lastChange = "2019-12-18 16:23:24 +0000";
layers = (
{
hints = (
{
horizontal = 1;
place = "{804, 48}";
type = Stem;
},
{
place = "{96, 1024}";
type = Stem;
}
);
layerId = "74F259A6-12B3-44F5-88D4-EF03CB0B713A";
paths = (
{
closed = 1;
nodes = (
"1120 804 LINE",
"1120 852 LINE",
"96 852 LINE",
"96 804 LINE"
);
}
);
width = 1216;
}
);
note = minus;
rightKerningGroup = space;
unicode = 2212;
},
{
glyphname = multiply;
lastChange = "2019-12-18 16:23:24 +0000";
layers = (
{
hints = (
{
horizontal = 1;
place = "{398, 21}";
target = up;
type = BottomGhost;
},
{
horizontal = 1;
place = "{1258, -20}";
target = down;
type = TopGhost;
},
{
place = "{112, 860}";
type = Stem;
}
);
layerId = "74F259A6-12B3-44F5-88D4-EF03CB0B713A";
paths = (
{
closed = 1;
nodes = (
"112 1226 LINE",
"510 828 LINE",
"112 432 LINE",
"144 398 LINE",
"542 796 LINE",
"938 398 LINE",
"972 432 LINE",
"574 828 LINE",
"972 1226 LINE",
"940 1258 LINE",
"542 860 LINE",
"146 1258 LINE"
);
}
);
width = 1084;
}
);
note = multiply;
rightKerningGroup = space;
unicode = 00D7;
},
{
glyphname = divide;
lastChange = "2019-12-18 16:23:24 +0000";
layers = (
{
hints = (
{
place = "{620, 96}";
type = Stem;
}
);
layerId = "74F259A6-12B3-44F5-88D4-EF03CB0B713A";
paths = (
{
closed = 1;
nodes = (
"642 1384 OFFCURVE",
"620 1362 OFFCURVE",
"620 1336 CURVE SMOOTH",
"620 1310 OFFCURVE",
"642 1288 OFFCURVE",
"668 1288 CURVE SMOOTH",
"694 1288 OFFCURVE",
"716 1310 OFFCURVE",
"716 1336 CURVE SMOOTH",
"716 1362 OFFCURVE",
"694 1384 OFFCURVE",
"668 1384 CURVE SMOOTH"
);
},
{
closed = 1;
nodes = (
"156 854 LINE",
"156 806 LINE",
"1180 806 LINE",
"1180 854 LINE"
);
},
{
closed = 1;
nodes = (
"642 372 OFFCURVE",
"620 350 OFFCURVE",
"620 324 CURVE SMOOTH",
"620 298 OFFCURVE",
"642 276 OFFCURVE",
"668 276 CURVE SMOOTH",
"694 276 OFFCURVE",
"716 298 OFFCURVE",
"716 324 CURVE SMOOTH",
"716 350 OFFCURVE",
"694 372 OFFCURVE",
"668 372 CURVE SMOOTH"
);
}
);
width = 1336;
}
);
note = divide;
rightKerningGroup = space;
unicode = 00F7;
},
{
glyphname = less;
lastChange = "2019-12-18 16:23:24 +0000";
layers = (
{
hints = (
{
horizontal = 1;
place = "{270, 54}";
type = Stem;
},
{
horizontal = 1;
place = "{1340, 54}";
type = Stem;
}
);
layerId = "74F259A6-12B3-44F5-88D4-EF03CB0B713A";
paths = (
{
closed = 1;
nodes = (
"10 850 LINE",
"10 814 LINE",
"1104 270 LINE",
"1104 324 LINE",
"70 832 LINE",
"1104 1340 LINE",
"1104 1394 LINE"
);
}
);
width = 1200;
}
);
note = less;
rightKerningGroup = space;
unicode = 003C;
},
{
glyphname = equal;
lastChange = "2019-12-18 16:23:24 +0000";
layers = (
{
hints = (
{
horizontal = 1;
place = "{622, 48}";
type = Stem;
},
{
horizontal = 1;
place = "{988, 48}";
type = Stem;
},
{
place = "{96, 1024}";
type = Stem;
}
);
layerId = "74F259A6-12B3-44F5-88D4-EF03CB0B713A";
paths = (
{
closed = 1;
nodes = (
"96 1036 LINE",
"96 988 LINE",
"1120 988 LINE",
"1120 1036 LINE"
);
},
{
closed = 1;
nodes = (
"96 670 LINE",
"96 622 LINE",
"1120 622 LINE",
"1120 670 LINE"
);
}
);
width = 1216;
}
);
note = equal;
rightKerningGroup = space;
unicode = 003D;
},
{
glyphname = greater;
lastChange = "2019-12-18 16:23:24 +0000";
layers = (
{
hints = (
{
horizontal = 1;
place = "{270, 54}";
type = Stem;
},
{
horizontal = 1;
place = "{1340, 54}";
type = Stem;
}
);
layerId = "74F259A6-12B3-44F5-88D4-EF03CB0B713A";
paths = (
{
closed = 1;
nodes = (
"1190 850 LINE",
"96 1394 LINE",
"96 1340 LINE",
"1130 832 LINE",
"96 324 LINE",
"96 270 LINE",
"1190 814 LINE"
);
}
);
width = 1200;
}
);
note = greater;
rightKerningGroup = space;
unicode = 003E;
},
{
glyphname = plusminus;
lastChange = "2019-12-18 16:23:24 +0000";
layers = (
{
hints = (
{
horizontal = 1;
place = "{0, 48}";
type = Stem;
},
{
horizontal = 1;
place = "{804, 48}";
type = Stem;
},
{
horizontal = 1;
place = "{1340, -20}";
target = down;
type = TopGhost;
},
{
place = "{644, 48}";
type = Stem;
},
{
place = "{156, 1024}";
type = Stem;
}
);
layerId = "74F259A6-12B3-44F5-88D4-EF03CB0B713A";
paths = (
{
closed = 1;
nodes = (
"644 1340 LINE",
"644 852 LINE",
"156 852 LINE",
"156 804 LINE",
"644 804 LINE",
"644 316 LINE",
"692 316 LINE",
"692 804 LINE",
"1180 804 LINE",
"1180 852 LINE",
"692 852 LINE",
"692 1340 LINE"
);
},
{
closed = 1;
nodes = (
"1180 0 LINE",
"1180 48 LINE",
"156 48 LINE",
"156 0 LINE"
);
}
);
width = 1338;
}
);
note = plusminus;
rightKerningGroup = space;
unicode = 00B1;
},
{
glyphname = notequal;
lastChange = "2019-12-18 16:23:24 +0000";
layers = (
{
hints = (
{
horizontal = 1;
place = "{308, 21}";
target = up;
type = BottomGhost;
},
{
horizontal = 1;
place = "{622, 48}";
type = Stem;
},
{
horizontal = 1;
place = "{988, 48}";
type = Stem;
},
{
horizontal = 1;
place = "{1342, -20}";
target = down;
type = TopGhost;
},
{
place = "{96, 1024}";
type = Stem;
}
);
layerId = "74F259A6-12B3-44F5-88D4-EF03CB0B713A";
paths = (
{
closed = 1;
nodes = (
"96 988 LINE",
"616 988 LINE",
"430 670 LINE",
"96 670 LINE",
"96 622 LINE",
"404 622 LINE",
"222 308 LINE",
"270 308 LINE",
"452 622 LINE",
"1120 622 LINE",
"1120 670 LINE",
"478 670 LINE",
"664 988 LINE",
"1120 988 LINE",
"1120 1036 LINE",
"694 1036 LINE",
"872 1342 LINE",
"824 1342 LINE",
"646 1036 LINE",
"96 1036 LINE"
);
}
);
width = 1218;
}
);
note = notequal;
rightKerningGroup = space;
unicode = 2260;
},
{
glyphname = lessequal;
lastChange = "2019-12-18 16:23:24 +0000";
layers = (
{
hints = (
{
horizontal = 1;
place = "{194, 48}";
type = Stem;
},
{
horizontal = 1;
place = "{1534, -20}";
target = down;
type = TopGhost;
},
{
place = "{10, 1094}";
type = Stem;
}
);
layerId = "74F259A6-12B3-44F5-88D4-EF03CB0B713A";
paths = (
{
closed = 1;
nodes = (
"10 242 LINE",
"10 194 LINE",
"1104 194 LINE",
"1104 242 LINE"
);
},
{
closed = 1;
nodes = (
"10 990 LINE",
"10 954 LINE",
"1104 410 LINE",
"1104 456 LINE",
"62 972 LINE",
"1104 1488 LINE",
"1104 1534 LINE"
);
}
);
width = 1200;
}
);
note = lessequal;
rightKerningGroup = space;
unicode = 2264;
},
{
glyphname = greaterequal;
lastChange = "2019-12-18 16:23:24 +0000";
layers = (
{
hints = (
{
horizontal = 1;
place = "{194, 48}";
type = Stem;
},
{
horizontal = 1;
place = "{1534, -20}";
target = down;
type = TopGhost;
},
{
place = "{96, 1094}";
type = Stem;
}
);
layerId = "74F259A6-12B3-44F5-88D4-EF03CB0B713A";
paths = (
{
closed = 1;
nodes = (
"96 242 LINE",
"96 194 LINE",
"1190 194 LINE",
"1190 242 LINE"
);
},
{
closed = 1;
nodes = (
"1190 990 LINE",
"96 1534 LINE",
"96 1488 LINE",
"1138 972 LINE",
"96 456 LINE",
"96 410 LINE",
"1190 954 LINE"
);
}
);
width = 1200;
}
);
note = greaterequal;
rightKerningGroup = space;
unicode = 2265;
},
{
glyphname = fraction;
lastChange = "2019-12-18 16:23:24 +0000";
layers = (
{
hints = (
{
horizontal = 1;
place = "{0, 21}";
target = up;
type = BottomGhost;
},
{
horizontal = 1;
place = "{1650, -20}";
target = down;
type = TopGhost;
},
{
place = "{-224, 1008}";
type = Stem;
}
);
layerId = "74F259A6-12B3-44F5-88D4-EF03CB0B713A";
paths = (
{
closed = 1;
nodes = (
"-224 0 LINE",
"-176 0 LINE",
"784 1650 LINE",
"736 1650 LINE"
);
}
);
width = 528;
}
);
note = fraction;
rightKerningGroup = space;
unicode = 2044;
},
{
glyphname = comma;
lastChange = "2019-12-18 16:23:24 +0000";
layers = (
{
hints = (
{
horizontal = 1;
place = "{-186, 21}";
target = up;
type = BottomGhost;
},
{
horizontal = 1;
place = "{-32, 21}";
target = up;
type = BottomGhost;
},
{
horizontal = 1;
place = "{64, -20}";
target = down;
type = TopGhost;
},
{
place = "{112, 96}";
type = Stem;
}
);
layerId = "74F259A6-12B3-44F5-88D4-EF03CB0B713A";
paths = (
{
closed = 1;
nodes = (
"134 64 OFFCURVE",
"112 42 OFFCURVE",
"112 16 CURVE SMOOTH",
"112 -10 OFFCURVE",
"134 -32 OFFCURVE",
"160 -32 CURVE",
"160 -96 OFFCURVE",
"148 -140 OFFCURVE",
"124 -176 CURVE",
"134 -186 LINE",
"178 -148 OFFCURVE",
"208 -80 OFFCURVE",
"208 16 CURVE SMOOTH",
"208 42 OFFCURVE",
"186 64 OFFCURVE",
"160 64 CURVE SMOOTH"
);
}
);
width = 320;
}
);
leftKerningGroup = comma;
note = comma;
rightKerningGroup = space;
unicode = 002C;
},
{
glyphname = hyphen;
lastChange = "2019-12-18 16:23:24 +0000";
layers = (
{
hints = (
{
horizontal = 1;
place = "{556, 48}";
type = Stem;
},
{
place = "{142, 644}";
type = Stem;
}
);
layerId = "74F259A6-12B3-44F5-88D4-EF03CB0B713A";
paths = (
{
closed = 1;
nodes = (
"142 604 LINE",
"142 556 LINE",
"786 556 LINE",
"786 604 LINE"
);
}
);
width = 928;
}
);
note = hyphen;
rightKerningGroup = space;
unicode = 002D;
},
{
glyphname = period;
lastChange = "2019-12-18 16:23:24 +0000";
layers = (
{
hints = (
{
horizontal = 1;
place = "{-32, 96}";
type = Stem;
},
{
place = "{112, 96}";
type = Stem;
}
);
layerId = "74F259A6-12B3-44F5-88D4-EF03CB0B713A";
paths = (
{
closed = 1;
nodes = (
"134 64 OFFCURVE",
"112 42 OFFCURVE",
"112 16 CURVE SMOOTH",
"112 -10 OFFCURVE",
"134 -32 OFFCURVE",
"160 -32 CURVE SMOOTH",
"186 -32 OFFCURVE",
"208 -10 OFFCURVE",
"208 16 CURVE SMOOTH",
"208 42 OFFCURVE",
"186 64 OFFCURVE",
"160 64 CURVE SMOOTH"
);
}
);
width = 320;
}
);
leftKerningGroup = comma;
note = period;
rightKerningGroup = space;
unicode = 002E;
},
{
glyphname = slash;
lastChange = "2019-12-18 16:23:24 +0000";
layers = (
{
hints = (
{
horizontal = 1;
place = "{-240, 21}";
target = up;
type = BottomGhost;
},
{
horizontal = 1;
place = "{1720, -20}";
target = down;
type = TopGhost;
},
{
place = "{0, 864}";
type = Stem;
}
);
layerId = "74F259A6-12B3-44F5-88D4-EF03CB0B713A";
paths = (
{
closed = 1;
nodes = (
"0 -240 LINE",
"40 -240 LINE",
"864 1720 LINE",
"824 1720 LINE"
);
}
);
width = 864;
}
);
note = slash;
rightKerningGroup = space;
unicode = 002F;
},
{
glyphname = zero;
lastChange = "2019-12-18 16:23:24 +0000";
layers = (
{
hints = (
{
horizontal = 1;
place = "{-32, 52}";
type = Stem;
},
{
horizontal = 1;
place = "{1628, 52}";
type = Stem;
},
{
place = "{180, 52}";
type = Stem;
},
{
place = "{1468, 52}";
type = Stem;
}
);
layerId = "74F259A6-12B3-44F5-88D4-EF03CB0B713A";
paths = (
{
closed = 1;
nodes = (
"180 250 OFFCURVE",
"496 -32 OFFCURVE",
"850 -32 CURVE SMOOTH",
"1204 -32 OFFCURVE",
"1520 250 OFFCURVE",
"1520 824 CURVE SMOOTH",
"1520 1398 OFFCURVE",
"1204 1680 OFFCURVE",
"850 1680 CURVE SMOOTH",
"496 1680 OFFCURVE",
"180 1398 OFFCURVE",
"180 824 CURVE SMOOTH"
);
},
{
closed = 1;
nodes = (
"232 1362 OFFCURVE",
"518 1628 OFFCURVE",
"850 1628 CURVE SMOOTH",
"1182 1628 OFFCURVE",
"1468 1362 OFFCURVE",
"1468 824 CURVE SMOOTH",
"1468 286 OFFCURVE",
"1182 20 OFFCURVE",
"850 20 CURVE SMOOTH",
"518 20 OFFCURVE",
"232 286 OFFCURVE",
"232 824 CURVE SMOOTH"
);
}
);
width = 1702;
}
);
note = zero;
rightKerningGroup = space;
unicode = 0030;
},
{
glyphname = one;
lastChange = "2019-12-18 16:23:24 +0000";
layers = (
{
hints = (
{
horizontal = 1;
place = "{0, 21}";
target = up;
type = BottomGhost;
},
{
horizontal = 1;
place = "{1594, 56}";
type = Stem;
},
{
place = "{232, 56}";
type = Stem;
}
);
layerId = "74F259A6-12B3-44F5-88D4-EF03CB0B713A";
paths = (
{
closed = 1;
nodes = (
"126 1650 LINE",
"126 1594 LINE",
"232 1594 LINE",
"232 0 LINE",
"288 0 LINE",
"288 1650 LINE"
);
}
);
width = 520;
}
);
note = one;
rightKerningGroup = space;
unicode = 0031;
},
{
glyphname = two;
lastChange = "2019-12-18 16:23:24 +0000";
layers = (
{
hints = (
{
horizontal = 1;
place = "{0, 52}";
type = Stem;
},
{
horizontal = 1;
place = "{1618, 62}";
type = Stem;
},
{
place = "{210, 62}";
type = Stem;
},
{
place = "{1208, 62}";
type = Stem;
}
);
layerId = "74F259A6-12B3-44F5-88D4-EF03CB0B713A";
paths = (
{
closed = 1;
nodes = (
"272 1150 LINE",
"272 1408 OFFCURVE",
"482 1618 OFFCURVE",
"740 1618 CURVE SMOOTH",
"998 1618 OFFCURVE",
"1208 1408 OFFCURVE",
"1208 1150 CURVE SMOOTH",
"1208 780 OFFCURVE",
"660 398 OFFCURVE",
"180 18 CURVE",
"180 0 LINE",
"1300 0 LINE",
"1300 52 LINE",
"320 52 LINE",
"914 526 OFFCURVE",
"1270 810 OFFCURVE",
"1270 1150 CURVE SMOOTH",
"1270 1442 OFFCURVE",
"1032 1680 OFFCURVE",
"740 1680 CURVE SMOOTH",
"448 1680 OFFCURVE",
"210 1442 OFFCURVE",
"210 1150 CURVE"
);
}
);
width = 1480;
}
);
note = two;
rightKerningGroup = space;
unicode = 0032;
},
{
glyphname = three;
lastChange = "2019-12-18 16:23:24 +0000";
layers = (
{
hints = (
{
horizontal = 1;
place = "{-32, 62}";
type = Stem;
},
{
horizontal = 1;
place = "{812, 52}";
type = Stem;
},
{
horizontal = 1;
place = "{1624, 56}";
type = Stem;
},
{
place = "{1002, 60}";
type = Stem;
},
{
place = "{1010, 64}";
type = Stem;
}
);
layerId = "74F259A6-12B3-44F5-88D4-EF03CB0B713A";
paths = (
{
closed = 1;
nodes = (
"266 1256 LINE",
"266 1458 OFFCURVE",
"430 1624 OFFCURVE",
"634 1624 CURVE SMOOTH",
"838 1624 OFFCURVE",
"1002 1458 OFFCURVE",
"1002 1256 CURVE SMOOTH",
"1002 1034 OFFCURVE",
"822 864 OFFCURVE",
"600 864 CURVE SMOOTH",
"556 864 LINE",
"556 806 LINE",
"556 806 OFFCURVE",
"580 812 OFFCURVE",
"610 812 CURVE SMOOTH",
"822 812 OFFCURVE",
"1010 634 OFFCURVE",
"1010 406 CURVE SMOOTH",
"1010 198 OFFCURVE",
"874 30 OFFCURVE",
"606 30 CURVE SMOOTH",
"338 30 OFFCURVE",
"174 196 OFFCURVE",
"174 404 CURVE",
"116 404 LINE",
"116 162 OFFCURVE",
"296 -32 OFFCURVE",
"606 -32 CURVE SMOOTH",
"918 -32 OFFCURVE",
"1074 164 OFFCURVE",
"1074 406 CURVE SMOOTH",
"1074 606 OFFCURVE",
"952 792 OFFCURVE",
"758 836 CURVE",
"934 890 OFFCURVE",
"1062 1060 OFFCURVE",
"1062 1254 CURVE SMOOTH",
"1062 1488 OFFCURVE",
"872 1680 OFFCURVE",
"636 1680 CURVE SMOOTH",
"402 1680 OFFCURVE",
"210 1500 OFFCURVE",
"210 1256 CURVE"
);
}
);
width = 1254;
}
);
note = three;
rightKerningGroup = space;
unicode = 0033;
},
{
glyphname = four;
lastChange = "2019-12-18 16:23:24 +0000";
layers = (
{
hints = (
{
horizontal = 1;
place = "{0, 21}";
target = up;
type = BottomGhost;
},
{
horizontal = 1;
place = "{626, 50}";
type = Stem;
},
{
horizontal = 1;
place = "{1650, -20}";
target = down;
type = TopGhost;
},
{
place = "{780, 56}";
type = Stem;
}
);
layerId = "74F259A6-12B3-44F5-88D4-EF03CB0B713A";
paths = (
{
closed = 1;
nodes = (
"10 626 LINE",
"780 626 LINE",
"780 0 LINE",
"836 0 LINE",
"836 626 LINE",
"1028 626 LINE",
"1028 676 LINE",
"836 676 LINE",
"836 1650 LINE",
"780 1650 LINE",
"10 676 LINE"
);
},
{
closed = 1;
nodes = (
"74 676 LINE",
"780 1568 LINE",
"780 676 LINE"
);
}
);
width = 1078;
}
);
note = four;
rightKerningGroup = space;
unicode = 0034;
},
{
glyphname = five;
lastChange = "2019-12-18 16:23:24 +0000";
layers = (
{
hints = (
{
horizontal = 1;
place = "{-32, 48}";
type = Stem;
},
{
horizontal = 1;
place = "{1044, 48}";
type = Stem;
},
{
horizontal = 1;
place = "{1600, 50}";
type = Stem;
},
{
place = "{1218, 50}";
type = Stem;
}
);
layerId = "74F259A6-12B3-44F5-88D4-EF03CB0B713A";
paths = (
{
closed = 1;
nodes = (
"320 1650 LINE",
"188 798 LINE",
"292 918 OFFCURVE",
"452 1044 OFFCURVE",
"680 1044 CURVE SMOOTH",
"976 1044 OFFCURVE",
"1218 846 OFFCURVE",
"1218 512 CURVE SMOOTH",
"1218 222 OFFCURVE",
"1034 16 OFFCURVE",
"682 16 CURVE SMOOTH",
"398 16 OFFCURVE",
"220 196 OFFCURVE",
"164 350 CURVE",
"116 326 LINE",
"178 158 OFFCURVE",
"368 -32 OFFCURVE",
"680 -32 CURVE SMOOTH",
"1064 -32 OFFCURVE",
"1268 194 OFFCURVE",
"1268 510 CURVE SMOOTH",
"1268 876 OFFCURVE",
"1004 1092 OFFCURVE",
"678 1092 CURVE SMOOTH",
"474 1092 OFFCURVE",
"344 1012 OFFCURVE",
"256 930 CURVE",
"360 1600 LINE",
"1162 1600 LINE",
"1162 1650 LINE"
);
}
);
width = 1412;
}
);
note = five;
rightKerningGroup = space;
unicode = 0035;
},
{
glyphname = six;
lastChange = "2019-12-18 16:23:24 +0000";
layers = (
{
hints = (
{
horizontal = 1;
place = "{-32, 52}";
type = Stem;
},
{
horizontal = 1;
place = "{1044, 52}";
type = Stem;
},
{
horizontal = 1;
place = "{1650, -20}";
target = down;
type = TopGhost;
},
{
place = "{138, 52}";
type = Stem;
},
{
place = "{1208, 52}";
type = Stem;
}
);
layerId = "74F259A6-12B3-44F5-88D4-EF03CB0B713A";
paths = (
{
closed = 1;
nodes = (
"138 204 OFFCURVE",
"370 -32 OFFCURVE",
"694 -32 CURVE SMOOTH",
"1020 -32 OFFCURVE",
"1260 204 OFFCURVE",
"1260 524 CURVE SMOOTH",
"1260 854 OFFCURVE",
"1010 1096 OFFCURVE",
"694 1096 CURVE SMOOTH",
"602 1096 OFFCURVE",
"516 1064 OFFCURVE",
"446 1024 CURVE",
"970 1650 LINE",
"900 1650 LINE",
"900 1650 OFFCURVE",
"348 992 OFFCURVE",
"280 912 CURVE SMOOTH",
"212 832 OFFCURVE",
"138 678 OFFCURVE",
"138 524 CURVE SMOOTH"
);
},
{
closed = 1;
nodes = (
"190 806 OFFCURVE",
"418 1044 OFFCURVE",
"694 1044 CURVE SMOOTH",
"982 1044 OFFCURVE",
"1208 826 OFFCURVE",
"1208 526 CURVE SMOOTH",
"1208 234 OFFCURVE",
"990 20 OFFCURVE",
"694 20 CURVE SMOOTH",
"400 20 OFFCURVE",
"190 234 OFFCURVE",
"190 526 CURVE SMOOTH"
);
}
);
width = 1398;
}
);
note = six;
rightKerningGroup = space;
unicode = 0036;
},
{
glyphname = seven;
lastChange = "2019-12-18 16:23:24 +0000";
layers = (
{
hints = (
{
horizontal = 1;
place = "{0, 21}";
target = up;
type = BottomGhost;
},
{
horizontal = 1;
place = "{1600, 50}";
type = Stem;
}
);
layerId = "74F259A6-12B3-44F5-88D4-EF03CB0B713A";
paths = (
{
closed = 1;
nodes = (
"112 1650 LINE",
"112 1600 LINE",
"970 1600 LINE",
"112 0 LINE",
"178 0 LINE",
"1050 1624 LINE",
"1050 1650 LINE"
);
}
);
width = 1050;
}
);
note = seven;
rightKerningGroup = space;
unicode = 0037;
},
{
glyphname = eight;
lastChange = "2019-12-18 16:23:24 +0000";
layers = (
{
hints = (
{
horizontal = 1;
place = "{-32, 48}";
type = Stem;
},
{
horizontal = 1;
place = "{846, 46}";
type = Stem;
},
{
horizontal = 1;
place = "{1638, 42}";
type = Stem;
},
{
place = "{138, 54}";
type = Stem;
},
{
place = "{198, 48}";
type = Stem;
},
{
place = "{998, 48}";
type = Stem;
},
{
place = "{1052, 54}";
type = Stem;
}
);
layerId = "74F259A6-12B3-44F5-88D4-EF03CB0B713A";
paths = (
{
closed = 1;
nodes = (
"198 1078 OFFCURVE",
"308 934 OFFCURVE",
"458 872 CURVE",
"276 808 OFFCURVE",
"138 648 OFFCURVE",
"138 434 CURVE SMOOTH",
"138 164 OFFCURVE",
"346 -32 OFFCURVE",
"622 -32 CURVE SMOOTH",
"898 -32 OFFCURVE",
"1106 164 OFFCURVE",
"1106 434 CURVE SMOOTH",
"1106 648 OFFCURVE",
"968 808 OFFCURVE",
"786 872 CURVE",
"936 934 OFFCURVE",
"1046 1078 OFFCURVE",
"1046 1260 CURVE SMOOTH",
"1046 1508 OFFCURVE",
"856 1680 OFFCURVE",
"622 1680 CURVE SMOOTH",
"388 1680 OFFCURVE",
"198 1508 OFFCURVE",
"198 1260 CURVE SMOOTH"
);
},
{
closed = 1;
nodes = (
"246 1484 OFFCURVE",
"414 1638 OFFCURVE",
"622 1638 CURVE SMOOTH",
"830 1638 OFFCURVE",
"998 1484 OFFCURVE",
"998 1264 CURVE SMOOTH",
"998 1048 OFFCURVE",
"836 892 OFFCURVE",
"622 892 CURVE SMOOTH",
"408 892 OFFCURVE",
"246 1048 OFFCURVE",
"246 1264 CURVE SMOOTH"
);
},
{
closed = 1;
nodes = (
"192 676 OFFCURVE",
"384 846 OFFCURVE",
"622 846 CURVE SMOOTH",
"860 846 OFFCURVE",
"1052 676 OFFCURVE",
"1052 432 CURVE SMOOTH",
"1052 190 OFFCURVE",
"868 16 OFFCURVE",
"622 16 CURVE SMOOTH",
"376 16 OFFCURVE",
"192 190 OFFCURVE",
"192 432 CURVE SMOOTH"
);
}
);
width = 1244;
}
);
note = eight;
rightKerningGroup = space;
unicode = 0038;
},
{
glyphname = nine;
lastChange = "2019-12-18 16:23:24 +0000";
layers = (
{
hints = (
{
horizontal = 1;
place = "{0, 21}";
target = up;
type = BottomGhost;
},
{
horizontal = 1;
place = "{554, 52}";
type = Stem;
},
{
horizontal = 1;
place = "{1628, 52}";
type = Stem;
},
{
place = "{138, 52}";
type = Stem;
},
{
place = "{1208, 52}";
type = Stem;
}
);
layerId = "74F259A6-12B3-44F5-88D4-EF03CB0B713A";
paths = (
{
closed = 1;
nodes = (
"138 794 OFFCURVE",
"388 554 OFFCURVE",
"704 554 CURVE SMOOTH",
"796 554 OFFCURVE",
"882 584 OFFCURVE",
"952 624 CURVE",
"428 0 LINE",
"498 0 LINE",
"498 0 OFFCURVE",
"1050 658 OFFCURVE",
"1118 738 CURVE SMOOTH",
"1186 816 OFFCURVE",
"1260 970 OFFCURVE",
"1260 1124 CURVE SMOOTH",
"1260 1444 OFFCURVE",
"1028 1680 OFFCURVE",
"704 1680 CURVE SMOOTH",
"378 1680 OFFCURVE",
"138 1444 OFFCURVE",
"138 1124 CURVE SMOOTH"
);
},
{
closed = 1;
nodes = (
"190 1414 OFFCURVE",
"408 1628 OFFCURVE",
"702 1628 CURVE SMOOTH",
"998 1628 OFFCURVE",
"1208 1414 OFFCURVE",
"1208 1122 CURVE SMOOTH",
"1208 842 OFFCURVE",
"980 606 OFFCURVE",
"702 606 CURVE SMOOTH",
"416 606 OFFCURVE",
"190 824 OFFCURVE",
"190 1122 CURVE SMOOTH"
);
}
);
width = 1398;
}
);
note = nine;
rightKerningGroup = space;
unicode = 0039;
},
{
glyphname = colon;
lastChange = "2019-12-18 16:23:24 +0000";
layers = (
{
hints = (
{
horizontal = 1;
place = "{-32, 96}";
type = Stem;
},
{
horizontal = 1;
place = "{1012, 96}";
type = Stem;
},
{
place = "{112, 96}";
type = Stem;
}
);
layerId = "74F259A6-12B3-44F5-88D4-EF03CB0B713A";
paths = (
{
closed = 1;
nodes = (
"134 64 OFFCURVE",
"112 42 OFFCURVE",
"112 16 CURVE SMOOTH",
"112 -10 OFFCURVE",
"134 -32 OFFCURVE",
"160 -32 CURVE SMOOTH",
"186 -32 OFFCURVE",
"208 -10 OFFCURVE",
"208 16 CURVE SMOOTH",
"208 42 OFFCURVE",
"186 64 OFFCURVE",
"160 64 CURVE SMOOTH"
);
},
{
closed = 1;
nodes = (
"134 1108 OFFCURVE",
"112 1086 OFFCURVE",
"112 1060 CURVE SMOOTH",
"112 1034 OFFCURVE",
"134 1012 OFFCURVE",
"160 1012 CURVE SMOOTH",
"186 1012 OFFCURVE",
"208 1034 OFFCURVE",
"208 1060 CURVE SMOOTH",
"208 1086 OFFCURVE",
"186 1108 OFFCURVE",
"160 1108 CURVE SMOOTH"
);
}
);
width = 320;
}
);
note = colon;
rightKerningGroup = space;
unicode = 003A;
},
{
glyphname = semicolon;
lastChange = "2019-12-18 16:23:24 +0000";
layers = (
{
hints = (
{
horizontal = 1;
place = "{-186, 21}";
target = up;
type = BottomGhost;
},
{
horizontal = 1;
place = "{-32, 21}";
target = up;
type = BottomGhost;
},
{
horizontal = 1;
place = "{64, -20}";
target = down;
type = TopGhost;
},
{
horizontal = 1;
place = "{1012, 96}";
type = Stem;
},
{
place = "{112, 96}";
type = Stem;
}
);
layerId = "74F259A6-12B3-44F5-88D4-EF03CB0B713A";
paths = (
{
closed = 1;
nodes = (
"134 64 OFFCURVE",
"112 42 OFFCURVE",
"112 16 CURVE SMOOTH",
"112 -10 OFFCURVE",
"134 -32 OFFCURVE",
"160 -32 CURVE",
"160 -96 OFFCURVE",
"148 -140 OFFCURVE",
"124 -176 CURVE",
"134 -186 LINE",
"178 -148 OFFCURVE",
"208 -80 OFFCURVE",
"208 16 CURVE SMOOTH",
"208 42 OFFCURVE",
"186 64 OFFCURVE",
"160 64 CURVE SMOOTH"
);
},
{
closed = 1;
nodes = (
"134 1108 OFFCURVE",
"112 1086 OFFCURVE",
"112 1060 CURVE SMOOTH",
"112 1034 OFFCURVE",
"134 1012 OFFCURVE",
"160 1012 CURVE SMOOTH",
"186 1012 OFFCURVE",
"208 1034 OFFCURVE",
"208 1060 CURVE SMOOTH",
"208 1086 OFFCURVE",
"186 1108 OFFCURVE",
"160 1108 CURVE SMOOTH"
);
}
);
width = 320;
}
);
note = semicolon;
rightKerningGroup = space;
unicode = 003B;
},
{
glyphname = exclam;
lastChange = "2019-12-18 16:23:24 +0000";
layers = (
{
hints = (
{
horizontal = 1;
place = "{-32, 96}";
type = Stem;
},
{
horizontal = 1;
place = "{1720, -20}";
target = down;
type = TopGhost;
},
{
place = "{232, 96}";
type = Stem;
},
{
place = "{254, 52}";
type = Stem;
}
);
layerId = "74F259A6-12B3-44F5-88D4-EF03CB0B713A";
paths = (
{
closed = 1;
nodes = (
"254 64 OFFCURVE",
"232 42 OFFCURVE",
"232 16 CURVE SMOOTH",
"232 -10 OFFCURVE",
"254 -32 OFFCURVE",
"280 -32 CURVE SMOOTH",
"306 -32 OFFCURVE",
"328 -10 OFFCURVE",
"328 16 CURVE SMOOTH",
"328 42 OFFCURVE",
"306 64 OFFCURVE",
"280 64 CURVE SMOOTH"
);
},
{
closed = 1;
nodes = (
"254 1720 LINE",
"254 336 LINE",
"306 336 LINE",
"306 1720 LINE"
);
}
);
width = 560;
}
);
note = exclam;
rightKerningGroup = space;
unicode = 0021;
},
{
glyphname = question;
lastChange = "2019-12-18 16:23:24 +0000";
layers = (
{
hints = (
{
horizontal = 1;
place = "{-32, 96}";
type = Stem;
},
{
horizontal = 1;
place = "{690, 50}";
type = Stem;
},
{
horizontal = 1;
place = "{1624, 56}";
type = Stem;
},
{
place = "{72, 56}";
type = Stem;
},
{
place = "{482, 50}";
type = Stem;
},
{
place = "{988, 56}";
type = Stem;
},
{
place = "{458, 96}";
type = Stem;
}
);
layerId = "74F259A6-12B3-44F5-88D4-EF03CB0B713A";
paths = (
{
closed = 1;
nodes = (
"128 1184 LINE",
"128 1452 OFFCURVE",
"296 1624 OFFCURVE",
"556 1624 CURVE SMOOTH",
"812 1624 OFFCURVE",
"988 1458 OFFCURVE",
"988 1192 CURVE SMOOTH",
"988 930 OFFCURVE",
"822 740 OFFCURVE",
"530 740 CURVE SMOOTH",
"512 740 OFFCURVE",
"494 742 OFFCURVE",
"482 744 CURVE",
"482 370 LINE",
"532 370 LINE",
"532 690 LINE",
"866 690 OFFCURVE",
"1044 928 OFFCURVE",
"1044 1192 CURVE SMOOTH",
"1044 1458 OFFCURVE",
"844 1680 OFFCURVE",
"556 1680 CURVE SMOOTH",
"262 1680 OFFCURVE",
"72 1484 OFFCURVE",
"72 1184 CURVE"
);
},
{
closed = 1;
nodes = (
"480 64 OFFCURVE",
"458 42 OFFCURVE",
"458 16 CURVE SMOOTH",
"458 -10 OFFCURVE",
"480 -32 OFFCURVE",
"506 -32 CURVE SMOOTH",
"532 -32 OFFCURVE",
"554 -10 OFFCURVE",
"554 16 CURVE SMOOTH",
"554 42 OFFCURVE",
"532 64 OFFCURVE",
"506 64 CURVE SMOOTH"
);
}
);
width = 1150;
}
);
note = question;
rightKerningGroup = space;
unicode = 003F;
},
{
glyphname = at;
lastChange = "2019-12-18 16:23:24 +0000";
layers = (
{
hints = (
{
horizontal = 1;
place = "{-32, 54}";
type = Stem;
},
{
horizontal = 1;
place = "{262, 52}";
type = Stem;
},
{
horizontal = 1;
place = "{412, 50}";
type = Stem;
},
{
horizontal = 1;
place = "{1300, 52}";
type = Stem;
},
{
horizontal = 1;
place = "{1626, 54}";
type = Stem;
},
{
place = "{148, 60}";
type = Stem;
},
{
place = "{428, 54}";
type = Stem;
},
{
place = "{1400, 56}";
type = Stem;
},
{
place = "{1752, 60}";
type = Stem;
}
);
layerId = "74F259A6-12B3-44F5-88D4-EF03CB0B713A";
paths = (
{
closed = 1;
nodes = (
"148 342 OFFCURVE",
"492 -32 OFFCURVE",
"982 -32 CURVE SMOOTH",
"1268 -32 OFFCURVE",
"1512 106 OFFCURVE",
"1660 322 CURVE",
"1608 348 LINE",
"1470 148 OFFCURVE",
"1246 22 OFFCURVE",
"980 22 CURVE SMOOTH",
"528 22 OFFCURVE",
"208 372 OFFCURVE",
"208 824 CURVE SMOOTH",
"208 1276 OFFCURVE",
"560 1626 OFFCURVE",
"980 1626 CURVE SMOOTH",
"1406 1626 OFFCURVE",
"1752 1276 OFFCURVE",
"1752 824 CURVE SMOOTH",
"1752 544 OFFCURVE",
"1698 462 OFFCURVE",
"1606 462 CURVE SMOOTH",
"1514 462 OFFCURVE",
"1456 524 OFFCURVE",
"1456 654 CURVE SMOOTH",
"1456 1320 LINE",
"1400 1320 LINE",
"1400 1058 LINE",
"1318 1238 OFFCURVE",
"1148 1352 OFFCURVE",
"942 1352 CURVE SMOOTH",
"652 1352 OFFCURVE",
"428 1126 OFFCURVE",
"428 806 CURVE SMOOTH",
"428 486 OFFCURVE",
"652 262 OFFCURVE",
"942 262 CURVE SMOOTH",
"1148 262 OFFCURVE",
"1318 376 OFFCURVE",
"1400 556 CURVE",
"1420 494 OFFCURVE",
"1476 412 OFFCURVE",
"1606 412 CURVE SMOOTH",
"1766 412 OFFCURVE",
"1812 592 OFFCURVE",
"1812 824 CURVE SMOOTH",
"1812 1308 OFFCURVE",
"1440 1680 OFFCURVE",
"982 1680 CURVE SMOOTH",
"526 1680 OFFCURVE",
"148 1308 OFFCURVE",
"148 824 CURVE SMOOTH"
);
},
{
closed = 1;
nodes = (
"482 1096 OFFCURVE",
"678 1300 OFFCURVE",
"944 1300 CURVE SMOOTH",
"1212 1300 OFFCURVE",
"1406 1096 OFFCURVE",
"1406 806 CURVE SMOOTH",
"1406 518 OFFCURVE",
"1212 314 OFFCURVE",
"944 314 CURVE SMOOTH",
"678 314 OFFCURVE",
"482 518 OFFCURVE",
"482 806 CURVE SMOOTH"
);
}
);
width = 1960;
}
);
note = at;
rightKerningGroup = space;
unicode = 0040;
},
{
glyphname = A;
lastChange = "2019-12-18 16:23:24 +0000";
layers = (
{
hints = (
{
horizontal = 1;
place = "{0, 21}";
target = up;
type = BottomGhost;
},
{
horizontal = 1;
place = "{610, 50}";
type = Stem;
},
{
horizontal = 1;
place = "{1650, -20}";
target = down;
type = TopGhost;
},
{
place = "{0, 1336}";
type = Stem;
}
);
layerId = "74F259A6-12B3-44F5-88D4-EF03CB0B713A";
paths = (
{
closed = 1;
nodes = (
"642 1650 LINE",
"0 0 LINE",
"60 0 LINE",
"296 610 LINE",
"1040 610 LINE",
"1276 0 LINE",
"1336 0 LINE",
"694 1650 LINE"
);
},
{
closed = 1;
nodes = (
"668 1582 LINE",
"1022 660 LINE",
"314 660 LINE"
);
}
);
width = 1336;
}
);
leftKerningGroup = A;
note = A;
rightKerningGroup = space;
unicode = 0041;
},
{
glyphname = B;
lastChange = "2019-12-18 16:23:24 +0000";
layers = (
{
hints = (
{
horizontal = 1;
place = "{0, 52}";
type = Stem;
},
{
horizontal = 1;
place = "{814, 52}";
type = Stem;
},
{
horizontal = 1;
place = "{1602, 48}";
type = Stem;
},
{
place = "{232, 56}";
type = Stem;
},
{
place = "{968, 52}";
type = Stem;
},
{
place = "{1114, 52}";
type = Stem;
}
);
layerId = "74F259A6-12B3-44F5-88D4-EF03CB0B713A";
paths = (
{
closed = 1;
nodes = (
"232 1650 LINE",
"232 0 LINE",
"658 0 LINE SMOOTH",
"980 0 OFFCURVE",
"1166 162 OFFCURVE",
"1166 430 CURVE SMOOTH",
"1166 668 OFFCURVE",
"1022 822 OFFCURVE",
"768 854 CURVE",
"930 916 OFFCURVE",
"1020 1046 OFFCURVE",
"1020 1232 CURVE SMOOTH",
"1020 1500 OFFCURVE",
"834 1650 OFFCURVE",
"512 1650 CURVE SMOOTH"
);
},
{
closed = 1;
nodes = (
"288 1602 LINE",
"512 1602 LINE SMOOTH",
"800 1600 OFFCURVE",
"968 1470 OFFCURVE",
"968 1232 CURVE SMOOTH",
"968 994 OFFCURVE",
"800 868 OFFCURVE",
"512 866 CURVE SMOOTH",
"288 866 LINE"
);
},
{
closed = 1;
nodes = (
"288 814 LINE",
"658 814 LINE SMOOTH",
"946 814 OFFCURVE",
"1114 670 OFFCURVE",
"1114 430 CURVE SMOOTH",
"1114 192 OFFCURVE",
"946 52 OFFCURVE",
"658 52 CURVE SMOOTH",
"288 52 LINE"
);
}
);
width = 1282;
}
);
note = B;
rightKerningGroup = space;
unicode = 0042;
},
{
glyphname = C;
lastChange = "2019-12-18 16:26:27 +0000";
layers = (
{
hints = (
{
horizontal = 1;
place = "{-32, 56}";
type = Stem;
},
{
horizontal = 1;
place = "{1624, 56}";
type = Stem;
},
{
place = "{148, 62}";
type = Stem;
}
);
layerId = "74F259A6-12B3-44F5-88D4-EF03CB0B713A";
paths = (
{
closed = 1;
nodes = (
"1210 -32 OFFCURVE",
"1392 34 OFFCURVE",
"1536 146 CURVE",
"1502 190 LINE",
"1370 82 OFFCURVE",
"1196 24 OFFCURVE",
"1004 24 CURVE SMOOTH",
"538 24 OFFCURVE",
"210 374 OFFCURVE",
"210 824 CURVE SMOOTH",
"210 1274 OFFCURVE",
"538 1624 OFFCURVE",
"1004 1624 CURVE SMOOTH",
"1196 1624 OFFCURVE",
"1370 1566 OFFCURVE",
"1502 1458 CURVE",
"1536 1502 LINE",
"1392 1614 OFFCURVE",
"1210 1680 OFFCURVE",
"1004 1680 CURVE SMOOTH",
"502 1680 OFFCURVE",
"148 1306 OFFCURVE",
"148 824 CURVE SMOOTH",
"148 342 OFFCURVE",
"502 -32 OFFCURVE",
"1004 -32 CURVE SMOOTH"
);
}
);
width = 1652;
}
);
leftKerningGroup = C;
note = C;
rightKerningGroup = C;
unicode = 0043;
},
{
glyphname = D;
lastChange = "2019-12-18 16:23:24 +0000";
layers = (
{
hints = (
{
horizontal = 1;
place = "{0, 50}";
type = Stem;
},
{
horizontal = 1;
place = "{1600, 50}";
type = Stem;
},
{
place = "{232, 56}";
type = Stem;
},
{
place = "{1336, 54}";
type = Stem;
}
);
layerId = "74F259A6-12B3-44F5-88D4-EF03CB0B713A";
paths = (
{
closed = 1;
nodes = (
"232 1650 LINE",
"232 0 LINE",
"558 0 LINE SMOOTH",
"1012 0 OFFCURVE",
"1390 344 OFFCURVE",
"1390 826 CURVE SMOOTH",
"1390 1306 OFFCURVE",
"1010 1650 OFFCURVE",
"558 1650 CURVE SMOOTH"
);
},
{
closed = 1;
nodes = (
"288 1600 LINE",
"558 1600 LINE SMOOTH",
"976 1600 OFFCURVE",
"1336 1276 OFFCURVE",
"1336 826 CURVE SMOOTH",
"1336 374 OFFCURVE",
"978 50 OFFCURVE",
"558 50 CURVE SMOOTH",
"288 50 LINE"
);
}
);
width = 1538;
}
);
note = D;
rightKerningGroup = space;
unicode = 0044;
},
{
glyphname = E;
lastChange = "2019-12-18 16:23:24 +0000";
layers = (
{
hints = (
{
horizontal = 1;
place = "{0, 50}";
type = Stem;
},
{
horizontal = 1;
place = "{802, 50}";
type = Stem;
},
{
horizontal = 1;
place = "{1600, 50}";
type = Stem;
},
{
place = "{232, 56}";
type = Stem;
}
);
layerId = "74F259A6-12B3-44F5-88D4-EF03CB0B713A";
paths = (
{
closed = 1;
nodes = (
"232 1650 LINE",
"232 0 LINE",
"1016 0 LINE",
"1016 50 LINE",
"288 50 LINE",
"288 802 LINE",
"992 802 LINE",
"992 852 LINE",
"288 852 LINE",
"288 1600 LINE",
"1016 1600 LINE",
"1016 1650 LINE"
);
}
);
width = 1164;
}
);
note = E;
rightKerningGroup = E;
unicode = 0045;
},
{
glyphname = F;
lastChange = "2019-12-18 16:23:24 +0000";
layers = (
{
hints = (
{
horizontal = 1;
place = "{0, 21}";
target = up;
type = BottomGhost;
},
{
horizontal = 1;
place = "{802, 50}";
type = Stem;
},
{
horizontal = 1;
place = "{1600, 50}";
type = Stem;
},
{
place = "{232, 56}";
type = Stem;
}
);
layerId = "74F259A6-12B3-44F5-88D4-EF03CB0B713A";
paths = (
{
closed = 1;
nodes = (
"232 1650 LINE",
"232 0 LINE",
"288 0 LINE",
"288 802 LINE",
"970 802 LINE",
"970 852 LINE",
"288 852 LINE",
"288 1600 LINE",
"1016 1600 LINE",
"1016 1650 LINE"
);
}
);
width = 1172;
}
);
note = F;
rightKerningGroup = space;
unicode = 0046;
},
{
glyphname = G;
lastChange = "2019-12-18 16:23:24 +0000";
layers = (
{
hints = (
{
horizontal = 1;
place = "{-32, 50}";
type = Stem;
},
{
horizontal = 1;
place = "{722, 52}";
type = Stem;
},
{
horizontal = 1;
place = "{1630, 50}";
type = Stem;
},
{
place = "{148, 58}";
type = Stem;
},
{
place = "{1658, 58}";
type = Stem;
}
);
layerId = "74F259A6-12B3-44F5-88D4-EF03CB0B713A";
paths = (
{
closed = 1;
nodes = (
"148 350 OFFCURVE",
"508 -32 OFFCURVE",
"952 -32 CURVE SMOOTH",
"1348 -32 OFFCURVE",
"1716 210 OFFCURVE",
"1716 684 CURVE SMOOTH",
"1716 774 LINE",
"952 774 LINE",
"952 722 LINE",
"1658 722 LINE",
"1658 646 LINE SMOOTH",
"1658 268 OFFCURVE",
"1318 18 OFFCURVE",
"952 18 CURVE SMOOTH",
"540 18 OFFCURVE",
"206 378 OFFCURVE",
"206 822 CURVE SMOOTH",
"206 1270 OFFCURVE",
"522 1630 OFFCURVE",
"952 1630 CURVE SMOOTH",
"1220 1630 OFFCURVE",
"1420 1520 OFFCURVE",
"1552 1358 CURVE",
"1590 1398 LINE",
"1446 1572 OFFCURVE",
"1244 1680 OFFCURVE",
"952 1680 CURVE SMOOTH",
"488 1680 OFFCURVE",
"148 1298 OFFCURVE",
"148 822 CURVE SMOOTH"
);
}
);
width = 1852;
}
);
note = G;
rightKerningGroup = space;
unicode = 0047;
},
{
glyphname = H;
lastChange = "2019-12-18 16:23:24 +0000";
layers = (
{
hints = (
{
horizontal = 1;
place = "{0, 21}";
target = up;
type = BottomGhost;
},
{
horizontal = 1;
place = "{802, 50}";
type = Stem;
},
{
horizontal = 1;
place = "{1650, -20}";
target = down;
type = TopGhost;
},
{
place = "{232, 56}";
type = Stem;
},
{
place = "{1348, 56}";
type = Stem;
}
);
layerId = "74F259A6-12B3-44F5-88D4-EF03CB0B713A";
paths = (
{
closed = 1;
nodes = (
"232 1650 LINE",
"232 0 LINE",
"288 0 LINE",
"288 802 LINE",
"1348 802 LINE",
"1348 0 LINE",
"1404 0 LINE",
"1404 1650 LINE",
"1348 1650 LINE",
"1348 852 LINE",
"288 852 LINE",
"288 1650 LINE"
);
}
);
width = 1636;
}
);
note = H;
rightKerningGroup = space;
unicode = 0048;
},
{
glyphname = I;
lastChange = "2019-12-18 16:23:24 +0000";
layers = (
{
hints = (
{
horizontal = 1;
place = "{0, 21}";
target = up;
type = BottomGhost;
},
{
horizontal = 1;
place = "{1650, -20}";
target = down;
type = TopGhost;
},
{
place = "{232, 56}";
type = Stem;
}
);
layerId = "74F259A6-12B3-44F5-88D4-EF03CB0B713A";
paths = (
{
closed = 1;
nodes = (
"232 1650 LINE",
"232 0 LINE",
"288 0 LINE",
"288 1650 LINE"
);
}
);
width = 520;
}
);
leftKerningGroup = I;
note = I;
rightKerningGroup = space;
unicode = 0049;
},
{
glyphname = J;
lastChange = "2019-12-18 16:23:24 +0000";
layers = (
{
hints = (
{
horizontal = 1;
place = "{-32, 52}";
type = Stem;
},
{
horizontal = 1;
place = "{1650, -20}";
target = down;
type = TopGhost;
},
{
place = "{810, 56}";
type = Stem;
}
);
layerId = "74F259A6-12B3-44F5-88D4-EF03CB0B713A";
paths = (
{
closed = 1;
nodes = (
"810 1650 LINE",
"810 488 LINE SMOOTH",
"810 172 OFFCURVE",
"650 20 OFFCURVE",
"350 20 CURVE SMOOTH",
"144 20 OFFCURVE",
"-12 190 OFFCURVE",
"-12 190 CURVE",
"-36 126 LINE",
"-36 126 OFFCURVE",
"114 -32 OFFCURVE",
"350 -32 CURVE SMOOTH",
"682 -32 OFFCURVE",
"866 140 OFFCURVE",
"866 464 CURVE SMOOTH",
"866 1650 LINE"
);
}
);
width = 1098;
}
);
note = J;
rightKerningGroup = space;
unicode = 004A;
},
{
glyphname = K;
lastChange = "2019-12-18 16:23:24 +0000";
layers = (
{
hints = (
{
horizontal = 1;
place = "{0, 21}";
target = up;
type = BottomGhost;
},
{
horizontal = 1;
place = "{1650, -20}";
target = down;
type = TopGhost;
},
{
place = "{232, 56}";
type = Stem;
}
);
layerId = "74F259A6-12B3-44F5-88D4-EF03CB0B713A";
paths = (
{
closed = 1;
nodes = (
"232 1650 LINE",
"232 0 LINE",
"288 0 LINE",
"288 748 LINE",
"352 810 LINE",
"1174 0 LINE",
"1252 0 LINE",
"390 850 LINE",
"1182 1650 LINE",
"1114 1650 LINE",
"288 816 LINE",
"288 1650 LINE"
);
}
);
width = 1252;
}
);
note = K;
rightKerningGroup = space;
unicode = 004B;
},
{
glyphname = L;
lastChange = "2019-12-18 16:23:24 +0000";
layers = (
{
hints = (
{
horizontal = 1;
place = "{0, 50}";
type = Stem;
},
{
horizontal = 1;
place = "{1650, -20}";
target = down;
type = TopGhost;
},
{
place = "{232, 56}";
type = Stem;
}
);
layerId = "74F259A6-12B3-44F5-88D4-EF03CB0B713A";
paths = (
{
closed = 1;
nodes = (
"232 1650 LINE",
"232 0 LINE",
"1032 0 LINE",
"1032 50 LINE",
"288 50 LINE",
"288 1650 LINE"
);
}
);
width = 1098;
}
);
note = L;
rightKerningGroup = L;
unicode = 004C;
},
{
glyphname = M;
lastChange = "2019-12-18 16:23:24 +0000";
layers = (
{
hints = (
{
horizontal = 1;
place = "{0, 21}";
target = up;
type = BottomGhost;
},
{
horizontal = 1;
place = "{1650, -20}";
target = down;
type = TopGhost;
},
{
place = "{112, 1676}";
type = Stem;
}
);
layerId = "74F259A6-12B3-44F5-88D4-EF03CB0B713A";
paths = (
{
closed = 1;
nodes = (
"354 1650 LINE",
"112 0 LINE",
"168 0 LINE",
"396 1534 LINE",
"920 134 LINE",
"980 134 LINE",
"1504 1534 LINE",
"1732 0 LINE",
"1788 0 LINE",
"1546 1650 LINE",
"1486 1650 LINE",
"950 214 LINE",
"414 1650 LINE"
);
}
);
width = 1900;
}
);
note = M;
rightKerningGroup = space;
unicode = 004D;
},
{
glyphname = M.1;
lastChange = "2019-12-18 16:23:24 +0000";
layers = (
{
hints = (
{
horizontal = 1;
place = "{0, 21}";
target = up;
type = BottomGhost;
},
{
horizontal = 1;
place = "{1650, -20}";
target = down;
type = TopGhost;
},
{
place = "{232, 56}";
type = Stem;
},
{
place = "{1488, 56}";
type = Stem;
}
);
layerId = "74F259A6-12B3-44F5-88D4-EF03CB0B713A";
paths = (
{
closed = 1;
nodes = (
"232 1650 LINE",
"232 0 LINE",
"288 0 LINE",
"288 1500 LINE",
"858 134 LINE",
"918 134 LINE",
"1488 1500 LINE",
"1488 0 LINE",
"1544 0 LINE",
"1544 1650 LINE",
"1484 1650 LINE",
"888 214 LINE",
"292 1650 LINE"
);
}
);
width = 1776;
}
);
note = M.1;
},
{
glyphname = N;
lastChange = "2019-12-18 16:23:24 +0000";
layers = (
{
hints = (
{
horizontal = 1;
place = "{0, 21}";
target = up;
type = BottomGhost;
},
{
horizontal = 1;
place = "{1650, -20}";
target = down;
type = TopGhost;
},
{
place = "{232, 56}";
type = Stem;
},
{
place = "{1272, 56}";
type = Stem;
}
);
layerId = "74F259A6-12B3-44F5-88D4-EF03CB0B713A";
paths = (
{
closed = 1;
nodes = (
"232 1650 LINE",
"232 0 LINE",
"288 0 LINE",
"288 1546 LINE",
"1272 0 LINE",
"1328 0 LINE",
"1328 1650 LINE",
"1272 1650 LINE",
"1272 102 LINE",
"288 1650 LINE"
);
}
);
width = 1560;
}
);
note = N;
rightKerningGroup = space;
unicode = 004E;
},
{
glyphname = O;
lastChange = "2019-12-18 16:23:24 +0000";
layers = (
{
hints = (
{
horizontal = 1;
place = "{-32, 54}";
type = Stem;
},
{
horizontal = 1;
place = "{1626, 54}";
type = Stem;
},
{
place = "{148, 60}";
type = Stem;
},
{
place = "{1752, 60}";
type = Stem;
}
);
layerId = "74F259A6-12B3-44F5-88D4-EF03CB0B713A";
paths = (
{
closed = 1;
nodes = (
"208 1276 OFFCURVE",
"560 1626 OFFCURVE",
"980 1626 CURVE SMOOTH",
"1400 1626 OFFCURVE",
"1752 1276 OFFCURVE",
"1752 824 CURVE SMOOTH",
"1752 372 OFFCURVE",
"1400 22 OFFCURVE",
"980 22 CURVE SMOOTH",
"560 22 OFFCURVE",
"208 372 OFFCURVE",
"208 824 CURVE SMOOTH"
);
},
{
closed = 1;
nodes = (
"148 340 OFFCURVE",
"526 -32 OFFCURVE",
"980 -32 CURVE SMOOTH",
"1434 -32 OFFCURVE",
"1812 340 OFFCURVE",
"1812 824 CURVE SMOOTH",
"1812 1308 OFFCURVE",
"1434 1680 OFFCURVE",
"980 1680 CURVE SMOOTH",
"526 1680 OFFCURVE",
"148 1308 OFFCURVE",
"148 824 CURVE SMOOTH"
);
}
);
width = 1960;
}
);
leftKerningGroup = O;
note = O;
rightKerningGroup = O;
unicode = 004F;
},
{
glyphname = P;
lastChange = "2019-12-18 16:23:24 +0000";
layers = (
{
hints = (
{
horizontal = 1;
place = "{0, 21}";
target = up;
type = BottomGhost;
},
{
horizontal = 1;
place = "{736, 54}";
type = Stem;
},
{
horizontal = 1;
place = "{1602, 48}";
type = Stem;
},
{
place = "{232, 56}";
type = Stem;
},
{
place = "{1044, 52}";
type = Stem;
}
);
layerId = "74F259A6-12B3-44F5-88D4-EF03CB0B713A";
paths = (
{
closed = 1;
nodes = (
"232 1650 LINE",
"232 0 LINE",
"288 0 LINE",
"288 736 LINE",
"586 736 LINE SMOOTH",
"910 736 OFFCURVE",
"1096 934 OFFCURVE",
"1096 1202 CURVE SMOOTH",
"1096 1472 OFFCURVE",
"910 1650 OFFCURVE",
"586 1650 CURVE SMOOTH"
);
},
{
closed = 1;
nodes = (
"288 1602 LINE",
"586 1602 LINE SMOOTH",
"876 1602 OFFCURVE",
"1044 1442 OFFCURVE",
"1044 1202 CURVE SMOOTH",
"1044 964 OFFCURVE",
"876 790 OFFCURVE",
"586 790 CURVE SMOOTH",
"288 790 LINE"
);
}
);
width = 1244;
}
);
note = P;
rightKerningGroup = space;
unicode = 0050;
},
{
glyphname = Q;
lastChange = "2019-12-18 16:23:24 +0000";
layers = (
{
hints = (
{
horizontal = 1;
place = "{-32, 54}";
type = Stem;
},
{
horizontal = 1;
place = "{1626, 54}";
type = Stem;
},
{
place = "{148, 60}";
type = Stem;
},
{
place = "{1750, 62}";
type = Stem;
}
);
layerId = "74F259A6-12B3-44F5-88D4-EF03CB0B713A";
paths = (
{
closed = 1;
nodes = (
"148 342 OFFCURVE",
"492 -32 OFFCURVE",
"980 -32 CURVE SMOOTH",
"1168 -32 OFFCURVE",
"1338 26 OFFCURVE",
"1474 128 CURVE",
"1590 52 OFFCURVE",
"1706 -10 OFFCURVE",
"1816 -54 CURVE",
"1842 -2 LINE",
"1736 36 OFFCURVE",
"1626 92 OFFCURVE",
"1516 160 CURVE",
"1698 316 OFFCURVE",
"1812 554 OFFCURVE",
"1812 824 CURVE SMOOTH",
"1812 1308 OFFCURVE",
"1438 1680 OFFCURVE",
"980 1680 CURVE SMOOTH",
"526 1680 OFFCURVE",
"148 1308 OFFCURVE",
"148 824 CURVE SMOOTH"
);
},
{
closed = 1;
nodes = (
"208 1276 OFFCURVE",
"560 1626 OFFCURVE",
"980 1626 CURVE SMOOTH",
"1406 1626 OFFCURVE",
"1750 1276 OFFCURVE",
"1750 824 CURVE SMOOTH",
"1750 566 OFFCURVE",
"1642 340 OFFCURVE",
"1466 194 CURVE",
"1342 276 OFFCURVE",
"1224 372 OFFCURVE",
"1118 478 CURVE",
"1090 450 LINE",
"1190 344 OFFCURVE",
"1304 246 OFFCURVE",
"1424 162 CURVE",
"1300 74 OFFCURVE",
"1148 22 OFFCURVE",
"980 22 CURVE SMOOTH",
"528 22 OFFCURVE",
"208 372 OFFCURVE",
"208 824 CURVE SMOOTH"
);
}
);
width = 1960;
}
);
note = Q;
rightKerningGroup = space;
unicode = 0051;
},
{
glyphname = Q.1;
lastChange = "2019-12-18 16:23:24 +0000";
layers = (
{
hints = (
{
horizontal = 1;
place = "{-232, 21}";
target = up;
type = BottomGhost;
},
{
horizontal = 1;
place = "{-96, 54}";
type = Stem;
},
{
horizontal = 1;
place = "{-32, 34}";
type = Stem;
},
{
horizontal = 1;
place = "{1626, 54}";
type = Stem;
},
{
place = "{148, 60}";
type = Stem;
},
{
place = "{1750, 62}";
type = Stem;
}
);
layerId = "74F259A6-12B3-44F5-88D4-EF03CB0B713A";
paths = (
{
closed = 1;
nodes = (
"148 406 OFFCURVE",
"410 68 OFFCURVE",
"800 -14 CURVE",
"628 -66 OFFCURVE",
"536 -212 OFFCURVE",
"536 -212 CURVE",
"550 -232 LINE",
"550 -232 OFFCURVE",
"688 -32 OFFCURVE",
"936 -32 CURVE SMOOTH",
"1230 -32 OFFCURVE",
"1260 -96 OFFCURVE",
"1474 -96 CURVE SMOOTH",
"1672 -96 OFFCURVE",
"1742 28 OFFCURVE",
"1742 28 CURVE",
"1724 66 LINE",
"1724 66 OFFCURVE",
"1646 -42 OFFCURVE",
"1476 -42 CURVE SMOOTH",
"1384 -42 OFFCURVE",
"1314 -16 OFFCURVE",
"1220 2 CURVE",
"1570 102 OFFCURVE",
"1812 426 OFFCURVE",
"1812 826 CURVE SMOOTH",
"1812 1308 OFFCURVE",
"1440 1680 OFFCURVE",
"980 1680 CURVE SMOOTH",
"526 1680 OFFCURVE",
"148 1308 OFFCURVE",
"148 826 CURVE SMOOTH"
);
},
{
closed = 1;
nodes = (
"208 1276 OFFCURVE",
"560 1626 OFFCURVE",
"980 1626 CURVE SMOOTH",
"1406 1626 OFFCURVE",
"1750 1276 OFFCURVE",
"1750 826 CURVE SMOOTH",
"1750 374 OFFCURVE",
"1420 22 OFFCURVE",
"980 22 CURVE SMOOTH",
"528 22 OFFCURVE",
"208 374 OFFCURVE",
"208 826 CURVE SMOOTH"
);
}
);
width = 1962;
}
);
note = Q.1;
rightKerningGroup = space;
},
{
glyphname = R;
lastChange = "2019-12-18 16:23:24 +0000";
layers = (
{
hints = (
{
horizontal = 1;
place = "{0, 21}";
target = up;
type = BottomGhost;
},
{
horizontal = 1;
place = "{736, 54}";
type = Stem;
},
{
horizontal = 1;
place = "{1602, 48}";
type = Stem;
},
{
place = "{232, 56}";
type = Stem;
},
{
place = "{1044, 52}";
type = Stem;
}
);
layerId = "74F259A6-12B3-44F5-88D4-EF03CB0B713A";
paths = (
{
closed = 1;
nodes = (
"232 1650 LINE",
"232 0 LINE",
"288 0 LINE",
"288 736 LINE",
"538 736 LINE",
"1092 0 LINE",
"1164 0 LINE",
"610 736 LINE",
"918 746 OFFCURVE",
"1096 940 OFFCURVE",
"1096 1202 CURVE SMOOTH",
"1096 1472 OFFCURVE",
"910 1650 OFFCURVE",
"586 1650 CURVE SMOOTH"
);
},
{
closed = 1;
nodes = (
"288 1602 LINE",
"586 1602 LINE SMOOTH",
"876 1602 OFFCURVE",
"1044 1442 OFFCURVE",
"1044 1202 CURVE SMOOTH",
"1044 964 OFFCURVE",
"876 790 OFFCURVE",
"586 790 CURVE SMOOTH",
"288 790 LINE"
);
}
);
width = 1240;
}
);
note = R;
rightKerningGroup = R;
unicode = 0052;
},
{
glyphname = R.1;
lastChange = "2019-12-18 16:23:24 +0000";
layers = (
{
hints = (
{
horizontal = 1;
place = "{0, 21}";
target = up;
type = BottomGhost;
},
{
horizontal = 1;
place = "{736, 54}";
type = Stem;
},
{
horizontal = 1;
place = "{1602, 48}";
type = Stem;
},
{
place = "{232, 56}";
type = Stem;
},
{
place = "{1044, 52}";
type = Stem;
},
{
horizontal = 1;
place = "{-30, 56}";
type = Stem;
}
);
layerId = "74F259A6-12B3-44F5-88D4-EF03CB0B713A";
paths = (
{
closed = 1;
nodes = (
"232 1650 LINE",
"232 0 LINE",
"288 0 LINE",
"288 736 LINE",
"538 736 LINE",
"1066 36 LINE",
"1066 36 OFFCURVE",
"1108 -30 OFFCURVE",
"1188 -30 CURVE SMOOTH",
"1256 -30 OFFCURVE",
"1290 6 OFFCURVE",
"1290 6 CURVE",
"1272 54 LINE",
"1254 42 OFFCURVE",
"1222 26 OFFCURVE",
"1188 26 CURVE SMOOTH",
"1142 26 OFFCURVE",
"1102 84 OFFCURVE",
"1102 84 CURVE",
"610 736 LINE",
"918 746 OFFCURVE",
"1096 940 OFFCURVE",
"1096 1202 CURVE SMOOTH",
"1096 1472 OFFCURVE",
"910 1650 OFFCURVE",
"586 1650 CURVE SMOOTH"
);
},
{
closed = 1;
nodes = (
"288 1602 LINE",
"586 1602 LINE SMOOTH",
"876 1602 OFFCURVE",
"1044 1442 OFFCURVE",
"1044 1202 CURVE SMOOTH",
"1044 964 OFFCURVE",
"876 790 OFFCURVE",
"586 790 CURVE SMOOTH",
"288 790 LINE"
);
}
);
width = 1366;
}
);
note = R.1;
rightKerningGroup = R;
},
{
glyphname = S;
lastChange = "2019-12-18 16:23:24 +0000";
layers = (
{
hints = (
{
horizontal = 1;
place = "{-32, 52}";
type = Stem;
},
{
horizontal = 1;
place = "{1628, 52}";
type = Stem;
},
{
place = "{232, 50}";
type = Stem;
},
{
place = "{1096, 52}";
type = Stem;
}
);
layerId = "74F259A6-12B3-44F5-88D4-EF03CB0B713A";
paths = (
{
closed = 1;
nodes = (
"232 1066 OFFCURVE",
"352 936 OFFCURVE",
"630 850 CURVE SMOOTH",
"950 752 OFFCURVE",
"1096 626 OFFCURVE",
"1096 410 CURVE SMOOTH",
"1096 156 OFFCURVE",
"900 20 OFFCURVE",
"656 20 CURVE SMOOTH",
"334 20 OFFCURVE",
"200 284 OFFCURVE",
"178 350 CURVE",
"134 326 LINE",
"150 266 OFFCURVE",
"300 -32 OFFCURVE",
"656 -32 CURVE SMOOTH",
"944 -32 OFFCURVE",
"1148 142 OFFCURVE",
"1148 410 CURVE SMOOTH",
"1148 652 OFFCURVE",
"990 796 OFFCURVE",
"656 898 CURVE SMOOTH",
"446 962 OFFCURVE",
"282 1058 OFFCURVE",
"282 1258 CURVE SMOOTH",
"282 1436 OFFCURVE",
"412 1628 OFFCURVE",
"656 1628 CURVE SMOOTH",
"838 1628 OFFCURVE",
"964 1518 OFFCURVE",
"1004 1416 CURVE",
"1050 1438 LINE",
"1002 1550 OFFCURVE",
"864 1680 OFFCURVE",
"656 1680 CURVE SMOOTH",
"418 1680 OFFCURVE",
"232 1504 OFFCURVE",
"232 1258 CURVE SMOOTH"
);
}
);
width = 1282;
}
);
leftKerningGroup = dollar;
note = S;
rightKerningGroup = space;
unicode = 0053;
},
{
glyphname = T;
lastChange = "2019-12-18 16:23:24 +0000";
layers = (
{
hints = (
{
horizontal = 1;
place = "{0, 21}";
target = up;
type = BottomGhost;
},
{
horizontal = 1;
place = "{1594, 56}";
type = Stem;
},
{
place = "{552, 56}";
type = Stem;
}
);
layerId = "74F259A6-12B3-44F5-88D4-EF03CB0B713A";
paths = (
{
closed = 1;
nodes = (
"0 1650 LINE",
"0 1594 LINE",
"552 1594 LINE",
"552 0 LINE",
"608 0 LINE",
"608 1594 LINE",
"1160 1594 LINE",
"1160 1650 LINE"
);
}
);
width = 1160;
}
);
leftKerningGroup = T;
note = T;
rightKerningGroup = T;
unicode = 0054;
},
{
glyphname = U;
lastChange = "2019-12-18 16:23:24 +0000";
layers = (
{
hints = (
{
horizontal = 1;
place = "{-32, 56}";
type = Stem;
},
{
horizontal = 1;
place = "{1650, -20}";
target = down;
type = TopGhost;
},
{
place = "{216, 56}";
type = Stem;
},
{
place = "{1240, 56}";
type = Stem;
}
);
layerId = "74F259A6-12B3-44F5-88D4-EF03CB0B713A";
paths = (
{
closed = 1;
nodes = (
"216 1650 LINE",
"216 594 LINE SMOOTH",
"216 184 OFFCURVE",
"388 -32 OFFCURVE",
"756 -32 CURVE SMOOTH",
"1124 -32 OFFCURVE",
"1296 184 OFFCURVE",
"1296 594 CURVE SMOOTH",
"1296 1650 LINE",
"1240 1650 LINE",
"1240 594 LINE SMOOTH",
"1240 222 OFFCURVE",
"1074 24 OFFCURVE",
"756 24 CURVE SMOOTH",
"438 24 OFFCURVE",
"272 222 OFFCURVE",
"272 594 CURVE SMOOTH",
"272 1650 LINE"
);
}
);
width = 1512;
}
);
note = U;
rightKerningGroup = space;
unicode = 0055;
},
{
glyphname = V;
lastChange = "2019-12-18 16:23:24 +0000";
layers = (
{
hints = (
{
horizontal = 1;
place = "{0, 21}";
target = up;
type = BottomGhost;
},
{
horizontal = 1;
place = "{1650, -20}";
target = down;
type = TopGhost;
},
{
place = "{16, 1428}";
type = Stem;
}
);
layerId = "74F259A6-12B3-44F5-88D4-EF03CB0B713A";
paths = (
{
closed = 1;
nodes = (
"16 1650 LINE",
"708 0 LINE",
"752 0 LINE",
"1444 1650 LINE",
"1380 1650 LINE",
"730 84 LINE",
"80 1650 LINE"
);
}
);
width = 1460;
}
);
leftKerningGroup = V;
note = V;
rightKerningGroup = V;
unicode = 0056;
},
{
glyphname = W;
lastChange = "2019-12-18 16:23:24 +0000";
layers = (
{
hints = (
{
horizontal = 1;
place = "{0, 21}";
target = up;
type = BottomGhost;
},
{
horizontal = 1;
place = "{1650, -20}";
target = down;
type = TopGhost;
},
{
place = "{16, 2000}";
type = Stem;
}
);
layerId = "74F259A6-12B3-44F5-88D4-EF03CB0B713A";
paths = (
{
closed = 1;
nodes = (
"16 1650 LINE",
"514 0 LINE",
"580 0 LINE",
"1128 1534 LINE",
"1676 0 LINE",
"1742 0 LINE",
"2240 1650 LINE",
"2178 1650 LINE",
"1710 60 LINE",
"1152 1650 LINE",
"1104 1650 LINE",
"546 60 LINE",
"78 1650 LINE"
);
}
);
width = 2256;
}
);
leftKerningGroup = V;
note = W;
rightKerningGroup = V;
unicode = 0057;
},
{
glyphname = X;
lastChange = "2019-12-18 16:23:24 +0000";
layers = (
{
hints = (
{
horizontal = 1;
place = "{0, 21}";
target = up;
type = BottomGhost;
},
{
horizontal = 1;
place = "{1650, -20}";
target = down;
type = TopGhost;
},
{
place = "{16, 1340}";
type = Stem;
}
);
layerId = "74F259A6-12B3-44F5-88D4-EF03CB0B713A";
paths = (
{
closed = 1;
nodes = (
"112 1650 LINE",
"650 892 LINE",
"16 0 LINE",
"88 0 LINE",
"686 842 LINE",
"1284 0 LINE",
"1356 0 LINE",
"722 892 LINE",
"1260 1650 LINE",
"1190 1650 LINE",
"686 942 LINE",
"182 1650 LINE"
);
}
);
width = 1372;
}
);
note = X;
rightKerningGroup = space;
unicode = 0058;
},
{
glyphname = Y;
lastChange = "2019-12-18 16:23:24 +0000";
layers = (
{
hints = (
{
horizontal = 1;
place = "{0, 21}";
target = up;
type = BottomGhost;
},
{
horizontal = 1;
place = "{1650, -20}";
target = down;
type = TopGhost;
},
{
place = "{16, 1156}";
type = Stem;
},
{
place = "{566, 56}";
type = Stem;
}
);
layerId = "74F259A6-12B3-44F5-88D4-EF03CB0B713A";
paths = (
{
closed = 1;
nodes = (
"16 1650 LINE",
"566 704 LINE",
"566 0 LINE",
"622 0 LINE",
"622 704 LINE",
"1172 1650 LINE",
"1104 1650 LINE",
"594 772 LINE",
"84 1650 LINE"
);
}
);
width = 1188;
}
);
leftKerningGroup = Y;
note = Y;
rightKerningGroup = Y;
unicode = 0059;
},
{
glyphname = Z;
lastChange = "2019-12-18 16:23:24 +0000";
layers = (
{
hints = (
{
horizontal = 1;
place = "{0, 56}";
type = Stem;
},
{
horizontal = 1;
place = "{1594, 56}";
type = Stem;
},
{
place = "{100, 1302}";
type = Stem;
}
);
layerId = "74F259A6-12B3-44F5-88D4-EF03CB0B713A";
paths = (
{
closed = 1;
nodes = (
"212 1650 LINE",
"212 1594 LINE",
"1290 1594 LINE",
"100 0 LINE",
"1346 0 LINE",
"1346 56 LINE",
"212 56 LINE",
"1402 1650 LINE"
);
}
);
width = 1502;
}
);
note = Z;
rightKerningGroup = space;
unicode = 005A;
},
{
glyphname = bracketleft;
lastChange = "2019-12-18 16:23:24 +0000";
layers = (
{
hints = (
{
horizontal = 1;
place = "{-520, 56}";
type = Stem;
},
{
horizontal = 1;
place = "{1664, 56}";
type = Stem;
},
{
place = "{232, 56}";
type = Stem;
}
);
layerId = "74F259A6-12B3-44F5-88D4-EF03CB0B713A";
paths = (
{
closed = 1;
nodes = (
"232 1720 LINE",
"232 -520 LINE",
"556 -520 LINE",
"556 -464 LINE",
"288 -464 LINE",
"288 1664 LINE",
"556 1664 LINE",
"556 1720 LINE"
);
}
);
width = 520;
}
);
note = bracketleft;
rightKerningGroup = space;
unicode = 005B;
},
{
glyphname = backslash;
lastChange = "2019-12-18 16:23:24 +0000";
layers = (
{
hints = (
{
horizontal = 1;
place = "{0, 21}";
target = up;
type = BottomGhost;
},
{
horizontal = 1;
place = "{1720, -20}";
target = down;
type = TopGhost;
},
{
place = "{0, 864}";
type = Stem;
}
);
layerId = "74F259A6-12B3-44F5-88D4-EF03CB0B713A";
paths = (
{
closed = 1;
nodes = (
"0 1720 LINE",
"824 0 LINE",
"864 0 LINE",
"40 1720 LINE"
);
}
);
width = 864;
}
);
note = backslash;
rightKerningGroup = space;
unicode = 005C;
},
{
glyphname = bracketright;
lastChange = "2019-12-18 16:23:24 +0000";
layers = (
{
hints = (
{
horizontal = 1;
place = "{-520, 56}";
type = Stem;
},
{
horizontal = 1;
place = "{1664, 56}";
type = Stem;
},
{
place = "{232, 56}";
type = Stem;
}
);
layerId = "74F259A6-12B3-44F5-88D4-EF03CB0B713A";
paths = (
{
closed = 1;
nodes = (
"-36 1720 LINE",
"-36 1664 LINE",
"232 1664 LINE",
"232 -464 LINE",
"-36 -464 LINE",
"-36 -520 LINE",
"288 -520 LINE",
"288 1720 LINE"
);
}
);
width = 520;
}
);
note = bracketright;
rightKerningGroup = space;
unicode = 005D;
},
{
glyphname = asciicircum;
lastChange = "2019-12-18 16:23:24 +0000";
layers = (
{
hints = (
{
horizontal = 1;
place = "{1210, 21}";
target = up;
type = BottomGhost;
},
{
horizontal = 1;
place = "{1646, 34}";
type = Stem;
},
{
place = "{0, 856}";
type = Stem;
}
);
layerId = "74F259A6-12B3-44F5-88D4-EF03CB0B713A";
paths = (
{
closed = 1;
nodes = (
"0 1210 LINE",
"48 1210 LINE",
"428 1646 LINE",
"808 1210 LINE",
"856 1210 LINE",
"442 1680 LINE",
"414 1680 LINE"
);
}
);
width = 856;
}
);
note = asciicircum;
rightKerningGroup = space;
unicode = 005E;
},
{
glyphname = underscore;
lastChange = "2019-12-18 16:23:24 +0000";
layers = (
{
hints = (
{
horizontal = 1;
place = "{-200, 40}";
type = Stem;
},
{
place = "{0, 1026}";
type = Stem;
}
);
layerId = "74F259A6-12B3-44F5-88D4-EF03CB0B713A";
paths = (
{
closed = 1;
nodes = (
"0 -160 LINE",
"0 -200 LINE",
"1026 -200 LINE",
"1026 -160 LINE"
);
}
);
width = 1026;
}
);
note = underscore;
rightKerningGroup = space;
unicode = 005F;
},
{
glyphname = grave;
lastChange = "2019-12-18 16:23:24 +0000";
layers = (
{
hints = (
{
horizontal = 1;
place = "{1468, 21}";
target = up;
type = BottomGhost;
},
{
horizontal = 1;
place = "{1680, -20}";
target = down;
type = TopGhost;
},
{
place = "{116, 268}";
type = Stem;
}
);
layerId = "74F259A6-12B3-44F5-88D4-EF03CB0B713A";
paths = (
{
closed = 1;
nodes = (
"116 1618 LINE",
"354 1468 LINE",
"384 1510 LINE",
"158 1680 LINE"
);
}
);
width = 500;
}
);
note = grave;
rightKerningGroup = space;
unicode = 0060;
},
{
glyphname = a;
lastChange = "2019-12-18 16:23:24 +0000";
layers = (
{
hints = (
{
horizontal = 1;
place = "{-32, 52}";
type = Stem;
},
{
horizontal = 1;
place = "{1004, 52}";
type = Stem;
},
{
place = "{150, 54}";
type = Stem;
},
{
place = "{1122, 56}";
type = Stem;
},
{
horizontal = 1;
place = "{0, 21}";
target = up;
type = BottomGhost;
},
{
horizontal = 1;
place = "{1024, -20}";
target = down;
type = TopGhost;
}
);
layerId = "74F259A6-12B3-44F5-88D4-EF03CB0B713A";
paths = (
{
closed = 1;
nodes = (
"150 192 OFFCURVE",
"374 -32 OFFCURVE",
"664 -32 CURVE SMOOTH",
"870 -32 OFFCURVE",
"1040 82 OFFCURVE",
"1122 262 CURVE",
"1122 0 LINE",
"1178 0 LINE",
"1178 1024 LINE",
"1122 1024 LINE",
"1122 762 LINE",
"1040 942 OFFCURVE",
"870 1056 OFFCURVE",
"664 1056 CURVE SMOOTH",
"374 1056 OFFCURVE",
"150 832 OFFCURVE",
"150 512 CURVE SMOOTH"
);
},
{
closed = 1;
nodes = (
"204 802 OFFCURVE",
"400 1004 OFFCURVE",
"666 1004 CURVE SMOOTH",
"934 1004 OFFCURVE",
"1128 802 OFFCURVE",
"1128 512 CURVE SMOOTH",
"1128 224 OFFCURVE",
"934 20 OFFCURVE",
"666 20 CURVE SMOOTH",
"400 20 OFFCURVE",
"204 224 OFFCURVE",
"204 512 CURVE SMOOTH"
);
}
);
width = 1400;
}
);
leftKerningGroup = a;
note = a;
rightKerningGroup = a;
unicode = 0061;
},
{
glyphname = a.1;
lastChange = "2019-12-18 16:23:24 +0000";
layers = (
{
hints = (
{
horizontal = 1;
place = "{-32, 52}";
type = Stem;
},
{
horizontal = 1;
place = "{582, 52}";
type = Stem;
},
{
horizontal = 1;
place = "{1006, 50}";
type = Stem;
},
{
place = "{138, 52}";
type = Stem;
},
{
place = "{896, 56}";
type = Stem;
},
{
horizontal = 1;
place = "{0, 21}";
target = up;
type = BottomGhost;
}
);
layerId = "74F259A6-12B3-44F5-88D4-EF03CB0B713A";
paths = (
{
closed = 1;
nodes = (
"138 104 OFFCURVE",
"316 -32 OFFCURVE",
"546 -32 CURVE SMOOTH",
"698 -32 OFFCURVE",
"826 28 OFFCURVE",
"896 124 CURVE",
"896 0 LINE",
"952 0 LINE",
"952 640 LINE SMOOTH",
"952 880 OFFCURVE",
"828 1056 OFFCURVE",
"538 1056 CURVE SMOOTH",
"420 1056 OFFCURVE",
"286 1002 OFFCURVE",
"200 892 CURVE",
"240 860 LINE",
"308 936 OFFCURVE",
"408 1006 OFFCURVE",
"538 1006 CURVE SMOOTH",
"770 1006 OFFCURVE",
"896 866 OFFCURVE",
"896 622 CURVE SMOOTH",
"896 478 LINE",
"826 574 OFFCURVE",
"698 634 OFFCURVE",
"546 634 CURVE SMOOTH",
"316 634 OFFCURVE",
"138 498 OFFCURVE",
"138 300 CURVE SMOOTH"
);
},
{
closed = 1;
nodes = (
"190 472 OFFCURVE",
"350 582 OFFCURVE",
"546 582 CURVE SMOOTH",
"742 582 OFFCURVE",
"902 472 OFFCURVE",
"902 302 CURVE SMOOTH",
"902 132 OFFCURVE",
"742 20 OFFCURVE",
"546 20 CURVE SMOOTH",
"350 20 OFFCURVE",
"190 132 OFFCURVE",
"190 302 CURVE SMOOTH"
);
}
);
width = 1158;
}
);
note = a.1;
},
{
glyphname = b;
lastChange = "2019-12-18 16:23:24 +0000";
layers = (
{
hints = (
{
horizontal = 1;
place = "{0, 21}";
target = up;
type = BottomGhost;
},
{
horizontal = 1;
place = "{1004, 52}";
type = Stem;
},
{
horizontal = 1;
place = "{1720, -20}";
target = down;
type = TopGhost;
},
{
place = "{222, 56}";
type = Stem;
},
{
place = "{1196, 54}";
type = Stem;
},
{
horizontal = 1;
place = "{-32, 52}";
type = Stem;
}
);
layerId = "74F259A6-12B3-44F5-88D4-EF03CB0B713A";
paths = (
{
closed = 1;
nodes = (
"222 1720 LINE",
"222 0 LINE",
"278 0 LINE",
"278 262 LINE",
"360 82 OFFCURVE",
"530 -32 OFFCURVE",
"736 -32 CURVE SMOOTH",
"1026 -32 OFFCURVE",
"1250 192 OFFCURVE",
"1250 512 CURVE SMOOTH",
"1250 832 OFFCURVE",
"1026 1056 OFFCURVE",
"736 1056 CURVE SMOOTH",
"530 1056 OFFCURVE",
"360 942 OFFCURVE",
"278 762 CURVE",
"278 1720 LINE"
);
},
{
closed = 1;
nodes = (
"272 802 OFFCURVE",
"466 1004 OFFCURVE",
"734 1004 CURVE SMOOTH",
"1000 1004 OFFCURVE",
"1196 802 OFFCURVE",
"1196 512 CURVE SMOOTH",
"1196 224 OFFCURVE",
"1000 20 OFFCURVE",
"734 20 CURVE SMOOTH",
"466 20 OFFCURVE",
"272 224 OFFCURVE",
"272 512 CURVE SMOOTH"
);
}
);
width = 1388;
}
);
note = b;
rightKerningGroup = b;
unicode = 0062;
},
{
glyphname = c;
lastChange = "2019-12-18 16:23:24 +0000";
layers = (
{
hints = (
{
horizontal = 1;
place = "{-32, 52}";
type = Stem;
},
{
horizontal = 1;
place = "{1004, 52}";
type = Stem;
},
{
place = "{138, 52}";
type = Stem;
}
);
layerId = "74F259A6-12B3-44F5-88D4-EF03CB0B713A";
paths = (
{
closed = 1;
nodes = (
"138 194 OFFCURVE",
"376 -32 OFFCURVE",
"684 -32 CURVE SMOOTH",
"820 -32 OFFCURVE",
"942 12 OFFCURVE",
"1038 88 CURVE",
"1002 126 LINE",
"916 56 OFFCURVE",
"806 20 OFFCURVE",
"684 20 CURVE SMOOTH",
"398 20 OFFCURVE",
"190 226 OFFCURVE",
"190 512 CURVE SMOOTH",
"190 798 OFFCURVE",
"398 1004 OFFCURVE",
"684 1004 CURVE SMOOTH",
"806 1004 OFFCURVE",
"916 968 OFFCURVE",
"1004 898 CURVE",
"1038 936 LINE",
"944 1012 OFFCURVE",
"820 1056 OFFCURVE",
"684 1056 CURVE SMOOTH",
"376 1056 OFFCURVE",
"138 832 OFFCURVE",
"138 512 CURVE SMOOTH"
);
}
);
width = 1190;
}
);
leftKerningGroup = c;
note = c;
rightKerningGroup = c;
unicode = 0063;
},
{
glyphname = d;
lastChange = "2019-12-18 16:23:24 +0000";
layers = (
{
hints = (
{
horizontal = 1;
place = "{-32, 52}";
type = Stem;
},
{
horizontal = 1;
place = "{1004, 52}";
type = Stem;
},
{
horizontal = 1;
place = "{1722, -20}";
target = down;
type = TopGhost;
},
{
place = "{138, 54}";
type = Stem;
},
{
place = "{1110, 56}";
type = Stem;
},
{
horizontal = 1;
place = "{0, 21}";
target = up;
type = BottomGhost;
}
);
layerId = "74F259A6-12B3-44F5-88D4-EF03CB0B713A";
paths = (
{
closed = 1;
nodes = (
"138 192 OFFCURVE",
"362 -32 OFFCURVE",
"652 -32 CURVE SMOOTH",
"858 -32 OFFCURVE",
"1028 82 OFFCURVE",
"1110 262 CURVE",
"1110 0 LINE",
"1166 0 LINE",
"1166 1722 LINE",
"1110 1722 LINE",
"1110 762 LINE",
"1028 942 OFFCURVE",
"858 1056 OFFCURVE",
"652 1056 CURVE SMOOTH",
"362 1056 OFFCURVE",
"138 832 OFFCURVE",
"138 512 CURVE SMOOTH"
);
},
{
closed = 1;
nodes = (
"192 802 OFFCURVE",
"388 1004 OFFCURVE",
"654 1004 CURVE SMOOTH",
"922 1004 OFFCURVE",
"1116 802 OFFCURVE",
"1116 512 CURVE SMOOTH",
"1116 224 OFFCURVE",
"922 20 OFFCURVE",
"654 20 CURVE SMOOTH",
"388 20 OFFCURVE",
"192 224 OFFCURVE",
"192 512 CURVE SMOOTH"
);
}
);
width = 1388;
}
);
leftKerningGroup = d;
note = d;
rightKerningGroup = space;
unicode = 0064;
},
{
glyphname = e;
lastChange = "2019-12-18 16:23:24 +0000";
layers = (
{
hints = (
{
horizontal = 1;
place = "{-32, 52}";
type = Stem;
},
{
horizontal = 1;
place = "{512, 50}";
type = Stem;
},
{
horizontal = 1;
place = "{1004, 52}";
type = Stem;
},
{
place = "{138, 52}";
type = Stem;
},
{
place = "{1134, 56}";
type = Stem;
}
);
layerId = "74F259A6-12B3-44F5-88D4-EF03CB0B713A";
paths = (
{
closed = 1;
nodes = (
"138 192 OFFCURVE",
"376 -32 OFFCURVE",
"684 -32 CURVE SMOOTH",
"884 -32 OFFCURVE",
"1052 60 OFFCURVE",
"1148 212 CURVE",
"1104 240 LINE",
"1020 104 OFFCURVE",
"868 20 OFFCURVE",
"684 20 CURVE SMOOTH",
"398 20 OFFCURVE",
"190 226 OFFCURVE",
"190 512 CURVE",
"1190 512 LINE",
"1190 814 OFFCURVE",
"954 1056 OFFCURVE",
"664 1056 CURVE SMOOTH",
"374 1056 OFFCURVE",
"138 814 OFFCURVE",
"138 512 CURVE SMOOTH"
);
},
{
closed = 1;
nodes = (
"192 562 LINE",
"216 812 OFFCURVE",
"418 1004 OFFCURVE",
"664 1004 CURVE SMOOTH",
"908 1004 OFFCURVE",
"1110 812 OFFCURVE",
"1134 562 CURVE"
);
}
);
width = 1328;
}
);
leftKerningGroup = c;
note = e;
rightKerningGroup = c;
unicode = 0065;
},
{
glyphname = f;
lastChange = "2019-12-18 16:23:24 +0000";
layers = (
{
hints = (
{
horizontal = 1;
place = "{0, 21}";
target = up;
type = BottomGhost;
},
{
horizontal = 1;
place = "{982, 42}";
type = Stem;
},
{
horizontal = 1;
place = "{1702, 48}";
type = Stem;
},
{
place = "{222, 56}";
type = Stem;
}
);
layerId = "74F259A6-12B3-44F5-88D4-EF03CB0B713A";
paths = (
{
closed = 1;
nodes = (
"138 1024 LINE",
"138 982 LINE",
"222 982 LINE",
"222 0 LINE",
"278 0 LINE",
"278 982 LINE",
"550 982 LINE",
"550 1024 LINE",
"278 1024 LINE",
"278 1464 LINE SMOOTH",
"278 1636 OFFCURVE",
"344 1702 OFFCURVE",
"458 1702 CURVE SMOOTH",
"516 1702 OFFCURVE",
"556 1686 OFFCURVE",
"584 1662 CURVE",
"604 1704 LINE",
"576 1726 OFFCURVE",
"532 1750 OFFCURVE",
"454 1750 CURVE SMOOTH",
"318 1750 OFFCURVE",
"222 1674 OFFCURVE",
"222 1454 CURVE SMOOTH",
"222 1024 LINE"
);
}
);
width = 554;
}
);
note = f;
rightKerningGroup = space;
unicode = 0066;
},
{
glyphname = g;
lastChange = "2019-12-18 16:23:24 +0000";
layers = (
{
hints = (
{
horizontal = 1;
place = "{-550, 46}";
type = Stem;
},
{
horizontal = 1;
place = "{-32, 52}";
type = Stem;
},
{
horizontal = 1;
place = "{1024, -20}";
target = down;
type = TopGhost;
},
{
place = "{166, 54}";
type = Stem;
},
{
place = "{1138, 56}";
type = Stem;
},
{
horizontal = 1;
place = "{1004, 52}";
type = Stem;
}
);
layerId = "74F259A6-12B3-44F5-88D4-EF03CB0B713A";
paths = (
{
closed = 1;
nodes = (
"166 192 OFFCURVE",
"390 -32 OFFCURVE",
"680 -32 CURVE SMOOTH",
"886 -32 OFFCURVE",
"1056 82 OFFCURVE",
"1138 262 CURVE",
"1138 -48 LINE SMOOTH",
"1138 -308 OFFCURVE",
"968 -504 OFFCURVE",
"658 -504 CURVE SMOOTH",
"436 -504 OFFCURVE",
"266 -388 OFFCURVE",
"202 -232 CURVE",
"150 -252 LINE",
"226 -420 OFFCURVE",
"382 -550 OFFCURVE",
"658 -550 CURVE SMOOTH",
"1010 -550 OFFCURVE",
"1194 -354 OFFCURVE",
"1194 -28 CURVE SMOOTH",
"1194 1024 LINE",
"1138 1024 LINE",
"1138 762 LINE",
"1056 942 OFFCURVE",
"886 1056 OFFCURVE",
"680 1056 CURVE SMOOTH",
"390 1056 OFFCURVE",
"166 832 OFFCURVE",
"166 512 CURVE SMOOTH"
);
},
{
closed = 1;
nodes = (
"220 802 OFFCURVE",
"416 1004 OFFCURVE",
"682 1004 CURVE SMOOTH",
"950 1004 OFFCURVE",
"1144 802 OFFCURVE",
"1144 512 CURVE SMOOTH",
"1144 224 OFFCURVE",
"950 20 OFFCURVE",
"682 20 CURVE SMOOTH",
"416 20 OFFCURVE",
"220 224 OFFCURVE",
"220 512 CURVE SMOOTH"
);
}
);
width = 1416;
}
);
leftKerningGroup = g;
note = g;
rightKerningGroup = g;
unicode = 0067;
},
{
glyphname = h;
lastChange = "2019-12-18 16:23:24 +0000";
layers = (
{
hints = (
{
horizontal = 1;
place = "{0, 21}";
target = up;
type = BottomGhost;
},
{
horizontal = 1;
place = "{1006, 50}";
type = Stem;
},
{
horizontal = 1;
place = "{1722, -20}";
target = down;
type = TopGhost;
},
{
place = "{222, 56}";
type = Stem;
},
{
place = "{942, 56}";
type = Stem;
}
);
layerId = "74F259A6-12B3-44F5-88D4-EF03CB0B713A";
paths = (
{
closed = 1;
nodes = (
"222 1722 LINE",
"222 0 LINE",
"278 0 LINE",
"278 702 LINE SMOOTH",
"278 848 OFFCURVE",
"398 1006 OFFCURVE",
"606 1006 CURVE SMOOTH",
"838 1006 OFFCURVE",
"942 866 OFFCURVE",
"942 622 CURVE SMOOTH",
"942 0 LINE",
"998 0 LINE",
"998 640 LINE SMOOTH",
"998 880 OFFCURVE",
"896 1056 OFFCURVE",
"606 1056 CURVE SMOOTH",
"492 1056 OFFCURVE",
"332 1002 OFFCURVE",
"278 870 CURVE",
"278 1722 LINE"
);
}
);
width = 1204;
}
);
note = h;
rightKerningGroup = b;
unicode = 0068;
},
{
glyphname = i;
lastChange = "2019-12-18 16:23:24 +0000";
layers = (
{
hints = (
{
horizontal = 1;
place = "{0, 21}";
target = up;
type = BottomGhost;
},
{
horizontal = 1;
place = "{1024, -20}";
target = down;
type = TopGhost;
},
{
horizontal = 1;
place = "{1226, 96}";
type = Stem;
},
{
place = "{242, 56}";
type = Stem;
},
{
place = "{222, 96}";
type = Stem;
}
);
layerId = "74F259A6-12B3-44F5-88D4-EF03CB0B713A";
paths = (
{
closed = 1;
nodes = (
"242 1024 LINE",
"242 0 LINE",
"298 0 LINE",
"298 1024 LINE"
);
},
{
closed = 1;
nodes = (
"244 1322 OFFCURVE",
"222 1300 OFFCURVE",
"222 1274 CURVE SMOOTH",
"222 1248 OFFCURVE",
"244 1226 OFFCURVE",
"270 1226 CURVE SMOOTH",
"296 1226 OFFCURVE",
"318 1248 OFFCURVE",
"318 1274 CURVE SMOOTH",
"318 1300 OFFCURVE",
"296 1322 OFFCURVE",
"270 1322 CURVE SMOOTH"
);
}
);
width = 540;
}
);
leftKerningGroup = I;
note = i;
rightKerningGroup = space;
unicode = 0069;
},
{
glyphname = j;
lastChange = "2019-12-18 16:23:24 +0000";
layers = (
{
hints = (
{
horizontal = 1;
place = "{-550, 48}";
type = Stem;
},
{
horizontal = 1;
place = "{1024, -20}";
target = down;
type = TopGhost;
},
{
horizontal = 1;
place = "{1226, 96}";
type = Stem;
},
{
place = "{202, 96}";
type = Stem;
},
{
place = "{222, 56}";
type = Stem;
}
);
layerId = "74F259A6-12B3-44F5-88D4-EF03CB0B713A";
paths = (
{
closed = 1;
nodes = (
"224 1322 OFFCURVE",
"202 1300 OFFCURVE",
"202 1274 CURVE SMOOTH",
"202 1248 OFFCURVE",
"224 1226 OFFCURVE",
"250 1226 CURVE SMOOTH",
"276 1226 OFFCURVE",
"298 1248 OFFCURVE",
"298 1274 CURVE SMOOTH",
"298 1300 OFFCURVE",
"276 1322 OFFCURVE",
"250 1322 CURVE SMOOTH"
);
},
{
closed = 1;
nodes = (
"222 1024 LINE",
"222 -264 LINE SMOOTH",
"222 -428 OFFCURVE",
"156 -502 OFFCURVE",
"42 -502 CURVE SMOOTH",
"-18 -502 OFFCURVE",
"-60 -486 OFFCURVE",
"-88 -460 CURVE",
"-104 -504 LINE",
"-76 -528 OFFCURVE",
"-32 -550 OFFCURVE",
"46 -550 CURVE SMOOTH",
"182 -550 OFFCURVE",
"278 -474 OFFCURVE",
"278 -254 CURVE SMOOTH",
"278 1024 LINE"
);
}
);
width = 520;
}
);
note = j;
rightKerningGroup = space;
unicode = 006A;
},
{
glyphname = j.1;
lastChange = "2019-12-18 16:23:24 +0000";
layers = (
{
hints = (
{
horizontal = 1;
place = "{-520, 21}";
target = up;
type = BottomGhost;
},
{
horizontal = 1;
place = "{1024, -20}";
target = down;
type = TopGhost;
},
{
horizontal = 1;
place = "{1226, 96}";
type = Stem;
},
{
place = "{202, 96}";
type = Stem;
},
{
place = "{222, 56}";
type = Stem;
}
);
layerId = "74F259A6-12B3-44F5-88D4-EF03CB0B713A";
paths = (
{
closed = 1;
nodes = (
"224 1322 OFFCURVE",
"202 1300 OFFCURVE",
"202 1274 CURVE SMOOTH",
"202 1248 OFFCURVE",
"224 1226 OFFCURVE",
"250 1226 CURVE SMOOTH",
"276 1226 OFFCURVE",
"298 1248 OFFCURVE",
"298 1274 CURVE SMOOTH",
"298 1300 OFFCURVE",
"276 1322 OFFCURVE",
"250 1322 CURVE SMOOTH"
);
},
{
closed = 1;
nodes = (
"222 1024 LINE",
"222 -520 LINE",
"278 -520 LINE",
"278 1024 LINE"
);
}
);
width = 520;
}
);
note = j.1;
},
{
glyphname = k;
lastChange = "2019-12-18 16:23:24 +0000";
layers = (
{
hints = (
{
horizontal = 1;
place = "{0, 21}";
target = up;
type = BottomGhost;
},
{
horizontal = 1;
place = "{1024, -20}";
target = down;
type = TopGhost;
},
{
horizontal = 1;
place = "{1720, -20}";
target = down;
type = TopGhost;
},
{
place = "{222, 56}";
type = Stem;
}
);
layerId = "74F259A6-12B3-44F5-88D4-EF03CB0B713A";
paths = (
{
closed = 1;
nodes = (
"222 1720 LINE",
"222 0 LINE",
"278 0 LINE",
"278 514 LINE",
"364 620 LINE",
"818 0 LINE",
"884 0 LINE",
"398 662 LINE",
"698 1024 LINE",
"698 1024 OFFCURVE",
"630 1024 OFFCURVE",
"630 1024 CURVE",
"278 598 LINE",
"278 1720 LINE"
);
}
);
width = 844;
}
);
note = k;
rightKerningGroup = space;
unicode = 006B;
},
{
glyphname = l;
lastChange = "2019-12-18 16:23:24 +0000";
layers = (
{
hints = (
{
horizontal = 1;
place = "{0, 21}";
target = up;
type = BottomGhost;
},
{
horizontal = 1;
place = "{1720, -20}";
target = down;
type = TopGhost;
},
{
place = "{222, 56}";
type = Stem;
}
);
layerId = "74F259A6-12B3-44F5-88D4-EF03CB0B713A";
paths = (
{
closed = 1;
nodes = (
"222 1720 LINE",
"222 0 LINE",
"278 0 LINE",
"278 1720 LINE"
);
}
);
width = 500;
}
);
leftKerningGroup = I;
note = l;
rightKerningGroup = space;
unicode = 006C;
},
{
glyphname = m;
lastChange = "2019-12-18 16:23:24 +0000";
layers = (
{
hints = (
{
horizontal = 1;
place = "{0, 21}";
target = up;
type = BottomGhost;
},
{
horizontal = 1;
place = "{1024, -20}";
target = down;
type = TopGhost;
},
{
place = "{222, 56}";
type = Stem;
},
{
place = "{944, 56}";
type = Stem;
},
{
place = "{1666, 56}";
type = Stem;
},
{
horizontal = 1;
place = "{1006, 50}";
type = Stem;
}
);
layerId = "74F259A6-12B3-44F5-88D4-EF03CB0B713A";
paths = (
{
closed = 1;
nodes = (
"222 1024 LINE",
"222 0 LINE",
"278 0 LINE",
"278 734 LINE SMOOTH",
"278 828 OFFCURVE",
"418 1006 OFFCURVE",
"608 1006 CURVE SMOOTH",
"834 1006 OFFCURVE",
"944 860 OFFCURVE",
"944 622 CURVE SMOOTH",
"944 0 LINE",
"1000 0 LINE",
"1000 734 LINE SMOOTH",
"1000 828 OFFCURVE",
"1140 1006 OFFCURVE",
"1330 1006 CURVE SMOOTH",
"1556 1006 OFFCURVE",
"1666 860 OFFCURVE",
"1666 622 CURVE SMOOTH",
"1666 0 LINE",
"1722 0 LINE",
"1722 640 LINE SMOOTH",
"1722 880 OFFCURVE",
"1620 1056 OFFCURVE",
"1330 1056 CURVE SMOOTH",
"1164 1056 OFFCURVE",
"1030 948 OFFCURVE",
"972 828 CURVE",
"926 966 OFFCURVE",
"816 1056 OFFCURVE",
"608 1056 CURVE SMOOTH",
"494 1056 OFFCURVE",
"346 996 OFFCURVE",
"278 870 CURVE",
"278 1024 LINE"
);
}
);
width = 1928;
}
);
leftKerningGroup = m;
note = m;
rightKerningGroup = b;
unicode = 006D;
},
{
glyphname = n;
lastChange = "2019-12-18 16:23:24 +0000";
layers = (
{
hints = (
{
horizontal = 1;
place = "{0, 21}";
target = up;
type = BottomGhost;
},
{
horizontal = 1;
place = "{1024, -20}";
target = down;
type = TopGhost;
},
{
place = "{222, 56}";
type = Stem;
},
{
place = "{942, 56}";
type = Stem;
},
{
horizontal = 1;
place = "{1006, 50}";
type = Stem;
}
);
layerId = "74F259A6-12B3-44F5-88D4-EF03CB0B713A";
paths = (
{
closed = 1;
nodes = (
"222 1024 LINE",
"222 0 LINE",
"278 0 LINE",
"278 702 LINE SMOOTH",
"278 848 OFFCURVE",
"398 1006 OFFCURVE",
"606 1006 CURVE SMOOTH",
"838 1006 OFFCURVE",
"942 866 OFFCURVE",
"942 622 CURVE SMOOTH",
"942 0 LINE",
"998 0 LINE",
"998 640 LINE SMOOTH",
"998 880 OFFCURVE",
"896 1056 OFFCURVE",
"606 1056 CURVE SMOOTH",
"492 1056 OFFCURVE",
"332 1002 OFFCURVE",
"278 870 CURVE",
"278 1024 LINE"
);
}
);
width = 1204;
}
);
leftKerningGroup = m;
note = n;
rightKerningGroup = b;
unicode = 006E;
},
{
glyphname = o;
lastChange = "2019-12-18 16:23:24 +0000";
layers = (
{
hints = (
{
horizontal = 1;
place = "{-32, 52}";
type = Stem;
},
{
horizontal = 1;
place = "{1004, 52}";
type = Stem;
},
{
place = "{138, 52}";
type = Stem;
},
{
place = "{1182, 52}";
type = Stem;
}
);
layerId = "74F259A6-12B3-44F5-88D4-EF03CB0B713A";
paths = (
{
closed = 1;
nodes = (
"138 190 OFFCURVE",
"376 -32 OFFCURVE",
"686 -32 CURVE SMOOTH",
"996 -32 OFFCURVE",
"1234 190 OFFCURVE",
"1234 512 CURVE SMOOTH",
"1234 834 OFFCURVE",
"996 1056 OFFCURVE",
"686 1056 CURVE SMOOTH",
"376 1056 OFFCURVE",
"138 834 OFFCURVE",
"138 512 CURVE SMOOTH"
);
},
{
closed = 1;
nodes = (
"190 798 OFFCURVE",
"398 1004 OFFCURVE",
"686 1004 CURVE SMOOTH",
"974 1004 OFFCURVE",
"1182 798 OFFCURVE",
"1182 512 CURVE SMOOTH",
"1182 226 OFFCURVE",
"974 20 OFFCURVE",
"686 20 CURVE SMOOTH",
"398 20 OFFCURVE",
"190 226 OFFCURVE",
"190 512 CURVE SMOOTH"
);
}
);
width = 1372;
}
);
leftKerningGroup = c;
note = o;
rightKerningGroup = c;
unicode = 006F;
},
{
glyphname = p;
lastChange = "2019-12-18 16:23:24 +0000";
layers = (
{
hints = (
{
horizontal = 1;
place = "{-520, 21}";
target = up;
type = BottomGhost;
},
{
horizontal = 1;
place = "{-32, 52}";
type = Stem;
},
{
horizontal = 1;
place = "{1024, -20}";
target = down;
type = TopGhost;
},
{
place = "{222, 56}";
type = Stem;
},
{
place = "{1196, 54}";
type = Stem;
},
{
horizontal = 1;
place = "{1004, 52}";
type = Stem;
}
);
layerId = "74F259A6-12B3-44F5-88D4-EF03CB0B713A";
paths = (
{
closed = 1;
nodes = (
"222 1024 LINE",
"222 -520 LINE",
"278 -520 LINE",
"278 262 LINE",
"360 82 OFFCURVE",
"530 -32 OFFCURVE",
"736 -32 CURVE SMOOTH",
"1026 -32 OFFCURVE",
"1250 192 OFFCURVE",
"1250 512 CURVE SMOOTH",
"1250 832 OFFCURVE",
"1026 1056 OFFCURVE",
"736 1056 CURVE SMOOTH",
"530 1056 OFFCURVE",
"360 944 OFFCURVE",
"278 764 CURVE",
"278 1024 LINE"
);
},
{
closed = 1;
nodes = (
"272 802 OFFCURVE",
"466 1004 OFFCURVE",
"734 1004 CURVE SMOOTH",
"1000 1004 OFFCURVE",
"1196 802 OFFCURVE",
"1196 512 CURVE SMOOTH",
"1196 224 OFFCURVE",
"1000 20 OFFCURVE",
"734 20 CURVE SMOOTH",
"466 20 OFFCURVE",
"272 224 OFFCURVE",
"272 512 CURVE SMOOTH"
);
}
);
width = 1400;
}
);
leftKerningGroup = m;
note = p;
rightKerningGroup = b;
unicode = 0070;
},
{
glyphname = q;
lastChange = "2019-12-18 16:23:24 +0000";
layers = (
{
hints = (
{
horizontal = 1;
place = "{-520, 21}";
target = up;
type = BottomGhost;
},
{
horizontal = 1;
place = "{-32, 52}";
type = Stem;
},
{
horizontal = 1;
place = "{1024, -20}";
target = down;
type = TopGhost;
},
{
place = "{150, 54}";
type = Stem;
},
{
place = "{1122, 56}";
type = Stem;
},
{
horizontal = 1;
place = "{1004, 52}";
type = Stem;
}
);
layerId = "74F259A6-12B3-44F5-88D4-EF03CB0B713A";
paths = (
{
closed = 1;
nodes = (
"150 192 OFFCURVE",
"374 -32 OFFCURVE",
"664 -32 CURVE SMOOTH",
"870 -32 OFFCURVE",
"1040 82 OFFCURVE",
"1122 262 CURVE",
"1122 -520 LINE",
"1178 -520 LINE",
"1178 1024 LINE",
"1122 1024 LINE",
"1122 762 LINE",
"1040 942 OFFCURVE",
"870 1056 OFFCURVE",
"664 1056 CURVE SMOOTH",
"374 1056 OFFCURVE",
"150 832 OFFCURVE",
"150 512 CURVE SMOOTH"
);
},
{
closed = 1;
nodes = (
"204 802 OFFCURVE",
"400 1004 OFFCURVE",
"666 1004 CURVE SMOOTH",
"934 1004 OFFCURVE",
"1128 802 OFFCURVE",
"1128 512 CURVE SMOOTH",
"1128 224 OFFCURVE",
"934 20 OFFCURVE",
"666 20 CURVE SMOOTH",
"400 20 OFFCURVE",
"204 224 OFFCURVE",
"204 512 CURVE SMOOTH"
);
}
);
width = 1400;
}
);
leftKerningGroup = d;
note = q;
rightKerningGroup = space;
unicode = 0071;
},
{
glyphname = r;
lastChange = "2019-12-18 16:23:24 +0000";
layers = (
{
hints = (
{
horizontal = 1;
place = "{0, 21}";
target = up;
type = BottomGhost;
},
{
horizontal = 1;
place = "{1024, -20}";
target = down;
type = TopGhost;
},
{
place = "{222, 56}";
type = Stem;
},
{
horizontal = 1;
place = "{1006, 50}";
type = Stem;
}
);
layerId = "74F259A6-12B3-44F5-88D4-EF03CB0B713A";
paths = (
{
closed = 1;
nodes = (
"222 1024 LINE",
"222 0 LINE",
"278 0 LINE",
"278 734 LINE SMOOTH",
"278 828 OFFCURVE",
"378 1006 OFFCURVE",
"568 1006 CURVE SMOOTH",
"622 1006 OFFCURVE",
"668 998 OFFCURVE",
"706 984 CURVE",
"728 1032 LINE",
"684 1048 OFFCURVE",
"632 1056 OFFCURVE",
"568 1056 CURVE SMOOTH",
"454 1056 OFFCURVE",
"340 1008 OFFCURVE",
"278 870 CURVE",
"278 1024 LINE"
);
}
);
width = 728;
}
);
leftKerningGroup = m;
note = r;
rightKerningGroup = r;
unicode = 0072;
},
{
glyphname = s;
lastChange = "2019-12-18 16:23:24 +0000";
layers = (
{
hints = (
{
horizontal = 1;
place = "{-32, 50}";
type = Stem;
},
{
horizontal = 1;
place = "{1006, 50}";
type = Stem;
},
{
place = "{208, 52}";
type = Stem;
},
{
place = "{768, 50}";
type = Stem;
}
);
layerId = "74F259A6-12B3-44F5-88D4-EF03CB0B713A";
paths = (
{
closed = 1;
nodes = (
"308 1056 OFFCURVE",
"208 938 OFFCURVE",
"208 808 CURVE SMOOTH",
"208 644 OFFCURVE",
"370 578 OFFCURVE",
"486 542 CURVE SMOOTH",
"618 502 OFFCURVE",
"768 456 OFFCURVE",
"768 296 CURVE SMOOTH",
"768 114 OFFCURVE",
"624 18 OFFCURVE",
"482 18 CURVE SMOOTH",
"336 18 OFFCURVE",
"222 108 OFFCURVE",
"170 262 CURVE",
"122 246 LINE",
"182 70 OFFCURVE",
"312 -32 OFFCURVE",
"482 -32 CURVE SMOOTH",
"650 -32 OFFCURVE",
"818 80 OFFCURVE",
"818 296 CURVE SMOOTH",
"818 494 OFFCURVE",
"642 548 OFFCURVE",
"502 590 CURVE SMOOTH",
"336 642 OFFCURVE",
"260 706 OFFCURVE",
"260 808 CURVE SMOOTH",
"260 914 OFFCURVE",
"334 1006 OFFCURVE",
"498 1006 CURVE SMOOTH",
"602 1006 OFFCURVE",
"682 934 OFFCURVE",
"714 864 CURVE",
"760 886 LINE",
"720 970 OFFCURVE",
"624 1056 OFFCURVE",
"498 1056 CURVE SMOOTH"
);
}
);
width = 940;
}
);
leftKerningGroup = s;
note = s;
rightKerningGroup = s;
unicode = 0073;
},
{
glyphname = t;
lastChange = "2019-12-18 16:23:24 +0000";
layers = (
{
hints = (
{
horizontal = 1;
place = "{-32, 48}";
type = Stem;
},
{
horizontal = 1;
place = "{982, 42}";
type = Stem;
},
{
horizontal = 1;
place = "{1406, -20}";
target = down;
type = TopGhost;
},
{
place = "{224, 56}";
type = Stem;
}
);
layerId = "74F259A6-12B3-44F5-88D4-EF03CB0B713A";
paths = (
{
closed = 1;
nodes = (
"138 1024 LINE",
"138 982 LINE",
"224 982 LINE",
"224 222 LINE SMOOTH",
"224 96 OFFCURVE",
"248 -32 OFFCURVE",
"418 -32 CURVE SMOOTH",
"510 -32 OFFCURVE",
"552 6 OFFCURVE",
"552 6 CURVE",
"538 50 LINE",
"538 50 OFFCURVE",
"496 16 OFFCURVE",
"426 16 CURVE SMOOTH",
"318 16 OFFCURVE",
"280 88 OFFCURVE",
"280 222 CURVE SMOOTH",
"280 982 LINE",
"552 982 LINE",
"552 1024 LINE",
"280 1024 LINE",
"280 1406 LINE",
"224 1406 LINE",
"224 1024 LINE"
);
}
);
width = 590;
}
);
leftKerningGroup = t;
note = t;
rightKerningGroup = t;
unicode = 0074;
},
{
glyphname = t.1;
lastChange = "2019-12-18 16:23:24 +0000";
layers = (
{
hints = (
{
horizontal = 1;
place = "{0, 21}";
target = up;
type = BottomGhost;
},
{
horizontal = 1;
place = "{982, 42}";
type = Stem;
},
{
horizontal = 1;
place = "{1406, -20}";
target = down;
type = TopGhost;
},
{
place = "{224, 56}";
type = Stem;
}
);
layerId = "74F259A6-12B3-44F5-88D4-EF03CB0B713A";
paths = (
{
closed = 1;
nodes = (
"224 1406 LINE",
"224 1024 LINE",
"98 1024 LINE",
"98 982 LINE",
"224 982 LINE",
"224 0 LINE",
"280 0 LINE",
"280 982 LINE",
"512 982 LINE",
"512 1024 LINE",
"280 1024 LINE",
"280 1406 LINE"
);
}
);
width = 590;
}
);
note = t.1;
},
{
glyphname = u;
lastChange = "2019-12-18 16:23:24 +0000";
layers = (
{
hints = (
{
horizontal = 1;
place = "{-32, 52}";
type = Stem;
},
{
horizontal = 1;
place = "{1024, -20}";
target = down;
type = TopGhost;
},
{
place = "{206, 56}";
type = Stem;
},
{
place = "{910, 56}";
type = Stem;
}
);
layerId = "74F259A6-12B3-44F5-88D4-EF03CB0B713A";
paths = (
{
closed = 1;
nodes = (
"206 1024 LINE",
"206 414 LINE SMOOTH",
"206 80 OFFCURVE",
"318 -32 OFFCURVE",
"586 -32 CURVE SMOOTH",
"854 -32 OFFCURVE",
"966 80 OFFCURVE",
"966 414 CURVE SMOOTH",
"966 1024 LINE",
"910 1024 LINE",
"910 414 LINE SMOOTH",
"910 86 OFFCURVE",
"782 20 OFFCURVE",
"586 20 CURVE SMOOTH",
"390 20 OFFCURVE",
"262 86 OFFCURVE",
"262 414 CURVE SMOOTH",
"262 1024 LINE"
);
}
);
width = 1172;
}
);
leftKerningGroup = u;
note = u;
rightKerningGroup = u;
unicode = 0075;
},
{
glyphname = u.1;
lastChange = "2019-12-18 16:23:24 +0000";
layers = (
{
hints = (
{
horizontal = 1;
place = "{-32, 50}";
type = Stem;
},
{
place = "{206, 56}";
type = Stem;
},
{
place = "{926, 56}";
type = Stem;
}
);
layerId = "74F259A6-12B3-44F5-88D4-EF03CB0B713A";
paths = (
{
closed = 1;
nodes = (
"206 1024 LINE",
"206 384 LINE SMOOTH",
"206 144 OFFCURVE",
"308 -32 OFFCURVE",
"598 -32 CURVE SMOOTH",
"712 -32 OFFCURVE",
"872 22 OFFCURVE",
"926 154 CURVE",
"926 0 LINE",
"982 0 LINE",
"982 1024 LINE",
"926 1024 LINE",
"926 322 LINE SMOOTH",
"926 176 OFFCURVE",
"806 18 OFFCURVE",
"598 18 CURVE SMOOTH",
"366 18 OFFCURVE",
"262 158 OFFCURVE",
"262 402 CURVE SMOOTH",
"262 1024 LINE"
);
}
);
width = 1204;
}
);
note = u.1;
},
{
glyphname = v;
lastChange = "2019-12-18 16:23:24 +0000";
layers = (
{
hints = (
{
horizontal = 1;
place = "{0, 21}";
target = up;
type = BottomGhost;
},
{
horizontal = 1;
place = "{1024, -20}";
target = down;
type = TopGhost;
},
{
place = "{10, 984}";
type = Stem;
}
);
layerId = "74F259A6-12B3-44F5-88D4-EF03CB0B713A";
paths = (
{
closed = 1;
nodes = (
"10 1024 LINE",
"484 0 LINE",
"520 0 LINE",
"994 1024 LINE",
"930 1024 LINE",
"502 98 LINE",
"74 1024 LINE"
);
}
);
width = 1004;
}
);
leftKerningGroup = v;
note = v;
rightKerningGroup = v;
unicode = 0076;
},
{
glyphname = w;
lastChange = "2019-12-18 16:23:24 +0000";
layers = (
{
hints = (
{
horizontal = 1;
place = "{0, 21}";
target = up;
type = BottomGhost;
},
{
horizontal = 1;
place = "{1024, -20}";
target = down;
type = TopGhost;
},
{
place = "{10, 1732}";
type = Stem;
}
);
layerId = "74F259A6-12B3-44F5-88D4-EF03CB0B713A";
paths = (
{
closed = 1;
nodes = (
"10 1024 LINE",
"484 0 LINE",
"520 0 LINE",
"876 912 LINE",
"1232 0 LINE",
"1268 0 LINE",
"1742 1024 LINE",
"1678 1024 LINE",
"1250 98 LINE",
"894 1024 LINE",
"858 1024 LINE",
"502 98 LINE",
"74 1024 LINE"
);
}
);
width = 1752;
}
);
leftKerningGroup = v;
note = w;
rightKerningGroup = v;
unicode = 0077;
},
{
glyphname = x;
lastChange = "2019-12-18 16:23:24 +0000";
layers = (
{
hints = (
{
horizontal = 1;
place = "{0, 21}";
target = up;
type = BottomGhost;
},
{
horizontal = 1;
place = "{1024, -20}";
target = down;
type = TopGhost;
},
{
place = "{96, 832}";
type = Stem;
}
);
layerId = "74F259A6-12B3-44F5-88D4-EF03CB0B713A";
paths = (
{
closed = 1;
nodes = (
"96 1024 LINE",
"470 524 LINE",
"40 0 LINE",
"104 0 LINE",
"512 498 LINE",
"920 0 LINE",
"984 0 LINE",
"554 524 LINE",
"928 1024 LINE",
"866 1024 LINE",
"512 562 LINE",
"158 1024 LINE"
);
}
);
width = 1024;
}
);
note = x;
rightKerningGroup = space;
unicode = 0078;
},
{
glyphname = y;
lastChange = "2019-12-18 16:23:24 +0000";
layers = (
{
hints = (
{
horizontal = 1;
place = "{-520, 21}";
target = up;
type = BottomGhost;
},
{
horizontal = 1;
place = "{1024, -20}";
target = down;
type = TopGhost;
},
{
place = "{10, 1000}";
type = Stem;
}
);
layerId = "74F259A6-12B3-44F5-88D4-EF03CB0B713A";
paths = (
{
closed = 1;
nodes = (
"10 1024 LINE",
"498 -32 LINE",
"290 -520 LINE",
"350 -520 LINE",
"1010 1024 LINE",
"948 1024 LINE",
"528 36 LINE",
"72 1024 LINE"
);
}
);
width = 1020;
}
);
leftKerningGroup = v;
note = y;
rightKerningGroup = v;
unicode = 0079;
},
{
glyphname = z;
lastChange = "2019-12-18 16:23:24 +0000";
layers = (
{
hints = (
{
horizontal = 1;
place = "{0, 56}";
type = Stem;
},
{
horizontal = 1;
place = "{968, 56}";
type = Stem;
},
{
place = "{70, 990}";
type = Stem;
}
);
layerId = "74F259A6-12B3-44F5-88D4-EF03CB0B713A";
paths = (
{
closed = 1;
nodes = (
"144 1024 LINE",
"144 968 LINE",
"934 968 LINE",
"70 0 LINE",
"1044 0 LINE",
"1044 56 LINE",
"194 56 LINE",
"1060 1024 LINE"
);
}
);
width = 1130;
}
);
note = z;
rightKerningGroup = space;
unicode = 007A;
},
{
glyphname = braceleft;
lastChange = "2019-12-18 16:23:24 +0000";
layers = (
{
hints = (
{
place = "{232, 56}";
type = Stem;
}
);
layerId = "74F259A6-12B3-44F5-88D4-EF03CB0B713A";
paths = (
{
closed = 1;
nodes = (
"166 576 LINE",
"212 576 OFFCURVE",
"232 552 OFFCURVE",
"232 490 CURVE SMOOTH",
"232 -158 LINE SMOOTH",
"232 -324 OFFCURVE",
"294 -520 OFFCURVE",
"550 -520 CURVE SMOOTH",
"580 -520 LINE",
"580 -464 LINE",
"550 -464 LINE SMOOTH",
"368 -464 OFFCURVE",
"288 -354 OFFCURVE",
"288 -158 CURVE SMOOTH",
"288 524 LINE SMOOTH",
"288 564 OFFCURVE",
"280 588 OFFCURVE",
"260 600 CURVE",
"280 612 OFFCURVE",
"288 636 OFFCURVE",
"288 676 CURVE SMOOTH",
"288 1358 LINE SMOOTH",
"288 1554 OFFCURVE",
"368 1664 OFFCURVE",
"550 1664 CURVE SMOOTH",
"580 1664 LINE",
"580 1720 LINE",
"550 1720 LINE SMOOTH",
"294 1720 OFFCURVE",
"232 1524 OFFCURVE",
"232 1358 CURVE SMOOTH",
"232 710 LINE SMOOTH",
"232 648 OFFCURVE",
"212 624 OFFCURVE",
"166 624 CURVE"
);
}
);
width = 520;
}
);
note = braceleft;
rightKerningGroup = space;
unicode = 007B;
},
{
glyphname = bar;
lastChange = "2019-12-18 16:23:24 +0000";
layers = (
{
hints = (
{
horizontal = 1;
place = "{0, 21}";
target = up;
type = BottomGhost;
},
{
horizontal = 1;
place = "{1720, -20}";
target = down;
type = TopGhost;
},
{
place = "{232, 56}";
type = Stem;
}
);
layerId = "74F259A6-12B3-44F5-88D4-EF03CB0B713A";
paths = (
{
closed = 1;
nodes = (
"232 1720 LINE",
"232 0 LINE",
"288 0 LINE",
"288 1720 LINE"
);
}
);
width = 520;
}
);
leftKerningGroup = I;
note = bar;
rightKerningGroup = space;
unicode = 007C;
},
{
glyphname = braceright;
lastChange = "2019-12-18 16:23:24 +0000";
layers = (
{
hints = (
{
place = "{232, 56}";
type = Stem;
}
);
layerId = "74F259A6-12B3-44F5-88D4-EF03CB0B713A";
paths = (
{
closed = 1;
nodes = (
"-60 1720 LINE",
"-60 1664 LINE",
"-30 1664 LINE SMOOTH",
"152 1664 OFFCURVE",
"232 1554 OFFCURVE",
"232 1358 CURVE SMOOTH",
"232 676 LINE SMOOTH",
"232 636 OFFCURVE",
"240 612 OFFCURVE",
"260 600 CURVE",
"240 588 OFFCURVE",
"232 564 OFFCURVE",
"232 524 CURVE SMOOTH",
"232 -158 LINE SMOOTH",
"232 -354 OFFCURVE",
"152 -464 OFFCURVE",
"-30 -464 CURVE SMOOTH",
"-60 -464 LINE",
"-60 -520 LINE",
"-30 -520 LINE SMOOTH",
"226 -520 OFFCURVE",
"288 -324 OFFCURVE",
"288 -158 CURVE SMOOTH",
"288 490 LINE SMOOTH",
"288 552 OFFCURVE",
"308 576 OFFCURVE",
"354 576 CURVE",
"354 624 LINE",
"308 624 OFFCURVE",
"288 648 OFFCURVE",
"288 710 CURVE SMOOTH",
"288 1358 LINE SMOOTH",
"288 1524 OFFCURVE",
"226 1720 OFFCURVE",
"-30 1720 CURVE SMOOTH"
);
}
);
width = 520;
}
);
note = braceright;
rightKerningGroup = space;
unicode = 007D;
},
{
glyphname = asciitilde;
lastChange = "2019-12-18 16:23:24 +0000";
layers = (
{
hints = (
{
horizontal = 1;
place = "{726, 50}";
type = Stem;
},
{
horizontal = 1;
place = "{886, 50}";
type = Stem;
},
{
place = "{148, 956}";
type = Stem;
}
);
layerId = "74F259A6-12B3-44F5-88D4-EF03CB0B713A";
paths = (
{
closed = 1;
nodes = (
"186 730 LINE",
"234 814 OFFCURVE",
"314 886 OFFCURVE",
"424 886 CURVE SMOOTH",
"464 886 OFFCURVE",
"532 876 OFFCURVE",
"610 812 CURVE SMOOTH",
"702 738 OFFCURVE",
"780 726 OFFCURVE",
"828 726 CURVE SMOOTH",
"956 726 OFFCURVE",
"1050 806 OFFCURVE",
"1104 898 CURVE",
"1066 932 LINE",
"1018 848 OFFCURVE",
"938 776 OFFCURVE",
"828 776 CURVE SMOOTH",
"788 776 OFFCURVE",
"720 786 OFFCURVE",
"642 850 CURVE SMOOTH",
"550 924 OFFCURVE",
"472 936 OFFCURVE",
"424 936 CURVE SMOOTH",
"296 936 OFFCURVE",
"202 856 OFFCURVE",
"148 764 CURVE"
);
}
);
width = 1252;
}
);
note = asciitilde;
rightKerningGroup = space;
unicode = 007E;
},
{
glyphname = exclamdown;
lastChange = "2019-12-18 16:23:24 +0000";
layers = (
{
hints = (
{
horizontal = 1;
place = "{-520, 21}";
target = up;
type = BottomGhost;
},
{
horizontal = 1;
place = "{1134, 96}";
type = Stem;
},
{
place = "{232, 96}";
type = Stem;
},
{
place = "{254, 52}";
type = Stem;
}
);
layerId = "74F259A6-12B3-44F5-88D4-EF03CB0B713A";
paths = (
{
closed = 1;
nodes = (
"254 1230 OFFCURVE",
"232 1208 OFFCURVE",
"232 1182 CURVE SMOOTH",
"232 1156 OFFCURVE",
"254 1134 OFFCURVE",
"280 1134 CURVE SMOOTH",
"306 1134 OFFCURVE",
"328 1156 OFFCURVE",
"328 1182 CURVE SMOOTH",
"328 1208 OFFCURVE",
"306 1230 OFFCURVE",
"280 1230 CURVE SMOOTH"
);
},
{
closed = 1;
nodes = (
"254 862 LINE",
"254 -520 LINE",
"306 -520 LINE",
"306 862 LINE"
);
}
);
width = 560;
}
);
note = exclamdown;
rightKerningGroup = space;
unicode = 00A1;
},
{
glyphname = cent;
lastChange = "2019-12-18 16:23:24 +0000";
layers = (
{
hints = (
{
horizontal = 1;
place = "{-258, 21}";
target = up;
type = BottomGhost;
},
{
horizontal = 1;
place = "{-32, 42}";
type = Stem;
},
{
horizontal = 1;
place = "{1016, 40}";
type = Stem;
},
{
horizontal = 1;
place = "{1272, -20}";
target = down;
type = TopGhost;
},
{
place = "{138, 50}";
type = Stem;
},
{
place = "{614, 44}";
type = Stem;
},
{
place = "{658, 46}";
type = Stem;
}
);
layerId = "74F259A6-12B3-44F5-88D4-EF03CB0B713A";
paths = (
{
closed = 1;
nodes = (
"614 1272 LINE",
"614 1052 LINE",
"340 1020 OFFCURVE",
"138 806 OFFCURVE",
"138 512 CURVE SMOOTH",
"138 202 OFFCURVE",
"362 -20 OFFCURVE",
"658 -32 CURVE",
"658 -258 LINE",
"704 -258 LINE",
"704 -32 LINE",
"832 -28 OFFCURVE",
"948 14 OFFCURVE",
"1038 88 CURVE",
"1018 128 LINE",
"932 52 OFFCURVE",
"816 10 OFFCURVE",
"684 10 CURVE SMOOTH",
"398 10 OFFCURVE",
"188 216 OFFCURVE",
"188 512 CURVE SMOOTH",
"188 808 OFFCURVE",
"398 1016 OFFCURVE",
"684 1016 CURVE SMOOTH",
"816 1016 OFFCURVE",
"932 970 OFFCURVE",
"1018 894 CURVE",
"1038 934 LINE",
"944 1012 OFFCURVE",
"822 1056 OFFCURVE",
"684 1056 CURVE SMOOTH",
"670 1056 OFFCURVE",
"658 1056 OFFCURVE",
"658 1056 CURVE",
"658 1272 LINE"
);
}
);
width = 1188;
}
);
leftKerningGroup = c;
note = cent;
rightKerningGroup = c;
unicode = 00A2;
},
{
glyphname = sterling;
lastChange = "2019-12-18 16:23:24 +0000";
layers = (
{
hints = (
{
horizontal = 1;
place = "{-30, 52}";
type = Stem;
},
{
horizontal = 1;
place = "{160, 44}";
type = Stem;
},
{
horizontal = 1;
place = "{644, 46}";
type = Stem;
},
{
horizontal = 1;
place = "{1636, 44}";
type = Stem;
},
{
place = "{148, 914}";
type = Stem;
},
{
place = "{288, 52}";
type = Stem;
},
{
place = "{544, 38}";
type = Stem;
}
);
layerId = "74F259A6-12B3-44F5-88D4-EF03CB0B713A";
paths = (
{
closed = 1;
nodes = (
"148 690 LINE",
"148 644 LINE",
"486 644 LINE",
"518 588 OFFCURVE",
"544 528 OFFCURVE",
"544 450 CURVE SMOOTH",
"544 352 OFFCURVE",
"522 268 OFFCURVE",
"496 202 CURVE",
"344 190 OFFCURVE",
"240 94 OFFCURVE",
"218 0 CURVE",
"254 0 LINE",
"282 82 OFFCURVE",
"376 160 OFFCURVE",
"530 160 CURVE SMOOTH",
"726 160 OFFCURVE",
"830 -30 OFFCURVE",
"1092 -30 CURVE SMOOTH",
"1266 -30 OFFCURVE",
"1414 120 OFFCURVE",
"1436 278 CURVE",
"1384 304 LINE",
"1372 178 OFFCURVE",
"1268 22 OFFCURVE",
"1092 22 CURVE SMOOTH",
"862 22 OFFCURVE",
"734 204 OFFCURVE",
"536 204 CURVE",
"562 270 OFFCURVE",
"582 354 OFFCURVE",
"582 450 CURVE SMOOTH",
"582 528 OFFCURVE",
"562 588 OFFCURVE",
"534 644 CURVE",
"1062 644 LINE",
"1062 690 LINE",
"508 690 LINE",
"436 806 OFFCURVE",
"340 916 OFFCURVE",
"340 1156 CURVE SMOOTH",
"340 1422 OFFCURVE",
"530 1636 OFFCURVE",
"810 1636 CURVE SMOOTH",
"1134 1636 OFFCURVE",
"1272 1426 OFFCURVE",
"1310 1242 CURVE",
"1360 1252 LINE",
"1318 1456 OFFCURVE",
"1150 1680 OFFCURVE",
"810 1680 CURVE SMOOTH",
"512 1680 OFFCURVE",
"288 1452 OFFCURVE",
"288 1156 CURVE SMOOTH",
"288 934 OFFCURVE",
"366 820 OFFCURVE",
"456 690 CURVE"
);
}
);
width = 1522;
}
);
note = sterling;
rightKerningGroup = space;
unicode = 00A3;
},
{
glyphname = yen;
lastChange = "2019-12-18 16:23:24 +0000";
layers = (
{
hints = (
{
horizontal = 1;
place = "{0, 21}";
target = up;
type = BottomGhost;
},
{
horizontal = 1;
place = "{360, 46}";
type = Stem;
},
{
horizontal = 1;
place = "{696, 46}";
type = Stem;
},
{
horizontal = 1;
place = "{1650, -20}";
target = down;
type = TopGhost;
},
{
place = "{566, 58}";
type = Stem;
}
);
layerId = "74F259A6-12B3-44F5-88D4-EF03CB0B713A";
paths = (
{
closed = 1;
nodes = (
"18 1650 LINE",
"546 742 LINE",
"184 742 LINE",
"184 696 LINE",
"566 696 LINE",
"566 406 LINE",
"184 406 LINE",
"184 360 LINE",
"566 360 LINE",
"566 0 LINE",
"624 0 LINE",
"624 360 LINE",
"1006 360 LINE",
"1006 406 LINE",
"624 406 LINE",
"624 696 LINE",
"1006 696 LINE",
"1006 742 LINE",
"644 742 LINE",
"1172 1650 LINE",
"1104 1650 LINE",
"594 772 LINE",
"86 1650 LINE"
);
}
);
width = 1190;
}
);
note = yen;
rightKerningGroup = space;
unicode = 00A5;
},
{
glyphname = brokenbar;
lastChange = "2019-12-18 16:23:24 +0000";
layers = (
{
hints = (
{
horizontal = 1;
place = "{0, 664}";
type = Stem;
},
{
horizontal = 1;
place = "{1056, 664}";
type = Stem;
},
{
place = "{232, 56}";
type = Stem;
}
);
layerId = "74F259A6-12B3-44F5-88D4-EF03CB0B713A";
paths = (
{
closed = 1;
nodes = (
"232 1720 LINE",
"232 1056 LINE",
"288 1056 LINE",
"288 1720 LINE"
);
},
{
closed = 1;
nodes = (
"232 664 LINE",
"232 0 LINE",
"288 0 LINE",
"288 664 LINE"
);
}
);
width = 520;
}
);
note = brokenbar;
rightKerningGroup = space;
unicode = 00A6;
},
{
glyphname = section;
lastChange = "2019-12-18 16:23:24 +0000";
layers = (
{
hints = (
{
horizontal = 1;
place = "{-550, 52}";
type = Stem;
},
{
horizontal = 1;
place = "{1628, 52}";
type = Stem;
},
{
place = "{232, 50}";
type = Stem;
},
{
place = "{1094, 44}";
type = Stem;
},
{
place = "{238, 44}";
type = Stem;
}
);
layerId = "74F259A6-12B3-44F5-88D4-EF03CB0B713A";
paths = (
{
closed = 1;
nodes = (
"238 532 OFFCURVE",
"352 416 OFFCURVE",
"628 332 CURVE SMOOTH",
"948 234 OFFCURVE",
"1094 108 OFFCURVE",
"1094 -108 CURVE SMOOTH",
"1094 -362 OFFCURVE",
"898 -498 OFFCURVE",
"654 -498 CURVE SMOOTH",
"334 -498 OFFCURVE",
"200 -234 OFFCURVE",
"178 -170 CURVE",
"134 -192 LINE",
"150 -252 OFFCURVE",
"300 -550 OFFCURVE",
"654 -550 CURVE SMOOTH",
"942 -550 OFFCURVE",
"1146 -376 OFFCURVE",
"1146 -108 CURVE SMOOTH",
"1146 42 OFFCURVE",
"1084 154 OFFCURVE",
"958 242 CURVE",
"1038 274 OFFCURVE",
"1138 380 OFFCURVE",
"1138 498 CURVE SMOOTH",
"1138 682 OFFCURVE",
"988 796 OFFCURVE",
"656 898 CURVE SMOOTH",
"444 962 OFFCURVE",
"282 1060 OFFCURVE",
"282 1258 CURVE SMOOTH",
"282 1436 OFFCURVE",
"412 1628 OFFCURVE",
"654 1628 CURVE SMOOTH",
"836 1628 OFFCURVE",
"962 1518 OFFCURVE",
"1002 1416 CURVE",
"1048 1438 LINE",
"1000 1550 OFFCURVE",
"864 1680 OFFCURVE",
"654 1680 CURVE SMOOTH",
"418 1680 OFFCURVE",
"232 1504 OFFCURVE",
"232 1258 CURVE SMOOTH",
"232 1128 OFFCURVE",
"288 1026 OFFCURVE",
"410 946 CURVE",
"330 916 OFFCURVE",
"238 818 OFFCURVE",
"238 682 CURVE SMOOTH"
);
},
{
closed = 1;
nodes = (
"282 798 OFFCURVE",
"366 900 OFFCURVE",
"448 924 CURVE",
"498 898 OFFCURVE",
"558 874 OFFCURVE",
"628 852 CURVE SMOOTH",
"948 754 OFFCURVE",
"1094 658 OFFCURVE",
"1094 496 CURVE SMOOTH",
"1094 396 OFFCURVE",
"1008 294 OFFCURVE",
"920 266 CURVE",
"850 310 OFFCURVE",
"762 346 OFFCURVE",
"656 378 CURVE SMOOTH",
"444 442 OFFCURVE",
"282 520 OFFCURVE",
"282 682 CURVE SMOOTH"
);
}
);
width = 1280;
}
);
note = section;
rightKerningGroup = space;
unicode = 00A7;
},
{
glyphname = dieresis;
lastChange = "2019-12-18 16:23:24 +0000";
layers = (
{
hints = (
{
horizontal = 1;
place = "{1350, 96}";
type = Stem;
},
{
place = "{148, 96}";
type = Stem;
},
{
place = "{620, 96}";
type = Stem;
}
);
layerId = "74F259A6-12B3-44F5-88D4-EF03CB0B713A";
paths = (
{
closed = 1;
nodes = (
"170 1446 OFFCURVE",
"148 1424 OFFCURVE",
"148 1398 CURVE SMOOTH",
"148 1372 OFFCURVE",
"170 1350 OFFCURVE",
"196 1350 CURVE SMOOTH",
"222 1350 OFFCURVE",
"244 1372 OFFCURVE",
"244 1398 CURVE SMOOTH",
"244 1424 OFFCURVE",
"222 1446 OFFCURVE",
"196 1446 CURVE SMOOTH"
);
},
{
closed = 1;
nodes = (
"642 1446 OFFCURVE",
"620 1424 OFFCURVE",
"620 1398 CURVE SMOOTH",
"620 1372 OFFCURVE",
"642 1350 OFFCURVE",
"668 1350 CURVE SMOOTH",
"694 1350 OFFCURVE",
"716 1372 OFFCURVE",
"716 1398 CURVE SMOOTH",
"716 1424 OFFCURVE",
"694 1446 OFFCURVE",
"668 1446 CURVE SMOOTH"
);
}
);
width = 828;
}
);
note = dieresis;
rightKerningGroup = space;
unicode = 00A8;
},
{
glyphname = copyright;
lastChange = "2019-12-18 16:23:24 +0000";
layers = (
{
hints = (
{
horizontal = 1;
place = "{-32, 54}";
type = Stem;
},
{
horizontal = 1;
place = "{276, 52}";
type = Stem;
},
{
horizontal = 1;
place = "{1316, 50}";
type = Stem;
},
{
horizontal = 1;
place = "{1626, 54}";
type = Stem;
},
{
place = "{148, 60}";
type = Stem;
},
{
place = "{430, 52}";
type = Stem;
},
{
place = "{1750, 62}";
type = Stem;
}
);
layerId = "74F259A6-12B3-44F5-88D4-EF03CB0B713A";
paths = (
{
closed = 1;
nodes = (
"148 342 OFFCURVE",
"492 -32 OFFCURVE",
"980 -32 CURVE SMOOTH",
"1456 -32 OFFCURVE",
"1812 342 OFFCURVE",
"1812 824 CURVE SMOOTH",
"1812 1308 OFFCURVE",
"1440 1680 OFFCURVE",
"980 1680 CURVE SMOOTH",
"526 1680 OFFCURVE",
"148 1308 OFFCURVE",
"148 824 CURVE SMOOTH"
);
},
{
closed = 1;
nodes = (
"208 1276 OFFCURVE",
"560 1626 OFFCURVE",
"980 1626 CURVE SMOOTH",
"1406 1626 OFFCURVE",
"1750 1276 OFFCURVE",
"1750 824 CURVE SMOOTH",
"1750 372 OFFCURVE",
"1420 22 OFFCURVE",
"980 22 CURVE SMOOTH",
"528 22 OFFCURVE",
"208 372 OFFCURVE",
"208 824 CURVE SMOOTH"
);
},
{
closed = 1;
nodes = (
"430 502 OFFCURVE",
"668 276 OFFCURVE",
"978 276 CURVE SMOOTH",
"1112 276 OFFCURVE",
"1236 320 OFFCURVE",
"1330 396 CURVE",
"1296 434 LINE",
"1208 364 OFFCURVE",
"1098 328 OFFCURVE",
"978 328 CURVE SMOOTH",
"690 328 OFFCURVE",
"482 536 OFFCURVE",
"482 822 CURVE SMOOTH",
"482 1108 OFFCURVE",
"690 1316 OFFCURVE",
"978 1316 CURVE SMOOTH",
"1098 1316 OFFCURVE",
"1208 1278 OFFCURVE",
"1296 1208 CURVE",
"1330 1246 LINE",
"1236 1322 OFFCURVE",
"1114 1366 OFFCURVE",
"978 1366 CURVE SMOOTH",
"668 1366 OFFCURVE",
"430 1142 OFFCURVE",
"430 822 CURVE SMOOTH"
);
}
);
width = 1960;
}
);
note = copyright;
rightKerningGroup = space;
unicode = 00A9;
},
{
glyphname = ordfeminine;
lastChange = "2019-12-18 16:23:24 +0000";
layers = (
{
hints = (
{
horizontal = 1;
place = "{1008, 30}";
type = Stem;
},
{
horizontal = 1;
place = "{1660, -20}";
target = down;
type = TopGhost;
},
{
place = "{112, 34}";
type = Stem;
},
{
place = "{712, 34}";
type = Stem;
},
{
horizontal = 1;
place = "{1028, -20}";
target = down;
type = TopGhost;
},
{
horizontal = 1;
place = "{1650, 30}";
type = Stem;
}
);
layerId = "74F259A6-12B3-44F5-88D4-EF03CB0B713A";
paths = (
{
closed = 1;
nodes = (
"112 1146 OFFCURVE",
"250 1008 OFFCURVE",
"430 1008 CURVE SMOOTH",
"556 1008 OFFCURVE",
"662 1078 OFFCURVE",
"712 1190 CURVE",
"712 1028 LINE",
"746 1028 LINE",
"746 1660 LINE",
"712 1660 LINE",
"712 1498 LINE",
"662 1610 OFFCURVE",
"556 1680 OFFCURVE",
"430 1680 CURVE SMOOTH",
"250 1680 OFFCURVE",
"112 1540 OFFCURVE",
"112 1344 CURVE SMOOTH"
);
},
{
closed = 1;
nodes = (
"146 1522 OFFCURVE",
"266 1650 OFFCURVE",
"430 1650 CURVE SMOOTH",
"594 1650 OFFCURVE",
"712 1522 OFFCURVE",
"712 1344 CURVE SMOOTH",
"712 1168 OFFCURVE",
"594 1038 OFFCURVE",
"430 1038 CURVE SMOOTH",
"266 1038 OFFCURVE",
"146 1168 OFFCURVE",
"146 1344 CURVE SMOOTH"
);
}
);
width = 884;
}
);
note = ordfeminine;
rightKerningGroup = space;
unicode = 00AA;
},
{
glyphname = guillemotleft;
lastChange = "2019-12-18 16:23:24 +0000";
layers = (
{
hints = (
{
horizontal = 1;
place = "{56, 21}";
target = up;
type = BottomGhost;
},
{
horizontal = 1;
place = "{1056, -20}";
target = down;
type = TopGhost;
},
{
place = "{20, 936}";
type = Stem;
}
);
layerId = "74F259A6-12B3-44F5-88D4-EF03CB0B713A";
paths = (
{
closed = 1;
nodes = (
"410 1056 LINE",
"20 556 LINE",
"410 56 LINE",
"456 92 LINE",
"94 556 LINE",
"456 1020 LINE"
);
},
{
closed = 1;
nodes = (
"910 1056 LINE",
"520 556 LINE",
"910 56 LINE",
"956 92 LINE",
"594 556 LINE",
"956 1020 LINE"
);
}
);
width = 1000;
}
);
note = guillemotleft;
rightKerningGroup = space;
unicode = 00AB;
},
{
glyphname = registered;
lastChange = "2019-12-18 16:23:24 +0000";
layers = (
{
hints = (
{
horizontal = 1;
place = "{784, 28}";
type = Stem;
},
{
horizontal = 1;
place = "{1198, 20}";
type = Stem;
},
{
horizontal = 1;
place = "{1524, 18}";
type = Stem;
},
{
horizontal = 1;
place = "{1652, 28}";
type = Stem;
},
{
place = "{72, 28}";
type = Stem;
},
{
place = "{384, 22}";
type = Stem;
},
{
place = "{940, 28}";
type = Stem;
}
);
layerId = "74F259A6-12B3-44F5-88D4-EF03CB0B713A";
paths = (
{
closed = 1;
nodes = (
"72 984 OFFCURVE",
"274 784 OFFCURVE",
"518 784 CURVE SMOOTH",
"768 784 OFFCURVE",
"968 984 OFFCURVE",
"968 1230 CURVE SMOOTH",
"968 1478 OFFCURVE",
"768 1680 OFFCURVE",
"518 1680 CURVE SMOOTH",
"274 1680 OFFCURVE",
"72 1478 OFFCURVE",
"72 1230 CURVE SMOOTH"
);
},
{
closed = 1;
nodes = (
"100 1462 OFFCURVE",
"288 1652 OFFCURVE",
"518 1652 CURVE SMOOTH",
"750 1652 OFFCURVE",
"940 1462 OFFCURVE",
"940 1230 CURVE SMOOTH",
"940 1000 OFFCURVE",
"750 812 OFFCURVE",
"518 812 CURVE SMOOTH",
"288 812 OFFCURVE",
"100 1000 OFFCURVE",
"100 1230 CURVE SMOOTH"
);
},
{
closed = 1;
nodes = (
"384 1542 LINE",
"384 920 LINE",
"406 920 LINE",
"406 1198 LINE",
"462 1198 LINE",
"672 920 LINE",
"698 920 LINE",
"488 1198 LINE",
"604 1202 OFFCURVE",
"672 1276 OFFCURVE",
"672 1374 CURVE SMOOTH",
"672 1476 OFFCURVE",
"602 1542 OFFCURVE",
"480 1542 CURVE SMOOTH"
);
},
{
closed = 1;
nodes = (
"406 1524 LINE",
"480 1524 LINE SMOOTH",
"588 1524 OFFCURVE",
"652 1464 OFFCURVE",
"652 1374 CURVE SMOOTH",
"652 1284 OFFCURVE",
"588 1218 OFFCURVE",
"480 1218 CURVE SMOOTH",
"406 1218 LINE"
);
}
);
width = 1040;
}
);
note = registered;
rightKerningGroup = space;
unicode = 00AE;
},
{
glyphname = macron;
lastChange = "2019-12-18 16:23:24 +0000";
layers = (
{
hints = (
{
horizontal = 1;
place = "{1366, 46}";
type = Stem;
},
{
place = "{140, 816}";
type = Stem;
}
);
layerId = "74F259A6-12B3-44F5-88D4-EF03CB0B713A";
paths = (
{
closed = 1;
nodes = (
"140 1412 LINE",
"140 1366 LINE",
"956 1366 LINE",
"956 1412 LINE"
);
}
);
width = 1096;
}
);
note = macron;
rightKerningGroup = space;
unicode = 00AF;
},
{
glyphname = degree;
lastChange = "2019-12-18 16:23:24 +0000";
layers = (
{
hints = (
{
horizontal = 1;
place = "{1338, 48}";
type = Stem;
},
{
horizontal = 1;
place = "{1702, 48}";
type = Stem;
},
{
place = "{62, 48}";
type = Stem;
},
{
place = "{420, 48}";
type = Stem;
}
);
layerId = "74F259A6-12B3-44F5-88D4-EF03CB0B713A";
paths = (
{
closed = 1;
nodes = (
"62 1424 OFFCURVE",
"144 1338 OFFCURVE",
"264 1338 CURVE SMOOTH",
"384 1338 OFFCURVE",
"468 1424 OFFCURVE",
"468 1544 CURVE SMOOTH",
"468 1666 OFFCURVE",
"378 1750 OFFCURVE",
"264 1750 CURVE SMOOTH",
"152 1750 OFFCURVE",
"62 1666 OFFCURVE",
"62 1544 CURVE SMOOTH"
);
},
{
closed = 1;
nodes = (
"110 1636 OFFCURVE",
"176 1702 OFFCURVE",
"264 1702 CURVE SMOOTH",
"354 1702 OFFCURVE",
"420 1636 OFFCURVE",
"420 1544 CURVE SMOOTH",
"420 1450 OFFCURVE",
"358 1386 OFFCURVE",
"264 1386 CURVE SMOOTH",
"172 1386 OFFCURVE",
"110 1450 OFFCURVE",
"110 1544 CURVE SMOOTH"
);
}
);
width = 530;
}
);
note = degree;
rightKerningGroup = space;
unicode = 00B0;
},
{
glyphname = onesuperior;
lastChange = "2019-12-18 16:23:24 +0000";
layers = (
{
hints = (
{
horizontal = 1;
place = "{1026, 21}";
target = up;
type = BottomGhost;
},
{
horizontal = 1;
place = "{1628, 22}";
type = Stem;
},
{
place = "{110, 20}";
type = Stem;
}
);
layerId = "74F259A6-12B3-44F5-88D4-EF03CB0B713A";
paths = (
{
closed = 1;
nodes = (
"70 1650 LINE",
"70 1628 LINE",
"110 1628 LINE",
"110 1026 LINE",
"130 1026 LINE",
"130 1650 LINE"
);
}
);
width = 222;
}
);
note = onesuperior;
rightKerningGroup = space;
unicode = 00B9;
},
{
glyphname = twosuperior;
lastChange = "2019-12-18 16:23:24 +0000";
layers = (
{
hints = (
{
horizontal = 1;
place = "{1026, 20}";
type = Stem;
},
{
horizontal = 1;
place = "{1656, 24}";
type = Stem;
},
{
place = "{72, 24}";
type = Stem;
},
{
place = "{460, 24}";
type = Stem;
}
);
layerId = "74F259A6-12B3-44F5-88D4-EF03CB0B713A";
paths = (
{
closed = 1;
nodes = (
"96 1474 LINE",
"96 1574 OFFCURVE",
"178 1656 OFFCURVE",
"278 1656 CURVE SMOOTH",
"378 1656 OFFCURVE",
"460 1574 OFFCURVE",
"460 1474 CURVE SMOOTH",
"460 1330 OFFCURVE",
"246 1180 OFFCURVE",
"60 1032 CURVE",
"60 1026 LINE",
"496 1026 LINE",
"496 1046 LINE",
"114 1046 LINE",
"238 1140 OFFCURVE",
"484 1302 OFFCURVE",
"484 1474 CURVE SMOOTH",
"484 1588 OFFCURVE",
"392 1680 OFFCURVE",
"278 1680 CURVE SMOOTH",
"164 1680 OFFCURVE",
"72 1588 OFFCURVE",
"72 1474 CURVE"
);
}
);
width = 556;
}
);
note = twosuperior;
rightKerningGroup = space;
unicode = 00B2;
},
{
glyphname = threesuperior;
lastChange = "2019-12-18 16:23:24 +0000";
layers = (
{
hints = (
{
horizontal = 1;
place = "{1026, 24}";
type = Stem;
},
{
horizontal = 1;
place = "{1348, 20}";
type = Stem;
},
{
horizontal = 1;
place = "{1658, 22}";
type = Stem;
},
{
place = "{60, 22}";
type = Stem;
},
{
place = "{96, 22}";
type = Stem;
},
{
place = "{398, 24}";
type = Stem;
},
{
place = "{402, 24}";
type = Stem;
}
);
layerId = "74F259A6-12B3-44F5-88D4-EF03CB0B713A";
paths = (
{
closed = 1;
nodes = (
"118 1518 LINE",
"118 1596 OFFCURVE",
"180 1658 OFFCURVE",
"258 1658 CURVE SMOOTH",
"336 1658 OFFCURVE",
"398 1596 OFFCURVE",
"398 1518 CURVE SMOOTH",
"398 1432 OFFCURVE",
"330 1368 OFFCURVE",
"246 1368 CURVE SMOOTH",
"228 1368 LINE",
"228 1346 LINE",
"228 1346 OFFCURVE",
"236 1348 OFFCURVE",
"248 1348 CURVE SMOOTH",
"330 1348 OFFCURVE",
"402 1280 OFFCURVE",
"402 1194 CURVE SMOOTH",
"402 1114 OFFCURVE",
"350 1050 OFFCURVE",
"248 1050 CURVE SMOOTH",
"144 1050 OFFCURVE",
"82 1112 OFFCURVE",
"82 1192 CURVE",
"60 1192 LINE",
"60 1100 OFFCURVE",
"130 1026 OFFCURVE",
"248 1026 CURVE SMOOTH",
"366 1026 OFFCURVE",
"426 1100 OFFCURVE",
"426 1194 CURVE SMOOTH",
"426 1270 OFFCURVE",
"380 1340 OFFCURVE",
"306 1358 CURVE",
"372 1378 OFFCURVE",
"422 1444 OFFCURVE",
"422 1516 CURVE SMOOTH",
"422 1606 OFFCURVE",
"348 1680 OFFCURVE",
"258 1680 CURVE SMOOTH",
"168 1680 OFFCURVE",
"96 1612 OFFCURVE",
"96 1518 CURVE"
);
}
);
width = 486;
}
);
note = threesuperior;
rightKerningGroup = space;
unicode = 00B3;
},
{
glyphname = acute;
lastChange = "2019-12-18 16:23:24 +0000";
layers = (
{
hints = (
{
horizontal = 1;
place = "{1468, 21}";
target = up;
type = BottomGhost;
},
{
horizontal = 1;
place = "{1680, -20}";
target = down;
type = TopGhost;
},
{
place = "{116, 268}";
type = Stem;
}
);
layerId = "74F259A6-12B3-44F5-88D4-EF03CB0B713A";
paths = (
{
closed = 1;
nodes = (
"342 1680 LINE",
"116 1510 LINE",
"146 1468 LINE",
"384 1618 LINE"
);
}
);
width = 500;
}
);
note = acute;
rightKerningGroup = space;
unicode = 00B4;
},
{
glyphname = mu;
lastChange = "2019-12-18 16:23:24 +0000";
layers = (
{
hints = (
{
horizontal = 1;
place = "{-320, 21}";
target = up;
type = BottomGhost;
},
{
horizontal = 1;
place = "{-32, 50}";
type = Stem;
},
{
horizontal = 1;
place = "{1026, -20}";
target = down;
type = TopGhost;
},
{
place = "{236, 56}";
type = Stem;
},
{
place = "{956, 56}";
type = Stem;
}
);
layerId = "74F259A6-12B3-44F5-88D4-EF03CB0B713A";
paths = (
{
closed = 1;
nodes = (
"236 1026 LINE",
"236 446 LINE SMOOTH",
"236 164 OFFCURVE",
"206 36 OFFCURVE",
"206 -320 CURVE",
"292 -320 LINE",
"292 132 LINE",
"350 30 OFFCURVE",
"456 -32 OFFCURVE",
"628 -32 CURVE SMOOTH",
"742 -32 OFFCURVE",
"902 22 OFFCURVE",
"956 154 CURVE",
"956 0 LINE",
"1012 0 LINE",
"1012 1026 LINE",
"956 1026 LINE",
"956 322 LINE SMOOTH",
"956 176 OFFCURVE",
"836 18 OFFCURVE",
"628 18 CURVE SMOOTH",
"396 18 OFFCURVE",
"292 158 OFFCURVE",
"292 402 CURVE SMOOTH",
"292 1026 LINE"
);
}
);
width = 1234;
}
);
note = mu;
unicode = 00B5;
},
{
glyphname = paragraph;
lastChange = "2019-12-18 16:23:24 +0000";
layers = (
{
hints = (
{
horizontal = 1;
place = "{1602, 48}";
type = Stem;
},
{
place = "{850, 56}";
type = Stem;
},
{
place = "{956, 56}";
type = Stem;
}
);
layerId = "74F259A6-12B3-44F5-88D4-EF03CB0B713A";
paths = (
{
closed = 1;
nodes = (
"148 934 OFFCURVE",
"334 736 OFFCURVE",
"656 736 CURVE SMOOTH",
"850 736 LINE",
"850 0 LINE",
"906 0 LINE",
"906 1602 LINE",
"956 1602 LINE",
"956 0 LINE",
"1012 0 LINE",
"1012 1650 LINE",
"656 1650 LINE SMOOTH",
"334 1650 OFFCURVE",
"148 1472 OFFCURVE",
"148 1202 CURVE SMOOTH"
);
}
);
width = 1244;
}
);
note = paragraph;
rightKerningGroup = space;
unicode = 00B6;
},
{
glyphname = periodcentered;
lastChange = "2019-12-18 16:23:24 +0000";
layers = (
{
hints = (
{
horizontal = 1;
place = "{490, 96}";
type = Stem;
},
{
place = "{112, 96}";
type = Stem;
}
);
layerId = "74F259A6-12B3-44F5-88D4-EF03CB0B713A";
paths = (
{
closed = 1;
nodes = (
"134 586 OFFCURVE",
"112 564 OFFCURVE",
"112 538 CURVE SMOOTH",
"112 512 OFFCURVE",
"134 490 OFFCURVE",
"160 490 CURVE SMOOTH",
"186 490 OFFCURVE",
"208 512 OFFCURVE",
"208 538 CURVE SMOOTH",
"208 564 OFFCURVE",
"186 586 OFFCURVE",
"160 586 CURVE SMOOTH"
);
}
);
width = 320;
}
);
note = periodcentered;
rightKerningGroup = space;
unicode = 00B7;
},
{
glyphname = cedilla;
lastChange = "2019-12-18 16:23:24 +0000";
layers = (
{
hints = (
{
horizontal = 1;
place = "{-588, 52}";
type = Stem;
},
{
horizontal = 1;
place = "{-214, 52}";
type = Stem;
},
{
horizontal = 1;
place = "{44, -20}";
target = down;
type = TopGhost;
},
{
place = "{612, 52}";
type = Stem;
}
);
layerId = "74F259A6-12B3-44F5-88D4-EF03CB0B713A";
paths = (
{
closed = 1;
nodes = (
"388 44 LINE",
"290 -258 LINE",
"294 -260 LINE",
"346 -228 OFFCURVE",
"418 -214 OFFCURVE",
"454 -214 CURVE SMOOTH",
"548 -214 OFFCURVE",
"612 -280 OFFCURVE",
"612 -378 CURVE SMOOTH",
"612 -488 OFFCURVE",
"514 -536 OFFCURVE",
"422 -536 CURVE SMOOTH",
"324 -536 OFFCURVE",
"250 -494 OFFCURVE",
"208 -418 CURVE",
"164 -442 LINE",
"212 -536 OFFCURVE",
"304 -588 OFFCURVE",
"422 -588 CURVE SMOOTH",
"562 -588 OFFCURVE",
"664 -500 OFFCURVE",
"664 -378 CURVE SMOOTH",
"664 -252 OFFCURVE",
"578 -162 OFFCURVE",
"454 -162 CURVE SMOOTH",
"426 -162 OFFCURVE",
"398 -168 OFFCURVE",
"372 -174 CURVE",
"438 28 LINE"
);
}
);
width = 776;
}
);
note = cedilla;
rightKerningGroup = space;
unicode = 00B8;
},
{
glyphname = ordmasculine;
lastChange = "2019-12-18 16:23:24 +0000";
layers = (
{
hints = (
{
horizontal = 1;
place = "{1008, 32}";
type = Stem;
},
{
horizontal = 1;
place = "{1648, 32}";
type = Stem;
},
{
place = "{108, 32}";
type = Stem;
},
{
place = "{752, 32}";
type = Stem;
}
);
layerId = "74F259A6-12B3-44F5-88D4-EF03CB0B713A";
paths = (
{
closed = 1;
nodes = (
"108 1146 OFFCURVE",
"254 1008 OFFCURVE",
"446 1008 CURVE SMOOTH",
"636 1008 OFFCURVE",
"784 1146 OFFCURVE",
"784 1344 CURVE SMOOTH",
"784 1544 OFFCURVE",
"636 1680 OFFCURVE",
"446 1680 CURVE SMOOTH",
"254 1680 OFFCURVE",
"108 1544 OFFCURVE",
"108 1344 CURVE SMOOTH"
);
},
{
closed = 1;
nodes = (
"140 1520 OFFCURVE",
"268 1648 OFFCURVE",
"446 1648 CURVE SMOOTH",
"622 1648 OFFCURVE",
"752 1520 OFFCURVE",
"752 1344 CURVE SMOOTH",
"752 1168 OFFCURVE",
"622 1040 OFFCURVE",
"446 1040 CURVE SMOOTH",
"268 1040 OFFCURVE",
"140 1168 OFFCURVE",
"140 1344 CURVE SMOOTH"
);
}
);
width = 886;
}
);
note = ordmasculine;
rightKerningGroup = space;
unicode = 00BA;
},
{
glyphname = guillemotright;
lastChange = "2019-12-18 16:23:24 +0000";
layers = (
{
hints = (
{
horizontal = 1;
place = "{56, 21}";
target = up;
type = BottomGhost;
},
{
horizontal = 1;
place = "{1056, -20}";
target = down;
type = TopGhost;
},
{
place = "{44, 936}";
type = Stem;
}
);
layerId = "74F259A6-12B3-44F5-88D4-EF03CB0B713A";
paths = (
{
closed = 1;
nodes = (
"544 1020 LINE",
"906 556 LINE",
"544 92 LINE",
"590 56 LINE",
"980 556 LINE",
"590 1056 LINE"
);
},
{
closed = 1;
nodes = (
"44 1020 LINE",
"406 556 LINE",
"44 92 LINE",
"90 56 LINE",
"480 556 LINE",
"90 1056 LINE"
);
}
);
width = 1000;
}
);
note = guillemotright;
rightKerningGroup = space;
unicode = 00BB;
},
{
glyphname = onequarter;
lastChange = "2019-12-18 16:23:24 +0000";
layers = (
{
hints = (
{
horizontal = 1;
place = "{0, 21}";
target = up;
type = BottomGhost;
},
{
horizontal = 1;
place = "{364, 28}";
type = Stem;
},
{
horizontal = 1;
place = "{692, 21}";
target = up;
type = BottomGhost;
},
{
horizontal = 1;
place = "{1618, 32}";
type = Stem;
},
{
place = "{198, 34}";
type = Stem;
},
{
place = "{1122, 32}";
type = Stem;
}
);
layerId = "74F259A6-12B3-44F5-88D4-EF03CB0B713A";
paths = (
{
closed = 1;
nodes = (
"674 364 LINE",
"1122 364 LINE",
"1122 0 LINE",
"1154 0 LINE",
"1154 364 LINE",
"1266 364 LINE",
"1266 392 LINE",
"1154 392 LINE",
"1154 958 LINE",
"1122 958 LINE",
"674 392 LINE"
);
},
{
closed = 1;
nodes = (
"712 392 LINE",
"1122 910 LINE",
"1122 392 LINE"
);
},
{
closed = 1;
nodes = (
"118 4 LINE",
"1076 1650 LINE",
"1028 1650 LINE",
"70 4 LINE"
);
},
{
closed = 1;
nodes = (
"138 1650 LINE",
"138 1618 LINE",
"198 1618 LINE",
"198 692 LINE",
"232 692 LINE",
"232 1650 LINE"
);
}
);
width = 1354;
}
);
note = onequarter;
rightKerningGroup = space;
unicode = 00BC;
},
{
glyphname = onehalf;
lastChange = "2019-12-18 16:23:24 +0000";
layers = (
{
hints = (
{
horizontal = 1;
place = "{0, 21}";
target = up;
type = BottomGhost;
},
{
horizontal = 1;
place = "{690, 21}";
target = up;
type = BottomGhost;
},
{
horizontal = 1;
place = "{928, 36}";
type = Stem;
},
{
horizontal = 1;
place = "{1650, -20}";
target = down;
type = TopGhost;
},
{
place = "{198, 34}";
type = Stem;
},
{
place = "{916, 36}";
type = Stem;
},
{
place = "{1490, 34}";
type = Stem;
},
{
horizontal = 1;
place = "{0, 28}";
type = Stem;
},
{
horizontal = 1;
place = "{1618, 32}";
type = Stem;
}
);
layerId = "74F259A6-12B3-44F5-88D4-EF03CB0B713A";
paths = (
{
closed = 1;
nodes = (
"952 660 LINE",
"952 808 OFFCURVE",
"1072 928 OFFCURVE",
"1220 928 CURVE SMOOTH",
"1368 928 OFFCURVE",
"1490 808 OFFCURVE",
"1490 660 CURVE SMOOTH",
"1490 448 OFFCURVE",
"1174 228 OFFCURVE",
"898 10 CURVE",
"898 0 LINE",
"1542 0 LINE",
"1542 28 LINE",
"980 28 LINE",
"1356 320 OFFCURVE",
"1524 480 OFFCURVE",
"1524 660 CURVE SMOOTH",
"1524 828 OFFCURVE",
"1388 964 OFFCURVE",
"1220 964 CURVE SMOOTH",
"1052 964 OFFCURVE",
"916 828 OFFCURVE",
"916 660 CURVE"
);
},
{
closed = 1;
nodes = (
"118 0 LINE",
"1078 1650 LINE",
"1030 1650 LINE",
"70 0 LINE"
);
},
{
closed = 1;
nodes = (
"138 1650 LINE",
"138 1618 LINE",
"198 1618 LINE",
"198 690 LINE",
"232 690 LINE",
"232 1650 LINE"
);
}
);
width = 1784;
}
);
note = onehalf;
rightKerningGroup = space;
unicode = 00BD;
},
{
glyphname = threequarters;
lastChange = "2019-12-18 16:23:24 +0000";
layers = (
{
hints = (
{
horizontal = 1;
place = "{364, 28}";
type = Stem;
},
{
horizontal = 1;
place = "{686, 34}";
type = Stem;
},
{
horizontal = 1;
place = "{1164, 30}";
type = Stem;
},
{
horizontal = 1;
place = "{1624, 32}";
type = Stem;
},
{
place = "{72, 34}";
type = Stem;
},
{
place = "{126, 32}";
type = Stem;
},
{
place = "{576, 34}";
type = Stem;
},
{
place = "{1502, 32}";
type = Stem;
},
{
place = "{580, 36}";
type = Stem;
}
);
layerId = "74F259A6-12B3-44F5-88D4-EF03CB0B713A";
paths = (
{
closed = 1;
nodes = (
"158 1416 LINE",
"158 1530 OFFCURVE",
"252 1624 OFFCURVE",
"366 1624 CURVE SMOOTH",
"482 1624 OFFCURVE",
"576 1530 OFFCURVE",
"576 1416 CURVE SMOOTH",
"576 1290 OFFCURVE",
"474 1194 OFFCURVE",
"348 1194 CURVE SMOOTH",
"322 1194 LINE",
"322 1162 LINE",
"322 1162 OFFCURVE",
"336 1164 OFFCURVE",
"354 1164 CURVE SMOOTH",
"474 1164 OFFCURVE",
"580 1062 OFFCURVE",
"580 934 CURVE SMOOTH",
"580 816 OFFCURVE",
"504 720 OFFCURVE",
"350 720 CURVE SMOOTH",
"198 720 OFFCURVE",
"106 816 OFFCURVE",
"106 934 CURVE",
"72 934 LINE",
"72 796 OFFCURVE",
"176 686 OFFCURVE",
"352 686 CURVE SMOOTH",
"528 686 OFFCURVE",
"616 798 OFFCURVE",
"616 934 CURVE SMOOTH",
"616 1048 OFFCURVE",
"546 1152 OFFCURVE",
"436 1178 CURVE",
"536 1208 OFFCURVE",
"610 1304 OFFCURVE",
"610 1414 CURVE SMOOTH",
"610 1548 OFFCURVE",
"502 1656 OFFCURVE",
"368 1656 CURVE SMOOTH",
"234 1656 OFFCURVE",
"126 1554 OFFCURVE",
"126 1416 CURVE"
);
},
{
closed = 1;
nodes = (
"1054 364 LINE",
"1502 364 LINE",
"1502 0 LINE",
"1534 0 LINE",
"1534 364 LINE",
"1646 364 LINE",
"1646 392 LINE",
"1534 392 LINE",
"1534 956 LINE",
"1502 956 LINE",
"1054 392 LINE"
);
},
{
closed = 1;
nodes = (
"1092 392 LINE",
"1502 910 LINE",
"1502 392 LINE"
);
},
{
closed = 1;
nodes = (
"498 4 LINE",
"1454 1650 LINE",
"1406 1650 LINE",
"450 4 LINE"
);
}
);
width = 1734;
}
);
note = threequarters;
rightKerningGroup = space;
unicode = 00BE;
},
{
glyphname = questiondown;
lastChange = "2019-12-18 16:23:24 +0000";
layers = (
{
hints = (
{
horizontal = 1;
place = "{-550, 56}";
type = Stem;
},
{
horizontal = 1;
place = "{390, 50}";
type = Stem;
},
{
horizontal = 1;
place = "{1066, 96}";
type = Stem;
},
{
place = "{106, 56}";
type = Stem;
},
{
place = "{618, 50}";
type = Stem;
},
{
place = "{1022, 56}";
type = Stem;
},
{
place = "{596, 96}";
type = Stem;
}
);
layerId = "74F259A6-12B3-44F5-88D4-EF03CB0B713A";
paths = (
{
closed = 1;
nodes = (
"1022 -54 LINE",
"1022 -322 OFFCURVE",
"854 -494 OFFCURVE",
"594 -494 CURVE SMOOTH",
"338 -494 OFFCURVE",
"162 -328 OFFCURVE",
"162 -62 CURVE SMOOTH",
"162 200 OFFCURVE",
"328 390 OFFCURVE",
"620 390 CURVE SMOOTH",
"638 390 OFFCURVE",
"656 388 OFFCURVE",
"668 386 CURVE",
"668 760 LINE",
"618 760 LINE",
"618 440 LINE",
"284 440 OFFCURVE",
"106 202 OFFCURVE",
"106 -62 CURVE SMOOTH",
"106 -328 OFFCURVE",
"306 -550 OFFCURVE",
"594 -550 CURVE SMOOTH",
"888 -550 OFFCURVE",
"1078 -354 OFFCURVE",
"1078 -54 CURVE"
);
},
{
closed = 1;
nodes = (
"670 1066 OFFCURVE",
"692 1088 OFFCURVE",
"692 1114 CURVE SMOOTH",
"692 1140 OFFCURVE",
"670 1162 OFFCURVE",
"644 1162 CURVE SMOOTH",
"618 1162 OFFCURVE",
"596 1140 OFFCURVE",
"596 1114 CURVE SMOOTH",
"596 1088 OFFCURVE",
"618 1066 OFFCURVE",
"644 1066 CURVE SMOOTH"
);
}
);
width = 1150;
}
);
note = questiondown;
rightKerningGroup = space;
unicode = 00BF;
},
{
glyphname = Agrave;
lastChange = "2019-12-18 16:23:24 +0000";
layers = (
{
hints = (
{
horizontal = 1;
place = "{0, 21}";
target = up;
type = BottomGhost;
},
{
horizontal = 1;
place = "{610, 50}";
type = Stem;
},
{
horizontal = 1;
place = "{1650, -20}";
target = down;
type = TopGhost;
},
{
horizontal = 1;
place = "{1798, 21}";
target = up;
type = BottomGhost;
},
{
horizontal = 1;
place = "{2010, -20}";
target = down;
type = TopGhost;
},
{
place = "{432, 266}";
type = Stem;
},
{
place = "{0, 1336}";
type = Stem;
}
);
layerId = "74F259A6-12B3-44F5-88D4-EF03CB0B713A";
paths = (
{
closed = 1;
nodes = (
"432 1948 LINE",
"668 1798 LINE",
"698 1840 LINE",
"474 2010 LINE"
);
},
{
closed = 1;
nodes = (
"642 1650 LINE",
"0 0 LINE",
"60 0 LINE",
"296 610 LINE",
"1040 610 LINE",
"1276 0 LINE",
"1336 0 LINE",
"694 1650 LINE"
);
},
{
closed = 1;
nodes = (
"668 1582 LINE",
"1022 660 LINE",
"314 660 LINE"
);
}
);
width = 1336;
}
);
leftKerningGroup = A;
note = Agrave;
rightKerningGroup = space;
unicode = 00C0;
},
{
glyphname = Aacute;
lastChange = "2019-12-18 16:23:24 +0000";
layers = (
{
hints = (
{
horizontal = 1;
place = "{6, 21}";
target = up;
type = BottomGhost;
},
{
horizontal = 1;
place = "{616, 50}";
type = Stem;
},
{
horizontal = 1;
place = "{1656, -20}";
target = down;
type = TopGhost;
},
{
place = "{0, 1336}";
type = Stem;
},
{
horizontal = 1;
place = "{1800, 21}";
target = up;
type = BottomGhost;
},
{
horizontal = 1;
place = "{2012, -20}";
target = down;
type = TopGhost;
},
{
place = "{638, 268}";
type = Stem;
}
);
layerId = "74F259A6-12B3-44F5-88D4-EF03CB0B713A";
paths = (
{
closed = 1;
nodes = (
"642 1656 LINE",
"0 6 LINE",
"60 6 LINE",
"296 616 LINE",
"1040 616 LINE",
"1276 6 LINE",
"1336 6 LINE",
"694 1656 LINE"
);
},
{
closed = 1;
nodes = (
"668 1588 LINE",
"1022 666 LINE",
"314 666 LINE"
);
},
{
closed = 1;
nodes = (
"864 2012 LINE",
"638 1842 LINE",
"668 1800 LINE",
"906 1950 LINE"
);
}
);
width = 1336;
}
);
leftKerningGroup = A;
note = Aacute;
rightKerningGroup = space;
unicode = 00C1;
},
{
glyphname = Acircumflex;
lastChange = "2019-12-18 16:23:24 +0000";
layers = (
{
hints = (
{
horizontal = 1;
place = "{0, 21}";
target = up;
type = BottomGhost;
},
{
horizontal = 1;
place = "{610, 50}";
type = Stem;
},
{
horizontal = 1;
place = "{1650, -20}";
target = down;
type = TopGhost;
},
{
horizontal = 1;
place = "{2086, -20}";
target = down;
type = TopGhost;
},
{
place = "{332, 672}";
type = Stem;
},
{
place = "{0, 1336}";
type = Stem;
}
);
layerId = "74F259A6-12B3-44F5-88D4-EF03CB0B713A";
paths = (
{
closed = 1;
nodes = (
"332 1840 LINE",
"362 1798 LINE",
"668 2022 LINE",
"974 1798 LINE",
"1004 1840 LINE",
"668 2086 LINE"
);
},
{
closed = 1;
nodes = (
"642 1650 LINE",
"0 0 LINE",
"60 0 LINE",
"296 610 LINE",
"1040 610 LINE",
"1276 0 LINE",
"1336 0 LINE",
"694 1650 LINE"
);
},
{
closed = 1;
nodes = (
"668 1582 LINE",
"1022 660 LINE",
"314 660 LINE"
);
}
);
width = 1336;
}
);
leftKerningGroup = A;
note = Acircumflex;
rightKerningGroup = space;
unicode = 00C2;
},
{
glyphname = Atilde;
lastChange = "2019-12-18 16:23:24 +0000";
layers = (
{
hints = (
{
horizontal = 1;
place = "{0, 21}";
target = up;
type = BottomGhost;
},
{
horizontal = 1;
place = "{610, 50}";
type = Stem;
},
{
horizontal = 1;
place = "{1650, -20}";
target = down;
type = TopGhost;
},
{
horizontal = 1;
place = "{1976, 50}";
type = Stem;
},
{
horizontal = 1;
place = "{2136, 50}";
type = Stem;
},
{
place = "{190, 956}";
type = Stem;
},
{
place = "{0, 1336}";
type = Stem;
}
);
layerId = "74F259A6-12B3-44F5-88D4-EF03CB0B713A";
paths = (
{
closed = 1;
nodes = (
"228 1980 LINE",
"276 2064 OFFCURVE",
"356 2136 OFFCURVE",
"466 2136 CURVE SMOOTH",
"506 2136 OFFCURVE",
"574 2126 OFFCURVE",
"652 2062 CURVE SMOOTH",
"744 1988 OFFCURVE",
"822 1976 OFFCURVE",
"870 1976 CURVE SMOOTH",
"998 1976 OFFCURVE",
"1092 2056 OFFCURVE",
"1146 2148 CURVE",
"1108 2182 LINE",
"1060 2098 OFFCURVE",
"980 2026 OFFCURVE",
"870 2026 CURVE SMOOTH",
"830 2026 OFFCURVE",
"762 2036 OFFCURVE",
"684 2100 CURVE SMOOTH",
"592 2174 OFFCURVE",
"514 2186 OFFCURVE",
"466 2186 CURVE SMOOTH",
"338 2186 OFFCURVE",
"244 2106 OFFCURVE",
"190 2014 CURVE"
);
},
{
closed = 1;
nodes = (
"642 1650 LINE",
"0 0 LINE",
"60 0 LINE",
"296 610 LINE",
"1040 610 LINE",
"1276 0 LINE",
"1336 0 LINE",
"694 1650 LINE"
);
},
{
closed = 1;
nodes = (
"668 1582 LINE",
"1022 660 LINE",
"314 660 LINE"
);
}
);
width = 1336;
}
);
leftKerningGroup = A;
note = Atilde;
rightKerningGroup = space;
unicode = 00C3;
},
{
glyphname = Adieresis;
lastChange = "2019-12-18 16:23:24 +0000";
layers = (
{
hints = (
{
horizontal = 1;
place = "{1974, 96}";
type = Stem;
},
{
place = "{384, 96}";
type = Stem;
},
{
place = "{856, 96}";
type = Stem;
},
{
horizontal = 1;
place = "{0, 21}";
target = up;
type = BottomGhost;
},
{
horizontal = 1;
place = "{610, 50}";
type = Stem;
},
{
horizontal = 1;
place = "{1650, -20}";
target = down;
type = TopGhost;
},
{
place = "{0, 1336}";
type = Stem;
}
);
layerId = "74F259A6-12B3-44F5-88D4-EF03CB0B713A";
paths = (
{
closed = 1;
nodes = (
"406 2070 OFFCURVE",
"384 2048 OFFCURVE",
"384 2022 CURVE SMOOTH",
"384 1996 OFFCURVE",
"406 1974 OFFCURVE",
"432 1974 CURVE SMOOTH",
"458 1974 OFFCURVE",
"480 1996 OFFCURVE",
"480 2022 CURVE SMOOTH",
"480 2048 OFFCURVE",
"458 2070 OFFCURVE",
"432 2070 CURVE SMOOTH"
);
},
{
closed = 1;
nodes = (
"878 2070 OFFCURVE",
"856 2048 OFFCURVE",
"856 2022 CURVE SMOOTH",
"856 1996 OFFCURVE",
"878 1974 OFFCURVE",
"904 1974 CURVE SMOOTH",
"930 1974 OFFCURVE",
"952 1996 OFFCURVE",
"952 2022 CURVE SMOOTH",
"952 2048 OFFCURVE",
"930 2070 OFFCURVE",
"904 2070 CURVE SMOOTH"
);
},
{
closed = 1;
nodes = (
"642 1650 LINE",
"0 0 LINE",
"60 0 LINE",
"296 610 LINE",
"1040 610 LINE",
"1276 0 LINE",
"1336 0 LINE",
"694 1650 LINE"
);
},
{
closed = 1;
nodes = (
"668 1582 LINE",
"1022 660 LINE",
"314 660 LINE"
);
}
);
width = 1336;
}
);
leftKerningGroup = A;
note = Adieresis;
rightKerningGroup = space;
unicode = 00C4;
},
{
glyphname = Aring;
lastChange = "2019-12-18 16:23:24 +0000";
layers = (
{
hints = (
{
horizontal = 1;
place = "{0, 21}";
target = up;
type = BottomGhost;
},
{
horizontal = 1;
place = "{610, 50}";
type = Stem;
},
{
horizontal = 1;
place = "{1650, -20}";
target = down;
type = TopGhost;
},
{
horizontal = 1;
place = "{1918, 52}";
type = Stem;
},
{
horizontal = 1;
place = "{2210, 52}";
type = Stem;
},
{
place = "{0, 1336}";
type = Stem;
},
{
place = "{474, 52}";
type = Stem;
},
{
place = "{810, 52}";
type = Stem;
}
);
layerId = "74F259A6-12B3-44F5-88D4-EF03CB0B713A";
paths = (
{
closed = 1;
nodes = (
"642 1650 LINE",
"0 0 LINE",
"60 0 LINE",
"296 610 LINE",
"1040 610 LINE",
"1276 0 LINE",
"1336 0 LINE",
"694 1650 LINE"
);
},
{
closed = 1;
nodes = (
"668 1582 LINE",
"1022 660 LINE",
"314 660 LINE"
);
},
{
closed = 1;
nodes = (
"526 2160 OFFCURVE",
"586 2210 OFFCURVE",
"668 2210 CURVE SMOOTH",
"750 2210 OFFCURVE",
"810 2160 OFFCURVE",
"810 2090 CURVE SMOOTH",
"810 2020 OFFCURVE",
"750 1970 OFFCURVE",
"668 1970 CURVE SMOOTH",
"586 1970 OFFCURVE",
"526 2020 OFFCURVE",
"526 2090 CURVE SMOOTH"
);
},
{
closed = 1;
nodes = (
"474 1990 OFFCURVE",
"560 1918 OFFCURVE",
"668 1918 CURVE SMOOTH",
"776 1918 OFFCURVE",
"862 1990 OFFCURVE",
"862 2090 CURVE SMOOTH",
"862 2190 OFFCURVE",
"776 2262 OFFCURVE",
"668 2262 CURVE SMOOTH",
"560 2262 OFFCURVE",
"474 2190 OFFCURVE",
"474 2090 CURVE SMOOTH"
);
}
);
width = 1336;
}
);
leftKerningGroup = A;
note = Aring;
rightKerningGroup = space;
unicode = 00C5;
},
{
glyphname = AE;
lastChange = "2019-12-18 16:23:24 +0000";
layers = (
{
hints = (
{
horizontal = 1;
place = "{0, 50}";
type = Stem;
},
{
horizontal = 1;
place = "{610, 50}";
type = Stem;
},
{
horizontal = 1;
place = "{802, 50}";
type = Stem;
},
{
horizontal = 1;
place = "{1600, 50}";
type = Stem;
},
{
place = "{668, 56}";
type = Stem;
}
);
layerId = "74F259A6-12B3-44F5-88D4-EF03CB0B713A";
paths = (
{
closed = 1;
nodes = (
"642 1650 LINE",
"0 0 LINE",
"60 0 LINE",
"294 610 LINE",
"668 610 LINE",
"668 0 LINE",
"1452 0 LINE",
"1452 50 LINE",
"724 50 LINE",
"724 802 LINE",
"1428 802 LINE",
"1428 852 LINE",
"724 852 LINE",
"724 1600 LINE",
"1452 1600 LINE",
"1452 1650 LINE"
);
},
{
closed = 1;
nodes = (
"314 660 LINE",
"668 1582 LINE",
"668 660 LINE"
);
}
);
width = 1600;
}
);
note = AE;
rightKerningGroup = space;
unicode = 00C6;
},
{
glyphname = Ccedilla;
lastChange = "2019-12-18 16:23:24 +0000";
layers = (
{
hints = (
{
horizontal = 1;
place = "{-588, 52}";
type = Stem;
},
{
horizontal = 1;
place = "{-214, 52}";
type = Stem;
},
{
horizontal = 1;
place = "{-30, 54}";
type = Stem;
},
{
horizontal = 1;
place = "{1624, 56}";
type = Stem;
},
{
place = "{148, 62}";
type = Stem;
},
{
place = "{1202, 52}";
type = Stem;
},
{
horizontal = 1;
place = "{-32, 21}";
target = up;
type = BottomGhost;
}
);
layerId = "74F259A6-12B3-44F5-88D4-EF03CB0B713A";
paths = (
{
closed = 1;
nodes = (
"148 358 OFFCURVE",
"480 -6 OFFCURVE",
"954 -30 CURVE",
"880 -258 LINE",
"884 -260 LINE",
"936 -228 OFFCURVE",
"1008 -214 OFFCURVE",
"1044 -214 CURVE SMOOTH",
"1138 -214 OFFCURVE",
"1202 -280 OFFCURVE",
"1202 -378 CURVE SMOOTH",
"1202 -488 OFFCURVE",
"1104 -536 OFFCURVE",
"1012 -536 CURVE SMOOTH",
"914 -536 OFFCURVE",
"840 -494 OFFCURVE",
"798 -418 CURVE",
"754 -442 LINE",
"802 -536 OFFCURVE",
"894 -588 OFFCURVE",
"1012 -588 CURVE SMOOTH",
"1152 -588 OFFCURVE",
"1254 -500 OFFCURVE",
"1254 -378 CURVE SMOOTH",
"1254 -252 OFFCURVE",
"1168 -162 OFFCURVE",
"1044 -162 CURVE SMOOTH",
"1016 -162 OFFCURVE",
"988 -168 OFFCURVE",
"962 -174 CURVE",
"1010 -32 LINE",
"1214 -32 OFFCURVE",
"1394 34 OFFCURVE",
"1536 146 CURVE",
"1500 190 LINE",
"1366 86 OFFCURVE",
"1196 24 OFFCURVE",
"1004 24 CURVE SMOOTH",
"538 24 OFFCURVE",
"210 374 OFFCURVE",
"210 824 CURVE SMOOTH",
"210 1276 OFFCURVE",
"570 1624 OFFCURVE",
"1004 1624 CURVE SMOOTH",
"1192 1624 OFFCURVE",
"1362 1562 OFFCURVE",
"1498 1454 CURVE",
"1534 1498 LINE",
"1388 1612 OFFCURVE",
"1204 1680 OFFCURVE",
"1004 1680 CURVE SMOOTH",
"538 1680 OFFCURVE",
"148 1308 OFFCURVE",
"148 824 CURVE SMOOTH"
);
}
);
width = 1652;
}
);
leftKerningGroup = C;
note = Ccedilla;
rightKerningGroup = C;
unicode = 00C7;
},
{
glyphname = Egrave;
lastChange = "2019-12-18 16:23:24 +0000";
layers = (
{
hints = (
{
horizontal = 1;
place = "{1798, 21}";
target = up;
type = BottomGhost;
},
{
horizontal = 1;
place = "{2010, -20}";
target = down;
type = TopGhost;
},
{
place = "{430, 268}";
type = Stem;
},
{
horizontal = 1;
place = "{0, 50}";
type = Stem;
},
{
horizontal = 1;
place = "{802, 50}";
type = Stem;
},
{
horizontal = 1;
place = "{1600, 50}";
type = Stem;
},
{
place = "{232, 56}";
type = Stem;
}
);
layerId = "74F259A6-12B3-44F5-88D4-EF03CB0B713A";
paths = (
{
closed = 1;
nodes = (
"430 1948 LINE",
"668 1798 LINE",
"698 1840 LINE",
"472 2010 LINE"
);
},
{
closed = 1;
nodes = (
"232 1650 LINE",
"232 0 LINE",
"1016 0 LINE",
"1016 50 LINE",
"288 50 LINE",
"288 802 LINE",
"992 802 LINE",
"992 852 LINE",
"288 852 LINE",
"288 1600 LINE",
"1016 1600 LINE",
"1016 1650 LINE"
);
}
);
width = 1164;
}
);
note = Egrave;
rightKerningGroup = E;
unicode = 00C8;
},
{
glyphname = Eacute;
lastChange = "2019-12-18 16:23:24 +0000";
layers = (
{
hints = (
{
horizontal = 1;
place = "{0, 50}";
type = Stem;
},
{
horizontal = 1;
place = "{802, 50}";
type = Stem;
},
{
horizontal = 1;
place = "{1600, 50}";
type = Stem;
},
{
place = "{232, 56}";
type = Stem;
},
{
horizontal = 1;
place = "{1800, 21}";
target = up;
type = BottomGhost;
},
{
horizontal = 1;
place = "{2012, -20}";
target = down;
type = TopGhost;
},
{
place = "{550, 268}";
type = Stem;
}
);
layerId = "74F259A6-12B3-44F5-88D4-EF03CB0B713A";
paths = (
{
closed = 1;
nodes = (
"232 1650 LINE",
"232 0 LINE",
"1016 0 LINE",
"1016 50 LINE",
"288 50 LINE",
"288 802 LINE",
"992 802 LINE",
"992 852 LINE",
"288 852 LINE",
"288 1600 LINE",
"1016 1600 LINE",
"1016 1650 LINE"
);
},
{
closed = 1;
nodes = (
"776 2012 LINE",
"550 1842 LINE",
"580 1800 LINE",
"818 1950 LINE"
);
}
);
width = 1164;
}
);
note = Eacute;
rightKerningGroup = E;
unicode = 00C9;
},
{
glyphname = Ecircumflex;
lastChange = "2019-12-18 16:23:24 +0000";
layers = (
{
hints = (
{
horizontal = 1;
place = "{0, 50}";
type = Stem;
},
{
horizontal = 1;
place = "{802, 50}";
type = Stem;
},
{
horizontal = 1;
place = "{1600, 50}";
type = Stem;
},
{
place = "{232, 56}";
type = Stem;
},
{
horizontal = 1;
place = "{1798, 21}";
target = up;
type = BottomGhost;
},
{
horizontal = 1;
place = "{2086, -20}";
target = down;
type = TopGhost;
},
{
place = "{288, 672}";
type = Stem;
}
);
layerId = "74F259A6-12B3-44F5-88D4-EF03CB0B713A";
paths = (
{
closed = 1;
nodes = (
"232 1650 LINE",
"232 0 LINE",
"1016 0 LINE",
"1016 50 LINE",
"288 50 LINE",
"288 802 LINE",
"992 802 LINE",
"992 852 LINE",
"288 852 LINE",
"288 1600 LINE",
"1016 1600 LINE",
"1016 1650 LINE"
);
},
{
closed = 1;
nodes = (
"288 1840 LINE",
"318 1798 LINE",
"624 2022 LINE",
"930 1798 LINE",
"960 1840 LINE",
"624 2086 LINE"
);
}
);
width = 1164;
}
);
note = Ecircumflex;
rightKerningGroup = E;
unicode = 00CA;
},
{
glyphname = Edieresis;
lastChange = "2019-12-18 16:23:24 +0000";
layers = (
{
hints = (
{
horizontal = 1;
place = "{0, 50}";
type = Stem;
},
{
horizontal = 1;
place = "{802, 50}";
type = Stem;
},
{
horizontal = 1;
place = "{1600, 50}";
type = Stem;
},
{
place = "{232, 56}";
type = Stem;
},
{
horizontal = 1;
place = "{1974, 96}";
type = Stem;
},
{
place = "{340, 96}";
type = Stem;
},
{
place = "{812, 96}";
type = Stem;
}
);
layerId = "74F259A6-12B3-44F5-88D4-EF03CB0B713A";
paths = (
{
closed = 1;
nodes = (
"232 1650 LINE",
"232 0 LINE",
"1016 0 LINE",
"1016 50 LINE",
"288 50 LINE",
"288 802 LINE",
"992 802 LINE",
"992 852 LINE",
"288 852 LINE",
"288 1600 LINE",
"1016 1600 LINE",
"1016 1650 LINE"
);
},
{
closed = 1;
nodes = (
"362 2070 OFFCURVE",
"340 2048 OFFCURVE",
"340 2022 CURVE SMOOTH",
"340 1996 OFFCURVE",
"362 1974 OFFCURVE",
"388 1974 CURVE SMOOTH",
"414 1974 OFFCURVE",
"436 1996 OFFCURVE",
"436 2022 CURVE SMOOTH",
"436 2048 OFFCURVE",
"414 2070 OFFCURVE",
"388 2070 CURVE SMOOTH"
);
},
{
closed = 1;
nodes = (
"834 2070 OFFCURVE",
"812 2048 OFFCURVE",
"812 2022 CURVE SMOOTH",
"812 1996 OFFCURVE",
"834 1974 OFFCURVE",
"860 1974 CURVE SMOOTH",
"886 1974 OFFCURVE",
"908 1996 OFFCURVE",
"908 2022 CURVE SMOOTH",
"908 2048 OFFCURVE",
"886 2070 OFFCURVE",
"860 2070 CURVE SMOOTH"
);
}
);
width = 1164;
}
);
note = Edieresis;
rightKerningGroup = E;
unicode = 00CB;
},
{
glyphname = Igrave;
lastChange = "2019-12-18 16:23:24 +0000";
layers = (
{
hints = (
{
horizontal = 1;
place = "{0, 21}";
target = up;
type = BottomGhost;
},
{
horizontal = 1;
place = "{1650, -20}";
target = down;
type = TopGhost;
},
{
horizontal = 1;
place = "{1800, 21}";
target = up;
type = BottomGhost;
},
{
horizontal = 1;
place = "{2012, -20}";
target = down;
type = TopGhost;
},
{
place = "{22, 266}";
type = Stem;
},
{
place = "{232, 56}";
type = Stem;
}
);
layerId = "74F259A6-12B3-44F5-88D4-EF03CB0B713A";
paths = (
{
closed = 1;
nodes = (
"66 2012 LINE",
"22 1950 LINE",
"260 1800 LINE",
"288 1842 LINE"
);
},
{
closed = 1;
nodes = (
"232 1650 LINE",
"232 0 LINE",
"288 0 LINE",
"288 1650 LINE"
);
}
);
width = 520;
}
);
leftKerningGroup = I;
note = Igrave;
rightKerningGroup = space;
unicode = 00CC;
},
{
glyphname = Iacute;
lastChange = "2019-12-18 16:23:24 +0000";
layers = (
{
hints = (
{
horizontal = 1;
place = "{0, 21}";
target = up;
type = BottomGhost;
},
{
horizontal = 1;
place = "{1650, -20}";
target = down;
type = TopGhost;
},
{
place = "{232, 56}";
type = Stem;
},
{
horizontal = 1;
place = "{1800, 21}";
target = up;
type = BottomGhost;
},
{
horizontal = 1;
place = "{2012, -20}";
target = down;
type = TopGhost;
},
{
place = "{230, 268}";
type = Stem;
}
);
layerId = "74F259A6-12B3-44F5-88D4-EF03CB0B713A";
paths = (
{
closed = 1;
nodes = (
"232 1650 LINE",
"232 0 LINE",
"288 0 LINE",
"288 1650 LINE"
);
},
{
closed = 1;
nodes = (
"456 2012 LINE",
"230 1842 LINE",
"260 1800 LINE",
"498 1950 LINE"
);
}
);
width = 520;
}
);
leftKerningGroup = I;
note = Iacute;
rightKerningGroup = space;
unicode = 00CD;
},
{
glyphname = Icircumflex;
lastChange = "2019-12-18 16:23:24 +0000";
layers = (
{
hints = (
{
horizontal = 1;
place = "{0, 21}";
target = up;
type = BottomGhost;
},
{
horizontal = 1;
place = "{1650, -20}";
target = down;
type = TopGhost;
},
{
horizontal = 1;
place = "{1798, 21}";
target = up;
type = BottomGhost;
},
{
horizontal = 1;
place = "{2086, -20}";
target = down;
type = TopGhost;
},
{
place = "{-76, 672}";
type = Stem;
},
{
place = "{232, 56}";
type = Stem;
}
);
layerId = "74F259A6-12B3-44F5-88D4-EF03CB0B713A";
paths = (
{
closed = 1;
nodes = (
"-76 1840 LINE",
"-46 1798 LINE",
"260 2022 LINE",
"566 1798 LINE",
"596 1840 LINE",
"260 2086 LINE"
);
},
{
closed = 1;
nodes = (
"232 1650 LINE",
"232 0 LINE",
"288 0 LINE",
"288 1650 LINE"
);
}
);
width = 520;
}
);
leftKerningGroup = Icircumflex;
note = Icircumflex;
rightKerningGroup = Icircumflex;
unicode = 00CE;
},
{
glyphname = Idieresis;
lastChange = "2019-12-18 16:23:24 +0000";
layers = (
{
hints = (
{
horizontal = 1;
place = "{0, 21}";
target = up;
type = BottomGhost;
},
{
horizontal = 1;
place = "{1650, -20}";
target = down;
type = TopGhost;
},
{
horizontal = 1;
place = "{1974, 96}";
type = Stem;
}
);
layerId = "74F259A6-12B3-44F5-88D4-EF03CB0B713A";
paths = (
{
closed = 1;
nodes = (
"-2 2070 OFFCURVE",
"-24 2048 OFFCURVE",
"-24 2022 CURVE SMOOTH",
"-24 1996 OFFCURVE",
"-2 1974 OFFCURVE",
"24 1974 CURVE SMOOTH",
"50 1974 OFFCURVE",
"72 1996 OFFCURVE",
"72 2022 CURVE SMOOTH",
"72 2048 OFFCURVE",
"50 2070 OFFCURVE",
"24 2070 CURVE SMOOTH"
);
},
{
closed = 1;
nodes = (
"470 2070 OFFCURVE",
"448 2048 OFFCURVE",
"448 2022 CURVE SMOOTH",
"448 1996 OFFCURVE",
"470 1974 OFFCURVE",
"496 1974 CURVE SMOOTH",
"522 1974 OFFCURVE",
"544 1996 OFFCURVE",
"544 2022 CURVE SMOOTH",
"544 2048 OFFCURVE",
"522 2070 OFFCURVE",
"496 2070 CURVE SMOOTH"
);
},
{
closed = 1;
nodes = (
"232 1650 LINE",
"232 0 LINE",
"288 0 LINE",
"288 1650 LINE"
);
}
);
width = 520;
}
);
leftKerningGroup = Icircumflex;
note = Idieresis;
rightKerningGroup = Icircumflex;
unicode = 00CF;
},
{
glyphname = Eth;
lastChange = "2019-12-18 16:23:24 +0000";
layers = (
{
hints = (
{
place = "{232, 56}";
type = Stem;
},
{
place = "{1336, 54}";
type = Stem;
},
{
place = "{68, 758}";
type = Stem;
}
);
layerId = "74F259A6-12B3-44F5-88D4-EF03CB0B713A";
paths = (
{
closed = 1;
nodes = (
"232 1650 LINE",
"232 848 LINE",
"68 848 LINE",
"68 802 LINE",
"232 802 LINE",
"232 0 LINE",
"558 0 LINE SMOOTH",
"1012 0 OFFCURVE",
"1390 344 OFFCURVE",
"1390 826 CURVE SMOOTH",
"1390 1306 OFFCURVE",
"1010 1650 OFFCURVE",
"558 1650 CURVE SMOOTH"
);
},
{
closed = 1;
nodes = (
"288 1600 LINE",
"558 1600 LINE SMOOTH",
"976 1600 OFFCURVE",
"1336 1276 OFFCURVE",
"1336 826 CURVE SMOOTH",
"1336 374 OFFCURVE",
"978 50 OFFCURVE",
"558 50 CURVE SMOOTH",
"288 50 LINE",
"288 802 LINE",
"826 802 LINE",
"826 848 LINE",
"288 848 LINE"
);
}
);
width = 1538;
}
);
note = Eth;
rightKerningGroup = space;
unicode = 00D0;
},
{
glyphname = Ntilde;
lastChange = "2019-12-18 16:23:24 +0000";
layers = (
{
hints = (
{
horizontal = 1;
place = "{1976, 50}";
type = Stem;
},
{
horizontal = 1;
place = "{2136, 50}";
type = Stem;
},
{
place = "{302, 956}";
type = Stem;
},
{
horizontal = 1;
place = "{0, 21}";
target = up;
type = BottomGhost;
},
{
horizontal = 1;
place = "{1650, -20}";
target = down;
type = TopGhost;
},
{
place = "{232, 56}";
type = Stem;
},
{
place = "{1272, 56}";
type = Stem;
}
);
layerId = "74F259A6-12B3-44F5-88D4-EF03CB0B713A";
paths = (
{
closed = 1;
nodes = (
"340 1980 LINE",
"388 2064 OFFCURVE",
"468 2136 OFFCURVE",
"578 2136 CURVE SMOOTH",
"618 2136 OFFCURVE",
"686 2126 OFFCURVE",
"764 2062 CURVE SMOOTH",
"856 1988 OFFCURVE",
"934 1976 OFFCURVE",
"982 1976 CURVE SMOOTH",
"1110 1976 OFFCURVE",
"1204 2056 OFFCURVE",
"1258 2148 CURVE",
"1220 2182 LINE",
"1172 2098 OFFCURVE",
"1092 2026 OFFCURVE",
"982 2026 CURVE SMOOTH",
"942 2026 OFFCURVE",
"874 2036 OFFCURVE",
"796 2100 CURVE SMOOTH",
"704 2174 OFFCURVE",
"626 2186 OFFCURVE",
"578 2186 CURVE SMOOTH",
"450 2186 OFFCURVE",
"356 2106 OFFCURVE",
"302 2014 CURVE"
);
},
{
closed = 1;
nodes = (
"232 1650 LINE",
"232 0 LINE",
"288 0 LINE",
"288 1546 LINE",
"1272 0 LINE",
"1328 0 LINE",
"1328 1650 LINE",
"1272 1650 LINE",
"1272 102 LINE",
"288 1650 LINE"
);
}
);
width = 1560;
}
);
note = Ntilde;
rightKerningGroup = space;
unicode = 00D1;
},
{
glyphname = Ograve;
lastChange = "2019-12-18 16:23:24 +0000";
layers = (
{
hints = (
{
horizontal = 1;
place = "{1800, 21}";
target = up;
type = BottomGhost;
},
{
horizontal = 1;
place = "{2012, -20}";
target = down;
type = TopGhost;
},
{
place = "{786, 268}";
type = Stem;
},
{
horizontal = 1;
place = "{-32, 54}";
type = Stem;
},
{
horizontal = 1;
place = "{1626, 54}";
type = Stem;
},
{
place = "{148, 60}";
type = Stem;
},
{
place = "{1752, 60}";
type = Stem;
}
);
layerId = "74F259A6-12B3-44F5-88D4-EF03CB0B713A";
paths = (
{
closed = 1;
nodes = (
"786 1950 LINE",
"1024 1800 LINE",
"1054 1842 LINE",
"828 2012 LINE"
);
},
{
closed = 1;
nodes = (
"208 1276 OFFCURVE",
"560 1626 OFFCURVE",
"980 1626 CURVE SMOOTH",
"1400 1626 OFFCURVE",
"1752 1276 OFFCURVE",
"1752 824 CURVE SMOOTH",
"1752 372 OFFCURVE",
"1400 22 OFFCURVE",
"980 22 CURVE SMOOTH",
"560 22 OFFCURVE",
"208 372 OFFCURVE",
"208 824 CURVE SMOOTH"
);
},
{
closed = 1;
nodes = (
"148 340 OFFCURVE",
"526 -32 OFFCURVE",
"980 -32 CURVE SMOOTH",
"1434 -32 OFFCURVE",
"1812 340 OFFCURVE",
"1812 824 CURVE SMOOTH",
"1812 1308 OFFCURVE",
"1434 1680 OFFCURVE",
"980 1680 CURVE SMOOTH",
"526 1680 OFFCURVE",
"148 1308 OFFCURVE",
"148 824 CURVE SMOOTH"
);
}
);
width = 1960;
}
);
leftKerningGroup = O;
note = Ograve;
rightKerningGroup = O;
unicode = 00D2;
},
{
glyphname = Oacute;
lastChange = "2019-12-18 16:23:24 +0000";
layers = (
{
hints = (
{
horizontal = 1;
place = "{-32, 54}";
type = Stem;
},
{
horizontal = 1;
place = "{1626, 54}";
type = Stem;
},
{
place = "{148, 60}";
type = Stem;
},
{
place = "{1752, 60}";
type = Stem;
},
{
horizontal = 1;
place = "{1800, 21}";
target = up;
type = BottomGhost;
},
{
horizontal = 1;
place = "{2012, -20}";
target = down;
type = TopGhost;
},
{
place = "{906, 268}";
type = Stem;
}
);
layerId = "74F259A6-12B3-44F5-88D4-EF03CB0B713A";
paths = (
{
closed = 1;
nodes = (
"208 1276 OFFCURVE",
"560 1626 OFFCURVE",
"980 1626 CURVE SMOOTH",
"1400 1626 OFFCURVE",
"1752 1276 OFFCURVE",
"1752 824 CURVE SMOOTH",
"1752 372 OFFCURVE",
"1400 22 OFFCURVE",
"980 22 CURVE SMOOTH",
"560 22 OFFCURVE",
"208 372 OFFCURVE",
"208 824 CURVE SMOOTH"
);
},
{
closed = 1;
nodes = (
"148 340 OFFCURVE",
"526 -32 OFFCURVE",
"980 -32 CURVE SMOOTH",
"1434 -32 OFFCURVE",
"1812 340 OFFCURVE",
"1812 824 CURVE SMOOTH",
"1812 1308 OFFCURVE",
"1434 1680 OFFCURVE",
"980 1680 CURVE SMOOTH",
"526 1680 OFFCURVE",
"148 1308 OFFCURVE",
"148 824 CURVE SMOOTH"
);
},
{
closed = 1;
nodes = (
"1132 2012 LINE",
"906 1842 LINE",
"936 1800 LINE",
"1174 1950 LINE"
);
}
);
width = 1960;
}
);
leftKerningGroup = O;
note = Oacute;
rightKerningGroup = O;
unicode = 00D3;
},
{
glyphname = Ocircumflex;
lastChange = "2019-12-18 16:23:24 +0000";
layers = (
{
hints = (
{
horizontal = 1;
place = "{1798, 21}";
target = up;
type = BottomGhost;
},
{
horizontal = 1;
place = "{2086, -20}";
target = down;
type = TopGhost;
},
{
place = "{644, 672}";
type = Stem;
},
{
horizontal = 1;
place = "{-32, 54}";
type = Stem;
},
{
horizontal = 1;
place = "{1626, 54}";
type = Stem;
},
{
place = "{148, 60}";
type = Stem;
},
{
place = "{1752, 60}";
type = Stem;
}
);
layerId = "74F259A6-12B3-44F5-88D4-EF03CB0B713A";
paths = (
{
closed = 1;
nodes = (
"644 1840 LINE",
"674 1798 LINE",
"980 2022 LINE",
"1286 1798 LINE",
"1316 1840 LINE",
"980 2086 LINE"
);
},
{
closed = 1;
nodes = (
"208 1276 OFFCURVE",
"560 1626 OFFCURVE",
"980 1626 CURVE SMOOTH",
"1400 1626 OFFCURVE",
"1752 1276 OFFCURVE",
"1752 824 CURVE SMOOTH",
"1752 372 OFFCURVE",
"1400 22 OFFCURVE",
"980 22 CURVE SMOOTH",
"560 22 OFFCURVE",
"208 372 OFFCURVE",
"208 824 CURVE SMOOTH"
);
},
{
closed = 1;
nodes = (
"148 340 OFFCURVE",
"526 -32 OFFCURVE",
"980 -32 CURVE SMOOTH",
"1434 -32 OFFCURVE",
"1812 340 OFFCURVE",
"1812 824 CURVE SMOOTH",
"1812 1308 OFFCURVE",
"1434 1680 OFFCURVE",
"980 1680 CURVE SMOOTH",
"526 1680 OFFCURVE",
"148 1308 OFFCURVE",
"148 824 CURVE SMOOTH"
);
}
);
width = 1960;
}
);
leftKerningGroup = O;
note = Ocircumflex;
rightKerningGroup = O;
unicode = 00D4;
},
{
glyphname = Otilde;
lastChange = "2019-12-18 16:23:24 +0000";
layers = (
{
hints = (
{
horizontal = 1;
place = "{1976, 50}";
type = Stem;
},
{
horizontal = 1;
place = "{2136, 50}";
type = Stem;
},
{
place = "{502, 956}";
type = Stem;
},
{
horizontal = 1;
place = "{-32, 54}";
type = Stem;
},
{
horizontal = 1;
place = "{1626, 54}";
type = Stem;
},
{
place = "{148, 60}";
type = Stem;
},
{
place = "{1752, 60}";
type = Stem;
}
);
layerId = "74F259A6-12B3-44F5-88D4-EF03CB0B713A";
paths = (
{
closed = 1;
nodes = (
"540 1980 LINE",
"588 2064 OFFCURVE",
"668 2136 OFFCURVE",
"778 2136 CURVE SMOOTH",
"818 2136 OFFCURVE",
"886 2126 OFFCURVE",
"964 2062 CURVE SMOOTH",
"1056 1988 OFFCURVE",
"1134 1976 OFFCURVE",
"1182 1976 CURVE SMOOTH",
"1310 1976 OFFCURVE",
"1404 2056 OFFCURVE",
"1458 2148 CURVE",
"1420 2182 LINE",
"1372 2098 OFFCURVE",
"1292 2026 OFFCURVE",
"1182 2026 CURVE SMOOTH",
"1142 2026 OFFCURVE",
"1074 2036 OFFCURVE",
"996 2100 CURVE SMOOTH",
"904 2174 OFFCURVE",
"826 2186 OFFCURVE",
"778 2186 CURVE SMOOTH",
"650 2186 OFFCURVE",
"556 2106 OFFCURVE",
"502 2014 CURVE"
);
},
{
closed = 1;
nodes = (
"208 1276 OFFCURVE",
"560 1626 OFFCURVE",
"980 1626 CURVE SMOOTH",
"1400 1626 OFFCURVE",
"1752 1276 OFFCURVE",
"1752 824 CURVE SMOOTH",
"1752 372 OFFCURVE",
"1400 22 OFFCURVE",
"980 22 CURVE SMOOTH",
"560 22 OFFCURVE",
"208 372 OFFCURVE",
"208 824 CURVE SMOOTH"
);
},
{
closed = 1;
nodes = (
"148 340 OFFCURVE",
"526 -32 OFFCURVE",
"980 -32 CURVE SMOOTH",
"1434 -32 OFFCURVE",
"1812 340 OFFCURVE",
"1812 824 CURVE SMOOTH",
"1812 1308 OFFCURVE",
"1434 1680 OFFCURVE",
"980 1680 CURVE SMOOTH",
"526 1680 OFFCURVE",
"148 1308 OFFCURVE",
"148 824 CURVE SMOOTH"
);
}
);
width = 1960;
}
);
leftKerningGroup = O;
note = Otilde;
rightKerningGroup = O;
unicode = 00D5;
},
{
glyphname = Odieresis;
lastChange = "2019-12-18 16:23:24 +0000";
layers = (
{
hints = (
{
horizontal = 1;
place = "{1974, 96}";
type = Stem;
},
{
place = "{696, 96}";
type = Stem;
},
{
place = "{1168, 96}";
type = Stem;
},
{
horizontal = 1;
place = "{-32, 54}";
type = Stem;
},
{
horizontal = 1;
place = "{1626, 54}";
type = Stem;
},
{
place = "{148, 60}";
type = Stem;
},
{
place = "{1752, 60}";
type = Stem;
}
);
layerId = "74F259A6-12B3-44F5-88D4-EF03CB0B713A";
paths = (
{
closed = 1;
nodes = (
"718 2070 OFFCURVE",
"696 2048 OFFCURVE",
"696 2022 CURVE SMOOTH",
"696 1996 OFFCURVE",
"718 1974 OFFCURVE",
"744 1974 CURVE SMOOTH",
"770 1974 OFFCURVE",
"792 1996 OFFCURVE",
"792 2022 CURVE SMOOTH",
"792 2048 OFFCURVE",
"770 2070 OFFCURVE",
"744 2070 CURVE SMOOTH"
);
},
{
closed = 1;
nodes = (
"1190 2070 OFFCURVE",
"1168 2048 OFFCURVE",
"1168 2022 CURVE SMOOTH",
"1168 1996 OFFCURVE",
"1190 1974 OFFCURVE",
"1216 1974 CURVE SMOOTH",
"1242 1974 OFFCURVE",
"1264 1996 OFFCURVE",
"1264 2022 CURVE SMOOTH",
"1264 2048 OFFCURVE",
"1242 2070 OFFCURVE",
"1216 2070 CURVE SMOOTH"
);
},
{
closed = 1;
nodes = (
"208 1276 OFFCURVE",
"560 1626 OFFCURVE",
"980 1626 CURVE SMOOTH",
"1400 1626 OFFCURVE",
"1752 1276 OFFCURVE",
"1752 824 CURVE SMOOTH",
"1752 372 OFFCURVE",
"1400 22 OFFCURVE",
"980 22 CURVE SMOOTH",
"560 22 OFFCURVE",
"208 372 OFFCURVE",
"208 824 CURVE SMOOTH"
);
},
{
closed = 1;
nodes = (
"148 340 OFFCURVE",
"526 -32 OFFCURVE",
"980 -32 CURVE SMOOTH",
"1434 -32 OFFCURVE",
"1812 340 OFFCURVE",
"1812 824 CURVE SMOOTH",
"1812 1308 OFFCURVE",
"1434 1680 OFFCURVE",
"980 1680 CURVE SMOOTH",
"526 1680 OFFCURVE",
"148 1308 OFFCURVE",
"148 824 CURVE SMOOTH"
);
}
);
width = 1960;
}
);
leftKerningGroup = O;
note = Odieresis;
rightKerningGroup = O;
unicode = 00D6;
},
{
glyphname = Oslash;
lastChange = "2019-12-18 16:23:24 +0000";
layers = (
{
hints = (
{
horizontal = 1;
place = "{8, 21}";
target = up;
type = BottomGhost;
},
{
horizontal = 1;
place = "{1626, 54}";
type = Stem;
},
{
place = "{148, 60}";
type = Stem;
},
{
place = "{1752, 60}";
type = Stem;
},
{
horizontal = 1;
place = "{-32, 54}";
type = Stem;
},
{
horizontal = 1;
place = "{1644, -20}";
target = down;
type = TopGhost;
}
);
layerId = "74F259A6-12B3-44F5-88D4-EF03CB0B713A";
paths = (
{
closed = 1;
nodes = (
"148 558 OFFCURVE",
"262 326 OFFCURVE",
"438 172 CURVE",
"338 42 LINE",
"382 8 LINE",
"482 136 LINE",
"622 30 OFFCURVE",
"794 -32 OFFCURVE",
"980 -32 CURVE SMOOTH",
"1434 -32 OFFCURVE",
"1812 340 OFFCURVE",
"1812 824 CURVE SMOOTH",
"1812 1088 OFFCURVE",
"1700 1318 OFFCURVE",
"1524 1474 CURVE",
"1630 1610 LINE",
"1584 1644 LINE",
"1480 1510 LINE",
"1340 1616 OFFCURVE",
"1166 1680 OFFCURVE",
"980 1680 CURVE SMOOTH",
"526 1680 OFFCURVE",
"148 1308 OFFCURVE",
"148 824 CURVE SMOOTH"
);
},
{
closed = 1;
nodes = (
"208 1276 OFFCURVE",
"560 1626 OFFCURVE",
"980 1626 CURVE SMOOTH",
"1152 1626 OFFCURVE",
"1314 1566 OFFCURVE",
"1444 1464 CURVE",
"474 216 LINE",
"312 362 OFFCURVE",
"208 578 OFFCURVE",
"208 824 CURVE SMOOTH"
);
},
{
closed = 1;
nodes = (
"1752 372 OFFCURVE",
"1400 22 OFFCURVE",
"980 22 CURVE SMOOTH",
"808 22 OFFCURVE",
"646 80 OFFCURVE",
"516 182 CURVE",
"1488 1428 LINE",
"1648 1282 OFFCURVE",
"1752 1068 OFFCURVE",
"1752 824 CURVE SMOOTH"
);
}
);
width = 1962;
}
);
leftKerningGroup = O;
note = Oslash;
rightKerningGroup = O;
unicode = 00D8;
},
{
glyphname = Ugrave;
lastChange = "2019-12-18 16:23:24 +0000";
layers = (
{
hints = (
{
horizontal = 1;
place = "{-32, 56}";
type = Stem;
},
{
horizontal = 1;
place = "{1650, -20}";
target = down;
type = TopGhost;
},
{
horizontal = 1;
place = "{1800, 21}";
target = up;
type = BottomGhost;
},
{
horizontal = 1;
place = "{2012, -20}";
target = down;
type = TopGhost;
},
{
place = "{216, 56}";
type = Stem;
},
{
place = "{562, 268}";
type = Stem;
},
{
place = "{1240, 56}";
type = Stem;
}
);
layerId = "74F259A6-12B3-44F5-88D4-EF03CB0B713A";
paths = (
{
closed = 1;
nodes = (
"562 1950 LINE",
"800 1800 LINE",
"830 1842 LINE",
"604 2012 LINE"
);
},
{
closed = 1;
nodes = (
"216 1650 LINE",
"216 594 LINE SMOOTH",
"216 184 OFFCURVE",
"388 -32 OFFCURVE",
"756 -32 CURVE SMOOTH",
"1124 -32 OFFCURVE",
"1296 184 OFFCURVE",
"1296 594 CURVE SMOOTH",
"1296 1650 LINE",
"1240 1650 LINE",
"1240 594 LINE SMOOTH",
"1240 222 OFFCURVE",
"1074 24 OFFCURVE",
"756 24 CURVE SMOOTH",
"438 24 OFFCURVE",
"272 222 OFFCURVE",
"272 594 CURVE SMOOTH",
"272 1650 LINE"
);
}
);
width = 1512;
}
);
note = Ugrave;
rightKerningGroup = space;
unicode = 00D9;
},
{
glyphname = Uacute;
lastChange = "2019-12-18 16:23:24 +0000";
layers = (
{
hints = (
{
horizontal = 1;
place = "{-32, 56}";
type = Stem;
},
{
horizontal = 1;
place = "{1650, -20}";
target = down;
type = TopGhost;
},
{
place = "{216, 56}";
type = Stem;
},
{
place = "{1240, 56}";
type = Stem;
},
{
horizontal = 1;
place = "{1800, 21}";
target = up;
type = BottomGhost;
},
{
horizontal = 1;
place = "{2012, -20}";
target = down;
type = TopGhost;
},
{
place = "{682, 268}";
type = Stem;
}
);
layerId = "74F259A6-12B3-44F5-88D4-EF03CB0B713A";
paths = (
{
closed = 1;
nodes = (
"216 1650 LINE",
"216 594 LINE SMOOTH",
"216 184 OFFCURVE",
"388 -32 OFFCURVE",
"756 -32 CURVE SMOOTH",
"1124 -32 OFFCURVE",
"1296 184 OFFCURVE",
"1296 594 CURVE SMOOTH",
"1296 1650 LINE",
"1240 1650 LINE",
"1240 594 LINE SMOOTH",
"1240 222 OFFCURVE",
"1074 24 OFFCURVE",
"756 24 CURVE SMOOTH",
"438 24 OFFCURVE",
"272 222 OFFCURVE",
"272 594 CURVE SMOOTH",
"272 1650 LINE"
);
},
{
closed = 1;
nodes = (
"908 2012 LINE",
"682 1842 LINE",
"712 1800 LINE",
"950 1950 LINE"
);
}
);
width = 1512;
}
);
note = Uacute;
rightKerningGroup = space;
unicode = 00DA;
},
{
glyphname = Ucircumflex;
lastChange = "2019-12-18 16:23:24 +0000";
layers = (
{
hints = (
{
horizontal = 1;
place = "{1798, 21}";
target = up;
type = BottomGhost;
},
{
horizontal = 1;
place = "{2086, -20}";
target = down;
type = TopGhost;
},
{
place = "{420, 672}";
type = Stem;
},
{
horizontal = 1;
place = "{-32, 56}";
type = Stem;
},
{
horizontal = 1;
place = "{1650, -20}";
target = down;
type = TopGhost;
},
{
place = "{216, 56}";
type = Stem;
},
{
place = "{1240, 56}";
type = Stem;
}
);
layerId = "74F259A6-12B3-44F5-88D4-EF03CB0B713A";
paths = (
{
closed = 1;
nodes = (
"420 1840 LINE",
"450 1798 LINE",
"756 2022 LINE",
"1062 1798 LINE",
"1092 1840 LINE",
"756 2086 LINE"
);
},
{
closed = 1;
nodes = (
"216 1650 LINE",
"216 594 LINE SMOOTH",
"216 184 OFFCURVE",
"388 -32 OFFCURVE",
"756 -32 CURVE SMOOTH",
"1124 -32 OFFCURVE",
"1296 184 OFFCURVE",
"1296 594 CURVE SMOOTH",
"1296 1650 LINE",
"1240 1650 LINE",
"1240 594 LINE SMOOTH",
"1240 222 OFFCURVE",
"1074 24 OFFCURVE",
"756 24 CURVE SMOOTH",
"438 24 OFFCURVE",
"272 222 OFFCURVE",
"272 594 CURVE SMOOTH",
"272 1650 LINE"
);
}
);
width = 1512;
}
);
note = Ucircumflex;
rightKerningGroup = space;
unicode = 00DB;
},
{
glyphname = Udieresis;
lastChange = "2019-12-18 16:23:24 +0000";
layers = (
{
hints = (
{
horizontal = 1;
place = "{-32, 56}";
type = Stem;
},
{
horizontal = 1;
place = "{1650, -20}";
target = down;
type = TopGhost;
},
{
horizontal = 1;
place = "{1974, 96}";
type = Stem;
},
{
place = "{216, 56}";
type = Stem;
},
{
place = "{472, 96}";
type = Stem;
},
{
place = "{944, 96}";
type = Stem;
},
{
place = "{1240, 56}";
type = Stem;
}
);
layerId = "74F259A6-12B3-44F5-88D4-EF03CB0B713A";
paths = (
{
closed = 1;
nodes = (
"494 2070 OFFCURVE",
"472 2048 OFFCURVE",
"472 2022 CURVE SMOOTH",
"472 1996 OFFCURVE",
"494 1974 OFFCURVE",
"520 1974 CURVE SMOOTH",
"546 1974 OFFCURVE",
"568 1996 OFFCURVE",
"568 2022 CURVE SMOOTH",
"568 2048 OFFCURVE",
"546 2070 OFFCURVE",
"520 2070 CURVE SMOOTH"
);
},
{
closed = 1;
nodes = (
"966 2070 OFFCURVE",
"944 2048 OFFCURVE",
"944 2022 CURVE SMOOTH",
"944 1996 OFFCURVE",
"966 1974 OFFCURVE",
"992 1974 CURVE SMOOTH",
"1018 1974 OFFCURVE",
"1040 1996 OFFCURVE",
"1040 2022 CURVE SMOOTH",
"1040 2048 OFFCURVE",
"1018 2070 OFFCURVE",
"992 2070 CURVE SMOOTH"
);
},
{
closed = 1;
nodes = (
"216 1650 LINE",
"216 594 LINE SMOOTH",
"216 184 OFFCURVE",
"388 -32 OFFCURVE",
"756 -32 CURVE SMOOTH",
"1124 -32 OFFCURVE",
"1296 184 OFFCURVE",
"1296 594 CURVE SMOOTH",
"1296 1650 LINE",
"1240 1650 LINE",
"1240 594 LINE SMOOTH",
"1240 222 OFFCURVE",
"1074 24 OFFCURVE",
"756 24 CURVE SMOOTH",
"438 24 OFFCURVE",
"272 222 OFFCURVE",
"272 594 CURVE SMOOTH",
"272 1650 LINE"
);
}
);
width = 1512;
}
);
note = Udieresis;
rightKerningGroup = space;
unicode = 00DC;
},
{
glyphname = Yacute;
lastChange = "2019-12-18 16:23:24 +0000";
layers = (
{
hints = (
{
horizontal = 1;
place = "{0, 21}";
target = up;
type = BottomGhost;
},
{
horizontal = 1;
place = "{1650, -20}";
target = down;
type = TopGhost;
},
{
horizontal = 1;
place = "{1800, 21}";
target = up;
type = BottomGhost;
},
{
horizontal = 1;
place = "{2012, -20}";
target = down;
type = TopGhost;
},
{
place = "{16, 1156}";
type = Stem;
},
{
place = "{566, 56}";
type = Stem;
},
{
place = "{500, 268}";
type = Stem;
}
);
layerId = "74F259A6-12B3-44F5-88D4-EF03CB0B713A";
paths = (
{
closed = 1;
nodes = (
"16 1650 LINE",
"566 704 LINE",
"566 0 LINE",
"622 0 LINE",
"622 704 LINE",
"1172 1650 LINE",
"1104 1650 LINE",
"594 772 LINE",
"84 1650 LINE"
);
},
{
closed = 1;
nodes = (
"726 2012 LINE",
"500 1842 LINE",
"530 1800 LINE",
"768 1950 LINE"
);
}
);
width = 1188;
}
);
leftKerningGroup = Y;
note = Yacute;
rightKerningGroup = Y;
unicode = 00DD;
},
{
glyphname = Ydieresis;
lastChange = "2019-12-18 16:23:24 +0000";
layers = (
{
hints = (
{
horizontal = 1;
place = "{1974, 96}";
type = Stem;
},
{
place = "{310, 96}";
type = Stem;
},
{
place = "{782, 96}";
type = Stem;
},
{
horizontal = 1;
place = "{0, 21}";
target = up;
type = BottomGhost;
},
{
horizontal = 1;
place = "{1650, -20}";
target = down;
type = TopGhost;
},
{
place = "{16, 1156}";
type = Stem;
},
{
place = "{566, 56}";
type = Stem;
}
);
layerId = "74F259A6-12B3-44F5-88D4-EF03CB0B713A";
paths = (
{
closed = 1;
nodes = (
"332 2070 OFFCURVE",
"310 2048 OFFCURVE",
"310 2022 CURVE SMOOTH",
"310 1996 OFFCURVE",
"332 1974 OFFCURVE",
"358 1974 CURVE SMOOTH",
"384 1974 OFFCURVE",
"406 1996 OFFCURVE",
"406 2022 CURVE SMOOTH",
"406 2048 OFFCURVE",
"384 2070 OFFCURVE",
"358 2070 CURVE SMOOTH"
);
},
{
closed = 1;
nodes = (
"804 2070 OFFCURVE",
"782 2048 OFFCURVE",
"782 2022 CURVE SMOOTH",
"782 1996 OFFCURVE",
"804 1974 OFFCURVE",
"830 1974 CURVE SMOOTH",
"856 1974 OFFCURVE",
"878 1996 OFFCURVE",
"878 2022 CURVE SMOOTH",
"878 2048 OFFCURVE",
"856 2070 OFFCURVE",
"830 2070 CURVE SMOOTH"
);
},
{
closed = 1;
nodes = (
"16 1650 LINE",
"566 704 LINE",
"566 0 LINE",
"622 0 LINE",
"622 704 LINE",
"1172 1650 LINE",
"1104 1650 LINE",
"594 772 LINE",
"84 1650 LINE"
);
}
);
width = 1188;
}
);
leftKerningGroup = Y;
note = Ydieresis;
rightKerningGroup = Y;
unicode = 0178;
},
{
glyphname = Thorn;
lastChange = "2019-12-18 16:23:24 +0000";
layers = (
{
hints = (
{
horizontal = 1;
place = "{0, 21}";
target = up;
type = BottomGhost;
},
{
horizontal = 1;
place = "{358, 54}";
type = Stem;
},
{
horizontal = 1;
place = "{1224, 48}";
type = Stem;
},
{
horizontal = 1;
place = "{1650, -20}";
target = down;
type = TopGhost;
},
{
place = "{232, 56}";
type = Stem;
},
{
place = "{1044, 52}";
type = Stem;
}
);
layerId = "74F259A6-12B3-44F5-88D4-EF03CB0B713A";
paths = (
{
closed = 1;
nodes = (
"232 1650 LINE",
"232 0 LINE",
"288 0 LINE",
"288 358 LINE",
"586 358 LINE SMOOTH",
"910 358 OFFCURVE",
"1096 556 OFFCURVE",
"1096 824 CURVE SMOOTH",
"1096 1094 OFFCURVE",
"910 1272 OFFCURVE",
"586 1272 CURVE SMOOTH",
"288 1272 LINE",
"288 1650 LINE"
);
},
{
closed = 1;
nodes = (
"288 1224 LINE",
"586 1224 LINE SMOOTH",
"876 1224 OFFCURVE",
"1044 1064 OFFCURVE",
"1044 824 CURVE SMOOTH",
"1044 586 OFFCURVE",
"876 412 OFFCURVE",
"586 412 CURVE SMOOTH",
"288 412 LINE"
);
}
);
width = 1954;
}
);
note = Thorn;
rightKerningGroup = space;
unicode = 00DE;
},
{
glyphname = germandbls;
lastChange = "2019-12-18 16:23:24 +0000";
layers = (
{
hints = (
{
horizontal = 1;
place = "{0, 21}";
target = up;
type = BottomGhost;
},
{
horizontal = 1;
place = "{756, 58}";
type = Stem;
},
{
horizontal = 1;
place = "{890, 56}";
type = Stem;
},
{
horizontal = 1;
place = "{1694, 56}";
type = Stem;
},
{
place = "{232, 56}";
type = Stem;
},
{
place = "{1036, 56}";
type = Stem;
},
{
place = "{1094, 56}";
type = Stem;
},
{
horizontal = 1;
place = "{-32, 56}";
type = Stem;
}
);
layerId = "74F259A6-12B3-44F5-88D4-EF03CB0B713A";
paths = (
{
closed = 1;
nodes = (
"232 814 LINE",
"100 814 LINE",
"100 756 LINE",
"232 756 LINE",
"232 0 LINE",
"288 0 LINE",
"288 1320 LINE SMOOTH",
"288 1526 OFFCURVE",
"456 1694 OFFCURVE",
"662 1694 CURVE SMOOTH",
"868 1694 OFFCURVE",
"1036 1526 OFFCURVE",
"1036 1320 CURVE SMOOTH",
"1036 1114 OFFCURVE",
"868 946 OFFCURVE",
"662 946 CURVE SMOOTH",
"444 946 LINE",
"444 890 LINE",
"662 890 LINE SMOOTH",
"902 890 OFFCURVE",
"1094 694 OFFCURVE",
"1094 456 CURVE SMOOTH",
"1094 220 OFFCURVE",
"902 24 OFFCURVE",
"662 24 CURVE SMOOTH",
"444 24 LINE",
"444 -32 LINE",
"662 -32 LINE SMOOTH",
"932 -32 OFFCURVE",
"1150 186 OFFCURVE",
"1150 456 CURVE SMOOTH",
"1150 672 OFFCURVE",
"1012 854 OFFCURVE",
"820 920 CURVE",
"980 982 OFFCURVE",
"1092 1138 OFFCURVE",
"1092 1320 CURVE SMOOTH",
"1092 1558 OFFCURVE",
"900 1750 OFFCURVE",
"662 1750 CURVE SMOOTH",
"424 1750 OFFCURVE",
"232 1558 OFFCURVE",
"232 1320 CURVE SMOOTH"
);
}
);
width = 1270;
}
);
note = germandbls;
rightKerningGroup = space;
unicode = 00DF;
},
{
glyphname = agrave;
lastChange = "2019-12-18 16:23:24 +0000";
layers = (
{
hints = (
{
horizontal = 1;
place = "{1174, 21}";
target = up;
type = BottomGhost;
},
{
horizontal = 1;
place = "{1386, -20}";
target = down;
type = TopGhost;
},
{
place = "{490, 268}";
type = Stem;
},
{
horizontal = 1;
place = "{-32, 52}";
type = Stem;
},
{
horizontal = 1;
place = "{1004, 52}";
type = Stem;
},
{
place = "{150, 54}";
type = Stem;
},
{
place = "{1122, 56}";
type = Stem;
},
{
horizontal = 1;
place = "{0, 21}";
target = up;
type = BottomGhost;
},
{
horizontal = 1;
place = "{1024, -20}";
target = down;
type = TopGhost;
}
);
layerId = "74F259A6-12B3-44F5-88D4-EF03CB0B713A";
paths = (
{
closed = 1;
nodes = (
"490 1324 LINE",
"728 1174 LINE",
"758 1216 LINE",
"532 1386 LINE"
);
},
{
closed = 1;
nodes = (
"150 192 OFFCURVE",
"374 -32 OFFCURVE",
"664 -32 CURVE SMOOTH",
"870 -32 OFFCURVE",
"1040 82 OFFCURVE",
"1122 262 CURVE",
"1122 0 LINE",
"1178 0 LINE",
"1178 1024 LINE",
"1122 1024 LINE",
"1122 762 LINE",
"1040 942 OFFCURVE",
"870 1056 OFFCURVE",
"664 1056 CURVE SMOOTH",
"374 1056 OFFCURVE",
"150 832 OFFCURVE",
"150 512 CURVE SMOOTH"
);
},
{
closed = 1;
nodes = (
"204 802 OFFCURVE",
"400 1004 OFFCURVE",
"666 1004 CURVE SMOOTH",
"934 1004 OFFCURVE",
"1128 802 OFFCURVE",
"1128 512 CURVE SMOOTH",
"1128 224 OFFCURVE",
"934 20 OFFCURVE",
"666 20 CURVE SMOOTH",
"400 20 OFFCURVE",
"204 224 OFFCURVE",
"204 512 CURVE SMOOTH"
);
}
);
width = 1400;
}
);
leftKerningGroup = a;
note = agrave;
rightKerningGroup = a;
unicode = 00E0;
},
{
glyphname = aacute;
lastChange = "2019-12-18 16:23:24 +0000";
layers = (
{
hints = (
{
horizontal = 1;
place = "{-32, 52}";
type = Stem;
},
{
horizontal = 1;
place = "{1004, 52}";
type = Stem;
},
{
horizontal = 1;
place = "{1174, 21}";
target = up;
type = BottomGhost;
},
{
horizontal = 1;
place = "{1386, -20}";
target = down;
type = TopGhost;
},
{
place = "{150, 54}";
type = Stem;
},
{
place = "{490, 268}";
type = Stem;
},
{
place = "{1122, 56}";
type = Stem;
},
{
horizontal = 1;
place = "{0, 21}";
target = up;
type = BottomGhost;
},
{
horizontal = 1;
place = "{1024, -20}";
target = down;
type = TopGhost;
}
);
layerId = "74F259A6-12B3-44F5-88D4-EF03CB0B713A";
paths = (
{
closed = 1;
nodes = (
"150 192 OFFCURVE",
"374 -32 OFFCURVE",
"664 -32 CURVE SMOOTH",
"870 -32 OFFCURVE",
"1040 82 OFFCURVE",
"1122 262 CURVE",
"1122 0 LINE",
"1178 0 LINE",
"1178 1024 LINE",
"1122 1024 LINE",
"1122 762 LINE",
"1040 942 OFFCURVE",
"870 1056 OFFCURVE",
"664 1056 CURVE SMOOTH",
"374 1056 OFFCURVE",
"150 832 OFFCURVE",
"150 512 CURVE SMOOTH"
);
},
{
closed = 1;
nodes = (
"204 802 OFFCURVE",
"400 1004 OFFCURVE",
"666 1004 CURVE SMOOTH",
"934 1004 OFFCURVE",
"1128 802 OFFCURVE",
"1128 512 CURVE SMOOTH",
"1128 224 OFFCURVE",
"934 20 OFFCURVE",
"666 20 CURVE SMOOTH",
"400 20 OFFCURVE",
"204 224 OFFCURVE",
"204 512 CURVE SMOOTH"
);
},
{
closed = 1;
nodes = (
"716 1386 LINE",
"490 1216 LINE",
"520 1174 LINE",
"758 1324 LINE"
);
}
);
width = 1400;
}
);
leftKerningGroup = a;
note = aacute;
rightKerningGroup = a;
unicode = 00E1;
},
{
glyphname = acircumflex;
lastChange = "2019-12-18 16:23:24 +0000";
layers = (
{
hints = (
{
horizontal = 1;
place = "{1174, 21}";
target = up;
type = BottomGhost;
},
{
horizontal = 1;
place = "{1462, -20}";
target = down;
type = TopGhost;
},
{
place = "{328, 672}";
type = Stem;
},
{
horizontal = 1;
place = "{-32, 52}";
type = Stem;
},
{
horizontal = 1;
place = "{1004, 52}";
type = Stem;
},
{
place = "{150, 54}";
type = Stem;
},
{
place = "{1122, 56}";
type = Stem;
},
{
horizontal = 1;
place = "{0, 21}";
target = up;
type = BottomGhost;
},
{
horizontal = 1;
place = "{1024, -20}";
target = down;
type = TopGhost;
}
);
layerId = "74F259A6-12B3-44F5-88D4-EF03CB0B713A";
paths = (
{
closed = 1;
nodes = (
"328 1216 LINE",
"358 1174 LINE",
"664 1398 LINE",
"970 1174 LINE",
"1000 1216 LINE",
"664 1462 LINE"
);
},
{
closed = 1;
nodes = (
"150 192 OFFCURVE",
"374 -32 OFFCURVE",
"664 -32 CURVE SMOOTH",
"870 -32 OFFCURVE",
"1040 82 OFFCURVE",
"1122 262 CURVE",
"1122 0 LINE",
"1178 0 LINE",
"1178 1024 LINE",
"1122 1024 LINE",
"1122 762 LINE",
"1040 942 OFFCURVE",
"870 1056 OFFCURVE",
"664 1056 CURVE SMOOTH",
"374 1056 OFFCURVE",
"150 832 OFFCURVE",
"150 512 CURVE SMOOTH"
);
},
{
closed = 1;
nodes = (
"204 802 OFFCURVE",
"400 1004 OFFCURVE",
"666 1004 CURVE SMOOTH",
"934 1004 OFFCURVE",
"1128 802 OFFCURVE",
"1128 512 CURVE SMOOTH",
"1128 224 OFFCURVE",
"934 20 OFFCURVE",
"666 20 CURVE SMOOTH",
"400 20 OFFCURVE",
"204 224 OFFCURVE",
"204 512 CURVE SMOOTH"
);
}
);
width = 1400;
}
);
leftKerningGroup = a;
note = acircumflex;
rightKerningGroup = a;
unicode = 00E2;
},
{
glyphname = atilde;
lastChange = "2019-12-18 16:23:24 +0000";
layers = (
{
hints = (
{
horizontal = 1;
place = "{1230, 50}";
type = Stem;
},
{
horizontal = 1;
place = "{1390, 50}";
type = Stem;
},
{
place = "{186, 956}";
type = Stem;
},
{
horizontal = 1;
place = "{-32, 52}";
type = Stem;
},
{
horizontal = 1;
place = "{1004, 52}";
type = Stem;
},
{
place = "{150, 54}";
type = Stem;
},
{
place = "{1122, 56}";
type = Stem;
},
{
horizontal = 1;
place = "{0, 21}";
target = up;
type = BottomGhost;
},
{
horizontal = 1;
place = "{1024, -20}";
target = down;
type = TopGhost;
}
);
layerId = "74F259A6-12B3-44F5-88D4-EF03CB0B713A";
paths = (
{
closed = 1;
nodes = (
"224 1234 LINE",
"272 1318 OFFCURVE",
"352 1390 OFFCURVE",
"462 1390 CURVE SMOOTH",
"502 1390 OFFCURVE",
"570 1380 OFFCURVE",
"648 1316 CURVE SMOOTH",
"740 1242 OFFCURVE",
"818 1230 OFFCURVE",
"866 1230 CURVE SMOOTH",
"994 1230 OFFCURVE",
"1088 1310 OFFCURVE",
"1142 1402 CURVE",
"1104 1436 LINE",
"1056 1352 OFFCURVE",
"976 1280 OFFCURVE",
"866 1280 CURVE SMOOTH",
"826 1280 OFFCURVE",
"758 1290 OFFCURVE",
"680 1354 CURVE SMOOTH",
"588 1428 OFFCURVE",
"510 1440 OFFCURVE",
"462 1440 CURVE SMOOTH",
"334 1440 OFFCURVE",
"240 1360 OFFCURVE",
"186 1268 CURVE"
);
},
{
closed = 1;
nodes = (
"150 192 OFFCURVE",
"374 -32 OFFCURVE",
"664 -32 CURVE SMOOTH",
"870 -32 OFFCURVE",
"1040 82 OFFCURVE",
"1122 262 CURVE",
"1122 0 LINE",
"1178 0 LINE",
"1178 1024 LINE",
"1122 1024 LINE",
"1122 762 LINE",
"1040 942 OFFCURVE",
"870 1056 OFFCURVE",
"664 1056 CURVE SMOOTH",
"374 1056 OFFCURVE",
"150 832 OFFCURVE",
"150 512 CURVE SMOOTH"
);
},
{
closed = 1;
nodes = (
"204 802 OFFCURVE",
"400 1004 OFFCURVE",
"666 1004 CURVE SMOOTH",
"934 1004 OFFCURVE",
"1128 802 OFFCURVE",
"1128 512 CURVE SMOOTH",
"1128 224 OFFCURVE",
"934 20 OFFCURVE",
"666 20 CURVE SMOOTH",
"400 20 OFFCURVE",
"204 224 OFFCURVE",
"204 512 CURVE SMOOTH"
);
}
);
width = 1400;
}
);
leftKerningGroup = a;
note = atilde;
rightKerningGroup = a;
unicode = 00E3;
},
{
glyphname = adieresis;
lastChange = "2019-12-18 16:23:24 +0000";
layers = (
{
hints = (
{
horizontal = 1;
place = "{1350, 96}";
type = Stem;
},
{
place = "{380, 96}";
type = Stem;
},
{
place = "{852, 96}";
type = Stem;
},
{
horizontal = 1;
place = "{-32, 52}";
type = Stem;
},
{
horizontal = 1;
place = "{1004, 52}";
type = Stem;
},
{
place = "{150, 54}";
type = Stem;
},
{
place = "{1122, 56}";
type = Stem;
},
{
horizontal = 1;
place = "{0, 21}";
target = up;
type = BottomGhost;
},
{
horizontal = 1;
place = "{1024, -20}";
target = down;
type = TopGhost;
}
);
layerId = "74F259A6-12B3-44F5-88D4-EF03CB0B713A";
paths = (
{
closed = 1;
nodes = (
"402 1446 OFFCURVE",
"380 1424 OFFCURVE",
"380 1398 CURVE SMOOTH",
"380 1372 OFFCURVE",
"402 1350 OFFCURVE",
"428 1350 CURVE SMOOTH",
"454 1350 OFFCURVE",
"476 1372 OFFCURVE",
"476 1398 CURVE SMOOTH",
"476 1424 OFFCURVE",
"454 1446 OFFCURVE",
"428 1446 CURVE SMOOTH"
);
},
{
closed = 1;
nodes = (
"874 1446 OFFCURVE",
"852 1424 OFFCURVE",
"852 1398 CURVE SMOOTH",
"852 1372 OFFCURVE",
"874 1350 OFFCURVE",
"900 1350 CURVE SMOOTH",
"926 1350 OFFCURVE",
"948 1372 OFFCURVE",
"948 1398 CURVE SMOOTH",
"948 1424 OFFCURVE",
"926 1446 OFFCURVE",
"900 1446 CURVE SMOOTH"
);
},
{
closed = 1;
nodes = (
"150 192 OFFCURVE",
"374 -32 OFFCURVE",
"664 -32 CURVE SMOOTH",
"870 -32 OFFCURVE",
"1040 82 OFFCURVE",
"1122 262 CURVE",
"1122 0 LINE",
"1178 0 LINE",
"1178 1024 LINE",
"1122 1024 LINE",
"1122 762 LINE",
"1040 942 OFFCURVE",
"870 1056 OFFCURVE",
"664 1056 CURVE SMOOTH",
"374 1056 OFFCURVE",
"150 832 OFFCURVE",
"150 512 CURVE SMOOTH"
);
},
{
closed = 1;
nodes = (
"204 802 OFFCURVE",
"400 1004 OFFCURVE",
"666 1004 CURVE SMOOTH",
"934 1004 OFFCURVE",
"1128 802 OFFCURVE",
"1128 512 CURVE SMOOTH",
"1128 224 OFFCURVE",
"934 20 OFFCURVE",
"666 20 CURVE SMOOTH",
"400 20 OFFCURVE",
"204 224 OFFCURVE",
"204 512 CURVE SMOOTH"
);
}
);
width = 1400;
}
);
leftKerningGroup = a;
note = adieresis;
rightKerningGroup = a;
unicode = 00E4;
},
{
glyphname = aring;
lastChange = "2019-12-18 16:23:24 +0000";
layers = (
{
hints = (
{
horizontal = 1;
place = "{-32, 52}";
type = Stem;
},
{
horizontal = 1;
place = "{1004, 52}";
type = Stem;
},
{
horizontal = 1;
place = "{1292, 52}";
type = Stem;
},
{
horizontal = 1;
place = "{1584, 52}";
type = Stem;
},
{
place = "{150, 54}";
type = Stem;
},
{
place = "{470, 52}";
type = Stem;
},
{
place = "{806, 52}";
type = Stem;
},
{
place = "{1122, 56}";
type = Stem;
},
{
horizontal = 1;
place = "{0, 21}";
target = up;
type = BottomGhost;
},
{
horizontal = 1;
place = "{1024, -20}";
target = down;
type = TopGhost;
}
);
layerId = "74F259A6-12B3-44F5-88D4-EF03CB0B713A";
paths = (
{
closed = 1;
nodes = (
"150 192 OFFCURVE",
"374 -32 OFFCURVE",
"664 -32 CURVE SMOOTH",
"870 -32 OFFCURVE",
"1040 82 OFFCURVE",
"1122 262 CURVE",
"1122 0 LINE",
"1178 0 LINE",
"1178 1024 LINE",
"1122 1024 LINE",
"1122 762 LINE",
"1040 942 OFFCURVE",
"870 1056 OFFCURVE",
"664 1056 CURVE SMOOTH",
"374 1056 OFFCURVE",
"150 832 OFFCURVE",
"150 512 CURVE SMOOTH"
);
},
{
closed = 1;
nodes = (
"204 802 OFFCURVE",
"400 1004 OFFCURVE",
"666 1004 CURVE SMOOTH",
"934 1004 OFFCURVE",
"1128 802 OFFCURVE",
"1128 512 CURVE SMOOTH",
"1128 224 OFFCURVE",
"934 20 OFFCURVE",
"666 20 CURVE SMOOTH",
"400 20 OFFCURVE",
"204 224 OFFCURVE",
"204 512 CURVE SMOOTH"
);
},
{
closed = 1;
nodes = (
"522 1534 OFFCURVE",
"582 1584 OFFCURVE",
"664 1584 CURVE SMOOTH",
"746 1584 OFFCURVE",
"806 1534 OFFCURVE",
"806 1464 CURVE SMOOTH",
"806 1394 OFFCURVE",
"746 1344 OFFCURVE",
"664 1344 CURVE SMOOTH",
"582 1344 OFFCURVE",
"522 1394 OFFCURVE",
"522 1464 CURVE SMOOTH"
);
},
{
closed = 1;
nodes = (
"470 1364 OFFCURVE",
"556 1292 OFFCURVE",
"664 1292 CURVE SMOOTH",
"772 1292 OFFCURVE",
"858 1364 OFFCURVE",
"858 1464 CURVE SMOOTH",
"858 1564 OFFCURVE",
"772 1636 OFFCURVE",
"664 1636 CURVE SMOOTH",
"556 1636 OFFCURVE",
"470 1564 OFFCURVE",
"470 1464 CURVE SMOOTH"
);
}
);
width = 1400;
}
);
leftKerningGroup = a;
note = aring;
rightKerningGroup = a;
unicode = 00E5;
},
{
glyphname = ae;
lastChange = "2019-12-18 16:23:24 +0000";
layers = (
{
hints = (
{
horizontal = 1;
place = "{-32, 52}";
type = Stem;
},
{
horizontal = 1;
place = "{512, 50}";
type = Stem;
},
{
horizontal = 1;
place = "{582, 52}";
type = Stem;
},
{
horizontal = 1;
place = "{1006, 50}";
type = Stem;
},
{
place = "{138, 52}";
type = Stem;
},
{
place = "{896, 50}";
type = Stem;
},
{
horizontal = 1;
place = "{1004, 52}";
type = Stem;
}
);
layerId = "74F259A6-12B3-44F5-88D4-EF03CB0B713A";
paths = (
{
closed = 1;
nodes = (
"138 104 OFFCURVE",
"316 -32 OFFCURVE",
"546 -32 CURVE SMOOTH",
"698 -32 OFFCURVE",
"902 32 OFFCURVE",
"952 258 CURVE",
"1040 80 OFFCURVE",
"1222 -32 OFFCURVE",
"1440 -32 CURVE SMOOTH",
"1640 -32 OFFCURVE",
"1808 60 OFFCURVE",
"1904 212 CURVE",
"1860 240 LINE",
"1776 104 OFFCURVE",
"1624 20 OFFCURVE",
"1440 20 CURVE SMOOTH",
"1154 20 OFFCURVE",
"946 226 OFFCURVE",
"946 512 CURVE",
"1946 512 LINE",
"1946 814 OFFCURVE",
"1710 1056 OFFCURVE",
"1420 1056 CURVE SMOOTH",
"1208 1056 OFFCURVE",
"1028 926 OFFCURVE",
"942 740 CURVE",
"910 928 OFFCURVE",
"786 1056 OFFCURVE",
"538 1056 CURVE SMOOTH",
"420 1056 OFFCURVE",
"286 1002 OFFCURVE",
"200 892 CURVE",
"240 860 LINE",
"308 936 OFFCURVE",
"408 1006 OFFCURVE",
"538 1006 CURVE SMOOTH",
"770 1006 OFFCURVE",
"896 866 OFFCURVE",
"896 622 CURVE SMOOTH",
"896 478 LINE",
"826 574 OFFCURVE",
"698 634 OFFCURVE",
"546 634 CURVE SMOOTH",
"316 634 OFFCURVE",
"138 498 OFFCURVE",
"138 300 CURVE SMOOTH"
);
},
{
closed = 1;
nodes = (
"948 562 LINE",
"972 812 OFFCURVE",
"1174 1004 OFFCURVE",
"1420 1004 CURVE SMOOTH",
"1664 1004 OFFCURVE",
"1866 812 OFFCURVE",
"1890 562 CURVE"
);
},
{
closed = 1;
nodes = (
"190 472 OFFCURVE",
"350 582 OFFCURVE",
"546 582 CURVE SMOOTH",
"742 582 OFFCURVE",
"902 472 OFFCURVE",
"902 302 CURVE SMOOTH",
"902 132 OFFCURVE",
"742 20 OFFCURVE",
"546 20 CURVE SMOOTH",
"350 20 OFFCURVE",
"190 132 OFFCURVE",
"190 302 CURVE SMOOTH"
);
}
);
width = 2084;
}
);
note = ae;
rightKerningGroup = space;
unicode = 00E6;
},
{
glyphname = ccedilla;
lastChange = "2019-12-18 16:23:24 +0000";
layers = (
{
hints = (
{
horizontal = 1;
place = "{-588, 52}";
type = Stem;
},
{
horizontal = 1;
place = "{-214, 52}";
type = Stem;
},
{
horizontal = 1;
place = "{-32, 52}";
type = Stem;
},
{
horizontal = 1;
place = "{1004, 52}";
type = Stem;
},
{
place = "{138, 52}";
type = Stem;
},
{
place = "{840, 52}";
type = Stem;
}
);
layerId = "74F259A6-12B3-44F5-88D4-EF03CB0B713A";
paths = (
{
closed = 1;
nodes = (
"138 226 OFFCURVE",
"330 14 OFFCURVE",
"594 -24 CURVE",
"518 -258 LINE",
"522 -260 LINE",
"574 -228 OFFCURVE",
"646 -214 OFFCURVE",
"682 -214 CURVE SMOOTH",
"776 -214 OFFCURVE",
"840 -280 OFFCURVE",
"840 -378 CURVE SMOOTH",
"840 -488 OFFCURVE",
"742 -536 OFFCURVE",
"650 -536 CURVE SMOOTH",
"552 -536 OFFCURVE",
"478 -494 OFFCURVE",
"436 -418 CURVE",
"392 -442 LINE",
"440 -536 OFFCURVE",
"532 -588 OFFCURVE",
"650 -588 CURVE SMOOTH",
"790 -588 OFFCURVE",
"892 -500 OFFCURVE",
"892 -378 CURVE SMOOTH",
"892 -252 OFFCURVE",
"806 -162 OFFCURVE",
"682 -162 CURVE SMOOTH",
"654 -162 OFFCURVE",
"626 -168 OFFCURVE",
"600 -174 CURVE",
"646 -30 LINE",
"658 -32 OFFCURVE",
"672 -32 OFFCURVE",
"684 -32 CURVE SMOOTH",
"820 -32 OFFCURVE",
"942 12 OFFCURVE",
"1038 88 CURVE",
"1002 126 LINE",
"916 56 OFFCURVE",
"806 20 OFFCURVE",
"684 20 CURVE SMOOTH",
"398 20 OFFCURVE",
"190 226 OFFCURVE",
"190 512 CURVE SMOOTH",
"190 798 OFFCURVE",
"398 1004 OFFCURVE",
"684 1004 CURVE SMOOTH",
"806 1004 OFFCURVE",
"916 968 OFFCURVE",
"1004 898 CURVE",
"1038 936 LINE",
"944 1012 OFFCURVE",
"820 1056 OFFCURVE",
"684 1056 CURVE SMOOTH",
"376 1056 OFFCURVE",
"138 832 OFFCURVE",
"138 512 CURVE SMOOTH"
);
}
);
width = 1190;
}
);
leftKerningGroup = c;
note = ccedilla;
rightKerningGroup = c;
unicode = 00E7;
},
{
glyphname = egrave;
lastChange = "2019-12-18 16:23:24 +0000";
layers = (
{
hints = (
{
horizontal = 1;
place = "{1174, 21}";
target = up;
type = BottomGhost;
},
{
horizontal = 1;
place = "{1386, -20}";
target = down;
type = TopGhost;
},
{
place = "{490, 268}";
type = Stem;
},
{
horizontal = 1;
place = "{-32, 52}";
type = Stem;
},
{
horizontal = 1;
place = "{512, 50}";
type = Stem;
},
{
horizontal = 1;
place = "{1004, 52}";
type = Stem;
},
{
place = "{138, 52}";
type = Stem;
},
{
place = "{1134, 56}";
type = Stem;
}
);
layerId = "74F259A6-12B3-44F5-88D4-EF03CB0B713A";
paths = (
{
closed = 1;
nodes = (
"490 1324 LINE",
"728 1174 LINE",
"758 1216 LINE",
"532 1386 LINE"
);
},
{
closed = 1;
nodes = (
"138 192 OFFCURVE",
"376 -32 OFFCURVE",
"684 -32 CURVE SMOOTH",
"884 -32 OFFCURVE",
"1052 60 OFFCURVE",
"1148 212 CURVE",
"1104 240 LINE",
"1020 104 OFFCURVE",
"868 20 OFFCURVE",
"684 20 CURVE SMOOTH",
"398 20 OFFCURVE",
"190 226 OFFCURVE",
"190 512 CURVE",
"1190 512 LINE",
"1190 814 OFFCURVE",
"954 1056 OFFCURVE",
"664 1056 CURVE SMOOTH",
"374 1056 OFFCURVE",
"138 814 OFFCURVE",
"138 512 CURVE SMOOTH"
);
},
{
closed = 1;
nodes = (
"192 562 LINE",
"216 812 OFFCURVE",
"418 1004 OFFCURVE",
"664 1004 CURVE SMOOTH",
"908 1004 OFFCURVE",
"1110 812 OFFCURVE",
"1134 562 CURVE"
);
}
);
width = 1328;
}
);
leftKerningGroup = c;
note = egrave;
rightKerningGroup = c;
unicode = 00E8;
},
{
glyphname = eacute;
lastChange = "2019-12-18 16:23:24 +0000";
layers = (
{
hints = (
{
horizontal = 1;
place = "{-32, 52}";
type = Stem;
},
{
horizontal = 1;
place = "{512, 50}";
type = Stem;
},
{
horizontal = 1;
place = "{1004, 52}";
type = Stem;
},
{
place = "{138, 52}";
type = Stem;
},
{
place = "{1134, 56}";
type = Stem;
},
{
horizontal = 1;
place = "{1174, 21}";
target = up;
type = BottomGhost;
},
{
horizontal = 1;
place = "{1386, -20}";
target = down;
type = TopGhost;
},
{
place = "{570, 268}";
type = Stem;
}
);
layerId = "74F259A6-12B3-44F5-88D4-EF03CB0B713A";
paths = (
{
closed = 1;
nodes = (
"138 192 OFFCURVE",
"376 -32 OFFCURVE",
"684 -32 CURVE SMOOTH",
"884 -32 OFFCURVE",
"1052 60 OFFCURVE",
"1148 212 CURVE",
"1104 240 LINE",
"1020 104 OFFCURVE",
"868 20 OFFCURVE",
"684 20 CURVE SMOOTH",
"398 20 OFFCURVE",
"190 226 OFFCURVE",
"190 512 CURVE",
"1190 512 LINE",
"1190 814 OFFCURVE",
"954 1056 OFFCURVE",
"664 1056 CURVE SMOOTH",
"374 1056 OFFCURVE",
"138 814 OFFCURVE",
"138 512 CURVE SMOOTH"
);
},
{
closed = 1;
nodes = (
"192 562 LINE",
"216 812 OFFCURVE",
"418 1004 OFFCURVE",
"664 1004 CURVE SMOOTH",
"908 1004 OFFCURVE",
"1110 812 OFFCURVE",
"1134 562 CURVE"
);
},
{
closed = 1;
nodes = (
"796 1386 LINE",
"570 1216 LINE",
"600 1174 LINE",
"838 1324 LINE"
);
}
);
width = 1328;
}
);
leftKerningGroup = c;
note = eacute;
rightKerningGroup = c;
unicode = 00E9;
},
{
glyphname = ecircumflex;
lastChange = "2019-12-18 16:23:24 +0000";
layers = (
{
hints = (
{
horizontal = 1;
place = "{1174, 21}";
target = up;
type = BottomGhost;
},
{
horizontal = 1;
place = "{1462, -20}";
target = down;
type = TopGhost;
},
{
place = "{328, 672}";
type = Stem;
},
{
horizontal = 1;
place = "{-32, 52}";
type = Stem;
},
{
horizontal = 1;
place = "{512, 50}";
type = Stem;
},
{
horizontal = 1;
place = "{1004, 52}";
type = Stem;
},
{
place = "{138, 52}";
type = Stem;
},
{
place = "{1134, 56}";
type = Stem;
}
);
layerId = "74F259A6-12B3-44F5-88D4-EF03CB0B713A";
paths = (
{
closed = 1;
nodes = (
"328 1216 LINE",
"358 1174 LINE",
"664 1398 LINE",
"970 1174 LINE",
"1000 1216 LINE",
"664 1462 LINE"
);
},
{
closed = 1;
nodes = (
"138 192 OFFCURVE",
"376 -32 OFFCURVE",
"684 -32 CURVE SMOOTH",
"884 -32 OFFCURVE",
"1052 60 OFFCURVE",
"1148 212 CURVE",
"1104 240 LINE",
"1020 104 OFFCURVE",
"868 20 OFFCURVE",
"684 20 CURVE SMOOTH",
"398 20 OFFCURVE",
"190 226 OFFCURVE",
"190 512 CURVE",
"1190 512 LINE",
"1190 814 OFFCURVE",
"954 1056 OFFCURVE",
"664 1056 CURVE SMOOTH",
"374 1056 OFFCURVE",
"138 814 OFFCURVE",
"138 512 CURVE SMOOTH"
);
},
{
closed = 1;
nodes = (
"192 562 LINE",
"216 812 OFFCURVE",
"418 1004 OFFCURVE",
"664 1004 CURVE SMOOTH",
"908 1004 OFFCURVE",
"1110 812 OFFCURVE",
"1134 562 CURVE"
);
}
);
width = 1328;
}
);
leftKerningGroup = c;
note = ecircumflex;
rightKerningGroup = c;
unicode = 00EA;
},
{
glyphname = edieresis;
lastChange = "2019-12-18 16:23:24 +0000";
layers = (
{
hints = (
{
horizontal = 1;
place = "{1214, 96}";
type = Stem;
},
{
place = "{380, 96}";
type = Stem;
},
{
place = "{852, 96}";
type = Stem;
},
{
horizontal = 1;
place = "{-32, 52}";
type = Stem;
},
{
horizontal = 1;
place = "{512, 50}";
type = Stem;
},
{
horizontal = 1;
place = "{1004, 52}";
type = Stem;
},
{
place = "{138, 52}";
type = Stem;
},
{
place = "{1134, 56}";
type = Stem;
}
);
layerId = "74F259A6-12B3-44F5-88D4-EF03CB0B713A";
paths = (
{
closed = 1;
nodes = (
"402 1310 OFFCURVE",
"380 1288 OFFCURVE",
"380 1262 CURVE SMOOTH",
"380 1236 OFFCURVE",
"402 1214 OFFCURVE",
"428 1214 CURVE SMOOTH",
"454 1214 OFFCURVE",
"476 1236 OFFCURVE",
"476 1262 CURVE SMOOTH",
"476 1288 OFFCURVE",
"454 1310 OFFCURVE",
"428 1310 CURVE SMOOTH"
);
},
{
closed = 1;
nodes = (
"874 1310 OFFCURVE",
"852 1288 OFFCURVE",
"852 1262 CURVE SMOOTH",
"852 1236 OFFCURVE",
"874 1214 OFFCURVE",
"900 1214 CURVE SMOOTH",
"926 1214 OFFCURVE",
"948 1236 OFFCURVE",
"948 1262 CURVE SMOOTH",
"948 1288 OFFCURVE",
"926 1310 OFFCURVE",
"900 1310 CURVE SMOOTH"
);
},
{
closed = 1;
nodes = (
"138 192 OFFCURVE",
"376 -32 OFFCURVE",
"684 -32 CURVE SMOOTH",
"884 -32 OFFCURVE",
"1052 60 OFFCURVE",
"1148 212 CURVE",
"1104 240 LINE",
"1020 104 OFFCURVE",
"868 20 OFFCURVE",
"684 20 CURVE SMOOTH",
"398 20 OFFCURVE",
"190 226 OFFCURVE",
"190 512 CURVE",
"1190 512 LINE",
"1190 814 OFFCURVE",
"954 1056 OFFCURVE",
"664 1056 CURVE SMOOTH",
"374 1056 OFFCURVE",
"138 814 OFFCURVE",
"138 512 CURVE SMOOTH"
);
},
{
closed = 1;
nodes = (
"192 562 LINE",
"216 812 OFFCURVE",
"418 1004 OFFCURVE",
"664 1004 CURVE SMOOTH",
"908 1004 OFFCURVE",
"1110 812 OFFCURVE",
"1134 562 CURVE"
);
}
);
width = 1328;
}
);
leftKerningGroup = c;
note = edieresis;
rightKerningGroup = c;
unicode = 00EB;
},
{
glyphname = igrave;
lastChange = "2019-12-18 16:23:24 +0000";
layers = (
{
hints = (
{
horizontal = 1;
place = "{1174, 21}";
target = up;
type = BottomGhost;
},
{
horizontal = 1;
place = "{1386, -20}";
target = down;
type = TopGhost;
},
{
place = "{32, 268}";
type = Stem;
},
{
horizontal = 1;
place = "{0, 21}";
target = up;
type = BottomGhost;
},
{
horizontal = 1;
place = "{1024, -20}";
target = down;
type = TopGhost;
},
{
place = "{242, 56}";
type = Stem;
}
);
layerId = "74F259A6-12B3-44F5-88D4-EF03CB0B713A";
paths = (
{
closed = 1;
nodes = (
"32 1324 LINE",
"270 1174 LINE",
"300 1216 LINE",
"74 1386 LINE"
);
},
{
closed = 1;
nodes = (
"242 1024 LINE",
"242 0 LINE",
"298 0 LINE",
"298 1024 LINE"
);
}
);
width = 540;
}
);
leftKerningGroup = I;
note = igrave;
rightKerningGroup = space;
unicode = 00EC;
},
{
glyphname = iacute;
lastChange = "2019-12-18 16:23:24 +0000";
layers = (
{
hints = (
{
horizontal = 1;
place = "{0, 21}";
target = up;
type = BottomGhost;
},
{
horizontal = 1;
place = "{1024, -20}";
target = down;
type = TopGhost;
},
{
place = "{242, 56}";
type = Stem;
},
{
horizontal = 1;
place = "{1174, 21}";
target = up;
type = BottomGhost;
},
{
horizontal = 1;
place = "{1386, -20}";
target = down;
type = TopGhost;
},
{
place = "{240, 268}";
type = Stem;
}
);
layerId = "74F259A6-12B3-44F5-88D4-EF03CB0B713A";
paths = (
{
closed = 1;
nodes = (
"242 1024 LINE",
"242 0 LINE",
"298 0 LINE",
"298 1024 LINE"
);
},
{
closed = 1;
nodes = (
"466 1386 LINE",
"240 1216 LINE",
"270 1174 LINE",
"508 1324 LINE"
);
}
);
width = 540;
}
);
leftKerningGroup = I;
note = iacute;
rightKerningGroup = space;
unicode = 00ED;
},
{
glyphname = icircumflex;
lastChange = "2019-12-18 16:23:24 +0000";
layers = (
{
hints = (
{
horizontal = 1;
place = "{1174, 21}";
target = up;
type = BottomGhost;
},
{
horizontal = 1;
place = "{1462, -20}";
target = down;
type = TopGhost;
},
{
place = "{-66, 672}";
type = Stem;
},
{
horizontal = 1;
place = "{0, 21}";
target = up;
type = BottomGhost;
},
{
horizontal = 1;
place = "{1024, -20}";
target = down;
type = TopGhost;
},
{
place = "{242, 56}";
type = Stem;
}
);
layerId = "74F259A6-12B3-44F5-88D4-EF03CB0B713A";
paths = (
{
closed = 1;
nodes = (
"-66 1216 LINE",
"-36 1174 LINE",
"270 1398 LINE",
"576 1174 LINE",
"606 1216 LINE",
"270 1462 LINE"
);
},
{
closed = 1;
nodes = (
"242 1024 LINE",
"242 0 LINE",
"298 0 LINE",
"298 1024 LINE"
);
}
);
width = 540;
}
);
leftKerningGroup = Icircumflex;
note = icircumflex;
rightKerningGroup = Icircumflex;
unicode = 00EE;
},
{
glyphname = idieresis;
lastChange = "2019-12-18 16:23:24 +0000";
layers = (
{
hints = (
{
horizontal = 1;
place = "{1226, 96}";
type = Stem;
},
{
place = "{-14, 96}";
type = Stem;
},
{
place = "{458, 96}";
type = Stem;
},
{
horizontal = 1;
place = "{0, 21}";
target = up;
type = BottomGhost;
},
{
horizontal = 1;
place = "{1024, -20}";
target = down;
type = TopGhost;
},
{
place = "{242, 56}";
type = Stem;
}
);
layerId = "74F259A6-12B3-44F5-88D4-EF03CB0B713A";
paths = (
{
closed = 1;
nodes = (
"8 1322 OFFCURVE",
"-14 1300 OFFCURVE",
"-14 1274 CURVE SMOOTH",
"-14 1248 OFFCURVE",
"8 1226 OFFCURVE",
"34 1226 CURVE SMOOTH",
"60 1226 OFFCURVE",
"82 1248 OFFCURVE",
"82 1274 CURVE SMOOTH",
"82 1300 OFFCURVE",
"60 1322 OFFCURVE",
"34 1322 CURVE SMOOTH"
);
},
{
closed = 1;
nodes = (
"480 1322 OFFCURVE",
"458 1300 OFFCURVE",
"458 1274 CURVE SMOOTH",
"458 1248 OFFCURVE",
"480 1226 OFFCURVE",
"506 1226 CURVE SMOOTH",
"532 1226 OFFCURVE",
"554 1248 OFFCURVE",
"554 1274 CURVE SMOOTH",
"554 1300 OFFCURVE",
"532 1322 OFFCURVE",
"506 1322 CURVE SMOOTH"
);
},
{
closed = 1;
nodes = (
"242 1024 LINE",
"242 0 LINE",
"298 0 LINE",
"298 1024 LINE"
);
}
);
width = 540;
}
);
leftKerningGroup = Icircumflex;
note = idieresis;
rightKerningGroup = Icircumflex;
unicode = 00EF;
},
{
glyphname = eth;
lastChange = "2019-12-18 16:23:24 +0000";
layers = (
{
hints = (
{
horizontal = 1;
place = "{-32, 52}";
type = Stem;
},
{
horizontal = 1;
place = "{1004, 52}";
type = Stem;
},
{
horizontal = 1;
place = "{1750, -20}";
target = down;
type = TopGhost;
},
{
place = "{138, 52}";
type = Stem;
},
{
place = "{1182, 52}";
type = Stem;
}
);
layerId = "74F259A6-12B3-44F5-88D4-EF03CB0B713A";
paths = (
{
closed = 1;
nodes = (
"138 192 OFFCURVE",
"376 -32 OFFCURVE",
"686 -32 CURVE SMOOTH",
"996 -32 OFFCURVE",
"1234 192 OFFCURVE",
"1234 512 CURVE SMOOTH",
"1234 968 OFFCURVE",
"1092 1330 OFFCURVE",
"812 1562 CURVE",
"962 1710 LINE",
"922 1750 LINE",
"768 1596 LINE",
"682 1660 OFFCURVE",
"586 1710 OFFCURVE",
"478 1750 CURVE",
"458 1698 LINE",
"556 1662 OFFCURVE",
"648 1616 OFFCURVE",
"728 1556 CURVE",
"580 1408 LINE",
"620 1368 LINE",
"774 1522 LINE",
"972 1362 OFFCURVE",
"1110 1122 OFFCURVE",
"1160 798 CURVE",
"1066 958 OFFCURVE",
"892 1056 OFFCURVE",
"686 1056 CURVE SMOOTH",
"376 1056 OFFCURVE",
"138 834 OFFCURVE",
"138 512 CURVE SMOOTH"
);
},
{
closed = 1;
nodes = (
"190 798 OFFCURVE",
"398 1004 OFFCURVE",
"686 1004 CURVE SMOOTH",
"972 1004 OFFCURVE",
"1182 798 OFFCURVE",
"1182 512 CURVE SMOOTH",
"1182 226 OFFCURVE",
"972 20 OFFCURVE",
"686 20 CURVE SMOOTH",
"398 20 OFFCURVE",
"190 226 OFFCURVE",
"190 512 CURVE SMOOTH"
);
}
);
width = 1396;
}
);
note = eth;
rightKerningGroup = space;
unicode = 00F0;
},
{
glyphname = ntilde;
lastChange = "2019-12-18 16:23:24 +0000";
layers = (
{
hints = (
{
horizontal = 1;
place = "{1230, 50}";
type = Stem;
},
{
horizontal = 1;
place = "{1390, 50}";
type = Stem;
},
{
place = "{128, 956}";
type = Stem;
},
{
horizontal = 1;
place = "{0, 21}";
target = up;
type = BottomGhost;
},
{
horizontal = 1;
place = "{1024, -20}";
target = down;
type = TopGhost;
},
{
place = "{222, 56}";
type = Stem;
},
{
place = "{942, 56}";
type = Stem;
},
{
horizontal = 1;
place = "{1006, 50}";
type = Stem;
}
);
layerId = "74F259A6-12B3-44F5-88D4-EF03CB0B713A";
paths = (
{
closed = 1;
nodes = (
"166 1234 LINE",
"214 1318 OFFCURVE",
"294 1390 OFFCURVE",
"404 1390 CURVE SMOOTH",
"444 1390 OFFCURVE",
"512 1380 OFFCURVE",
"590 1316 CURVE SMOOTH",
"682 1242 OFFCURVE",
"760 1230 OFFCURVE",
"808 1230 CURVE SMOOTH",
"936 1230 OFFCURVE",
"1030 1310 OFFCURVE",
"1084 1402 CURVE",
"1046 1436 LINE",
"998 1352 OFFCURVE",
"918 1280 OFFCURVE",
"808 1280 CURVE SMOOTH",
"768 1280 OFFCURVE",
"700 1290 OFFCURVE",
"622 1354 CURVE SMOOTH",
"530 1428 OFFCURVE",
"452 1440 OFFCURVE",
"404 1440 CURVE SMOOTH",
"276 1440 OFFCURVE",
"182 1360 OFFCURVE",
"128 1268 CURVE"
);
},
{
closed = 1;
nodes = (
"222 1024 LINE",
"222 0 LINE",
"278 0 LINE",
"278 702 LINE SMOOTH",
"278 848 OFFCURVE",
"398 1006 OFFCURVE",
"606 1006 CURVE SMOOTH",
"838 1006 OFFCURVE",
"942 866 OFFCURVE",
"942 622 CURVE SMOOTH",
"942 0 LINE",
"998 0 LINE",
"998 640 LINE SMOOTH",
"998 880 OFFCURVE",
"896 1056 OFFCURVE",
"606 1056 CURVE SMOOTH",
"492 1056 OFFCURVE",
"332 1002 OFFCURVE",
"278 870 CURVE",
"278 1024 LINE"
);
}
);
width = 1204;
}
);
leftKerningGroup = m;
note = ntilde;
rightKerningGroup = b;
unicode = 00F1;
},
{
glyphname = ograve;
lastChange = "2019-12-18 16:23:24 +0000";
layers = (
{
hints = (
{
horizontal = 1;
place = "{1172, 21}";
target = up;
type = BottomGhost;
},
{
horizontal = 1;
place = "{1384, -20}";
target = down;
type = TopGhost;
},
{
place = "{512, 268}";
type = Stem;
},
{
horizontal = 1;
place = "{-32, 52}";
type = Stem;
},
{
horizontal = 1;
place = "{1004, 52}";
type = Stem;
},
{
place = "{138, 52}";
type = Stem;
},
{
place = "{1182, 52}";
type = Stem;
}
);
layerId = "74F259A6-12B3-44F5-88D4-EF03CB0B713A";
paths = (
{
closed = 1;
nodes = (
"512 1322 LINE",
"750 1172 LINE",
"780 1214 LINE",
"554 1384 LINE"
);
},
{
closed = 1;
nodes = (
"138 190 OFFCURVE",
"376 -32 OFFCURVE",
"686 -32 CURVE SMOOTH",
"996 -32 OFFCURVE",
"1234 190 OFFCURVE",
"1234 512 CURVE SMOOTH",
"1234 834 OFFCURVE",
"996 1056 OFFCURVE",
"686 1056 CURVE SMOOTH",
"376 1056 OFFCURVE",
"138 834 OFFCURVE",
"138 512 CURVE SMOOTH"
);
},
{
closed = 1;
nodes = (
"190 798 OFFCURVE",
"398 1004 OFFCURVE",
"686 1004 CURVE SMOOTH",
"974 1004 OFFCURVE",
"1182 798 OFFCURVE",
"1182 512 CURVE SMOOTH",
"1182 226 OFFCURVE",
"974 20 OFFCURVE",
"686 20 CURVE SMOOTH",
"398 20 OFFCURVE",
"190 226 OFFCURVE",
"190 512 CURVE SMOOTH"
);
}
);
width = 1372;
}
);
leftKerningGroup = c;
note = ograve;
rightKerningGroup = c;
unicode = 00F2;
},
{
glyphname = oacute;
lastChange = "2019-12-18 16:23:24 +0000";
layers = (
{
hints = (
{
horizontal = 1;
place = "{-32, 52}";
type = Stem;
},
{
horizontal = 1;
place = "{1004, 52}";
type = Stem;
},
{
place = "{138, 52}";
type = Stem;
},
{
place = "{1182, 52}";
type = Stem;
},
{
horizontal = 1;
place = "{1174, 21}";
target = up;
type = BottomGhost;
},
{
horizontal = 1;
place = "{1386, -20}";
target = down;
type = TopGhost;
},
{
place = "{592, 268}";
type = Stem;
}
);
layerId = "74F259A6-12B3-44F5-88D4-EF03CB0B713A";
paths = (
{
closed = 1;
nodes = (
"138 190 OFFCURVE",
"376 -32 OFFCURVE",
"686 -32 CURVE SMOOTH",
"996 -32 OFFCURVE",
"1234 190 OFFCURVE",
"1234 512 CURVE SMOOTH",
"1234 834 OFFCURVE",
"996 1056 OFFCURVE",
"686 1056 CURVE SMOOTH",
"376 1056 OFFCURVE",
"138 834 OFFCURVE",
"138 512 CURVE SMOOTH"
);
},
{
closed = 1;
nodes = (
"190 798 OFFCURVE",
"398 1004 OFFCURVE",
"686 1004 CURVE SMOOTH",
"974 1004 OFFCURVE",
"1182 798 OFFCURVE",
"1182 512 CURVE SMOOTH",
"1182 226 OFFCURVE",
"974 20 OFFCURVE",
"686 20 CURVE SMOOTH",
"398 20 OFFCURVE",
"190 226 OFFCURVE",
"190 512 CURVE SMOOTH"
);
},
{
closed = 1;
nodes = (
"818 1386 LINE",
"592 1216 LINE",
"622 1174 LINE",
"860 1324 LINE"
);
}
);
width = 1372;
}
);
leftKerningGroup = c;
note = oacute;
rightKerningGroup = c;
unicode = 00F3;
},
{
glyphname = ocircumflex;
lastChange = "2019-12-18 16:23:24 +0000";
layers = (
{
hints = (
{
horizontal = 1;
place = "{1174, 21}";
target = up;
type = BottomGhost;
},
{
horizontal = 1;
place = "{1462, -20}";
target = down;
type = TopGhost;
},
{
place = "{350, 672}";
type = Stem;
},
{
horizontal = 1;
place = "{-32, 52}";
type = Stem;
},
{
horizontal = 1;
place = "{1004, 52}";
type = Stem;
},
{
place = "{138, 52}";
type = Stem;
},
{
place = "{1182, 52}";
type = Stem;
}
);
layerId = "74F259A6-12B3-44F5-88D4-EF03CB0B713A";
paths = (
{
closed = 1;
nodes = (
"350 1216 LINE",
"380 1174 LINE",
"686 1398 LINE",
"992 1174 LINE",
"1022 1216 LINE",
"686 1462 LINE"
);
},
{
closed = 1;
nodes = (
"138 190 OFFCURVE",
"376 -32 OFFCURVE",
"686 -32 CURVE SMOOTH",
"996 -32 OFFCURVE",
"1234 190 OFFCURVE",
"1234 512 CURVE SMOOTH",
"1234 834 OFFCURVE",
"996 1056 OFFCURVE",
"686 1056 CURVE SMOOTH",
"376 1056 OFFCURVE",
"138 834 OFFCURVE",
"138 512 CURVE SMOOTH"
);
},
{
closed = 1;
nodes = (
"190 798 OFFCURVE",
"398 1004 OFFCURVE",
"686 1004 CURVE SMOOTH",
"974 1004 OFFCURVE",
"1182 798 OFFCURVE",
"1182 512 CURVE SMOOTH",
"1182 226 OFFCURVE",
"974 20 OFFCURVE",
"686 20 CURVE SMOOTH",
"398 20 OFFCURVE",
"190 226 OFFCURVE",
"190 512 CURVE SMOOTH"
);
}
);
width = 1372;
}
);
leftKerningGroup = c;
note = ocircumflex;
rightKerningGroup = c;
unicode = 00F4;
},
{
glyphname = otilde;
lastChange = "2019-12-18 16:23:24 +0000";
layers = (
{
hints = (
{
horizontal = 1;
place = "{1230, 50}";
type = Stem;
},
{
horizontal = 1;
place = "{1390, 50}";
type = Stem;
},
{
place = "{208, 956}";
type = Stem;
},
{
horizontal = 1;
place = "{-32, 52}";
type = Stem;
},
{
horizontal = 1;
place = "{1004, 52}";
type = Stem;
},
{
place = "{138, 52}";
type = Stem;
},
{
place = "{1182, 52}";
type = Stem;
}
);
layerId = "74F259A6-12B3-44F5-88D4-EF03CB0B713A";
paths = (
{
closed = 1;
nodes = (
"246 1234 LINE",
"294 1318 OFFCURVE",
"374 1390 OFFCURVE",
"484 1390 CURVE SMOOTH",
"524 1390 OFFCURVE",
"592 1380 OFFCURVE",
"670 1316 CURVE SMOOTH",
"762 1242 OFFCURVE",
"840 1230 OFFCURVE",
"888 1230 CURVE SMOOTH",
"1016 1230 OFFCURVE",
"1110 1310 OFFCURVE",
"1164 1402 CURVE",
"1126 1436 LINE",
"1078 1352 OFFCURVE",
"998 1280 OFFCURVE",
"888 1280 CURVE SMOOTH",
"848 1280 OFFCURVE",
"780 1290 OFFCURVE",
"702 1354 CURVE SMOOTH",
"610 1428 OFFCURVE",
"532 1440 OFFCURVE",
"484 1440 CURVE SMOOTH",
"356 1440 OFFCURVE",
"262 1360 OFFCURVE",
"208 1268 CURVE"
);
},
{
closed = 1;
nodes = (
"138 190 OFFCURVE",
"376 -32 OFFCURVE",
"686 -32 CURVE SMOOTH",
"996 -32 OFFCURVE",
"1234 190 OFFCURVE",
"1234 512 CURVE SMOOTH",
"1234 834 OFFCURVE",
"996 1056 OFFCURVE",
"686 1056 CURVE SMOOTH",
"376 1056 OFFCURVE",
"138 834 OFFCURVE",
"138 512 CURVE SMOOTH"
);
},
{
closed = 1;
nodes = (
"190 798 OFFCURVE",
"398 1004 OFFCURVE",
"686 1004 CURVE SMOOTH",
"974 1004 OFFCURVE",
"1182 798 OFFCURVE",
"1182 512 CURVE SMOOTH",
"1182 226 OFFCURVE",
"974 20 OFFCURVE",
"686 20 CURVE SMOOTH",
"398 20 OFFCURVE",
"190 226 OFFCURVE",
"190 512 CURVE SMOOTH"
);
}
);
width = 1372;
}
);
leftKerningGroup = c;
note = otilde;
rightKerningGroup = c;
unicode = 00F5;
},
